<svg width="206" height="74" viewBox="0 0 206 74" fill="none" xmlns="http://www.w3.org/2000/svg">
<g filter="url(#filter0_d_7_21905)">
<path d="M26.2368 10.7529C27.8348 11.0443 28.1646 13.1909 26.7277 13.9487L19.4731 17.7751L17.4517 25.7232C17.052 27.2978 14.8873 27.4794 14.2292 25.9937L7.1472 9.98918C7.02098 9.70478 6.97469 9.39134 7.0133 9.0826C7.05192 8.77385 7.17399 8.48147 7.36638 8.23693C7.55877 7.99238 7.81419 7.80491 8.10517 7.6947C8.39615 7.58448 8.71167 7.55568 9.01779 7.61141L26.2368 10.7529Z" fill="#1D8EE6"/>
<path d="M8.28244 8.16205C8.48803 8.08422 8.7111 8.0633 8.9274 8.10249L8.9276 8.10345L26.1472 11.2452C27.2777 11.4515 27.5111 12.9697 26.4945 13.5061L19.2397 17.3328L19.0429 17.4367L18.9889 17.6514L16.967 25.6001C16.6844 26.7134 15.1527 26.8433 14.6865 25.7909L7.60443 9.78664C7.51513 9.58544 7.48239 9.36345 7.50965 9.14502C7.53697 8.92665 7.62301 8.71944 7.75901 8.54642C7.89519 8.37333 8.07648 8.24006 8.28244 8.16205Z" stroke="url(#paint0_linear_7_21905)" stroke-opacity="0.02"/>
</g>
<g filter="url(#filter1_d_7_21905)">
<rect x="24.7671" y="23" width="56" height="48" rx="24" fill="#27AAE1" fill-opacity="0.02" shape-rendering="crispEdges"/>
<rect x="25.2671" y="23.5" width="55" height="47" rx="23.5" stroke="#27AAE1" stroke-opacity="0.1" shape-rendering="crispEdges"/>
<g filter="url(#filter2_d_7_21905)">
<path fill-rule="evenodd" clip-rule="evenodd" d="M37.1328 46.1257C37.5803 40.091 42.6182 35.334 48.7672 35.334C47.7978 35.334 46.9348 35.7589 46.2248 36.4086C45.5183 37.0551 44.9213 37.9576 44.4385 39.0243C43.9528 40.0974 43.5755 41.3524 43.3201 42.7145C43.1154 43.8063 42.9909 44.9573 42.9494 46.1257H37.1328ZM37.1328 47.8757H42.9494C42.9909 49.0441 43.1154 50.1951 43.3201 51.2869C43.5755 52.6489 43.9528 53.9039 44.4385 54.977C44.9213 56.0437 45.5183 56.9462 46.2248 57.5927C46.9348 58.2424 47.7978 58.6673 48.7672 58.6673C42.6182 58.6673 37.5803 53.9103 37.1328 47.8757Z" fill="#1D8EE6"/>
<path d="M48.7672 36.9619C48.4463 36.9619 48.0318 37.0984 47.5499 37.5395C47.0643 37.9838 46.5783 38.6802 46.1488 39.6289C45.7222 40.5714 45.3758 41.7091 45.1375 42.9805C44.9497 43.9818 44.8333 45.0432 44.7924 46.1257H52.7419C52.701 45.0432 52.5846 43.9818 52.3969 42.9805C52.1585 41.7091 51.8121 40.5714 51.3855 39.6289C50.9561 38.6802 50.47 37.9838 49.9845 37.5395C49.5025 37.0984 49.088 36.9619 48.7672 36.9619Z" fill="#1D8EE6"/>
<path d="M45.1375 51.0208C45.3758 52.2922 45.7222 53.4299 46.1488 54.3724C46.5783 55.3211 47.0643 56.0175 47.5499 56.4618C48.0318 56.9029 48.4463 57.0394 48.7672 57.0394C49.088 57.0394 49.5025 56.9029 49.9845 56.4618C50.47 56.0175 50.9561 55.3211 51.3855 54.3724C51.8121 53.4299 52.1585 52.2922 52.3969 51.0208C52.5846 50.0195 52.701 48.9581 52.7419 47.8757H44.7924C44.8333 48.9581 44.9497 50.0195 45.1375 51.0208Z" fill="#1D8EE6"/>
<path d="M48.7672 35.334C49.7365 35.334 50.5996 35.7589 51.3096 36.4086C52.016 37.0551 52.613 37.9576 53.0958 39.0243C53.5815 40.0974 53.9588 41.3524 54.2142 42.7145C54.4189 43.8063 54.5434 44.9573 54.585 46.1257H60.4015C59.9541 40.091 54.9161 35.334 48.7672 35.334Z" fill="#1D8EE6"/>
<path d="M54.2142 51.2869C53.9588 52.6489 53.5815 53.9039 53.0958 54.977C52.613 56.0437 52.016 56.9462 51.3096 57.5927C50.5996 58.2424 49.7365 58.6673 48.7672 58.6673C54.9161 58.6673 59.9541 53.9103 60.4015 47.8757H54.585C54.5434 49.0441 54.4189 50.1951 54.2142 51.2869Z" fill="#1D8EE6"/>
<path d="M42.4717 48.376C42.5281 49.4022 42.6479 50.4123 42.8291 51.3789C43.0903 52.7723 43.4782 54.0674 43.9834 55.1836C44.4303 56.1709 44.9825 57.0444 45.6436 57.7227C41.4225 56.495 38.2332 52.8445 37.6846 48.376H42.4717ZM59.8496 48.376C59.3009 52.8449 56.1112 56.4953 51.8896 57.7227C52.551 57.0443 53.1047 56.1713 53.5518 55.1836C54.057 54.0674 54.4448 52.7723 54.7061 51.3789C54.8873 50.4123 55.0061 49.4022 55.0625 48.376H59.8496ZM52.2129 48.376C52.1593 49.2545 52.0582 50.1132 51.9053 50.9287C51.6728 52.1687 51.3367 53.2667 50.9297 54.166C50.5185 55.0745 50.0673 55.7077 49.6465 56.0928C49.2338 56.4704 48.9352 56.5389 48.7676 56.5391C48.6001 56.5391 48.3008 56.4708 47.8877 56.0928C47.4669 55.7077 47.0157 55.0745 46.6045 54.166C46.1975 53.2667 45.8614 52.1687 45.6289 50.9287C45.476 50.1132 45.3749 49.2545 45.3213 48.376H52.2129ZM51.8896 36.2773C56.1116 37.5046 59.3011 41.1567 59.8496 45.626H55.0625C55.0061 44.5995 54.8873 43.5889 54.7061 42.6221C54.4448 41.2289 54.0569 39.9344 53.5518 38.8184C53.1045 37.8302 52.5513 36.9558 51.8896 36.2773ZM48.7676 37.4619C48.9351 37.462 49.2339 37.5307 49.6465 37.9082C50.0673 38.2933 50.5185 38.9266 50.9297 39.835C51.3367 40.7342 51.6728 41.8324 51.9053 43.0723C52.0582 43.888 52.1593 44.7472 52.2129 45.626H45.3213C45.3749 44.7472 45.476 43.888 45.6289 43.0723C45.8614 41.8324 46.1975 40.7342 46.6045 39.835C47.0157 38.9266 47.4669 38.2933 47.8877 37.9082C48.3007 37.5303 48.6001 37.4619 48.7676 37.4619ZM45.6436 36.2773C44.9821 36.9558 44.4305 37.8305 43.9834 38.8184C43.4782 39.9345 43.0903 41.2288 42.8291 42.6221C42.6478 43.5889 42.5281 44.5995 42.4717 45.626H37.6846C38.233 41.157 41.4222 37.5049 45.6436 36.2773Z" stroke="#1D8EE6"/>
</g>
</g>
<defs>
<filter id="filter0_d_7_21905" x="0" y="3.58398" width="34.6411" height="33.4277" filterUnits="userSpaceOnUse" color-interpolation-filters="sRGB">
<feFlood flood-opacity="0" result="BackgroundImageFix"/>
<feColorMatrix in="SourceAlpha" type="matrix" values="0 0 0 0 0 0 0 0 0 0 0 0 0 0 0 0 0 0 127 0" result="hardAlpha"/>
<feOffset dy="3"/>
<feGaussianBlur stdDeviation="3.5"/>
<feComposite in2="hardAlpha" operator="out"/>
<feColorMatrix type="matrix" values="0 0 0 0 0.16 0 0 0 0 0.24 0 0 0 0 0.24 0 0 0 0.12 0"/>
<feBlend mode="normal" in2="BackgroundImageFix" result="effect1_dropShadow_7_21905"/>
<feBlend mode="normal" in="SourceGraphic" in2="effect1_dropShadow_7_21905" result="shape"/>
</filter>
<filter id="filter1_d_7_21905" x="21.7671" y="20" width="62" height="54" filterUnits="userSpaceOnUse" color-interpolation-filters="sRGB">
<feFlood flood-opacity="0" result="BackgroundImageFix"/>
<feColorMatrix in="SourceAlpha" type="matrix" values="0 0 0 0 0 0 0 0 0 0 0 0 0 0 0 0 0 0 127 0" result="hardAlpha"/>
<feMorphology radius="3" operator="dilate" in="SourceAlpha" result="effect1_dropShadow_7_21905"/>
<feOffset/>
<feComposite in2="hardAlpha" operator="out"/>
<feColorMatrix type="matrix" values="0 0 0 0 1 0 0 0 0 1 0 0 0 0 1 0 0 0 1 0"/>
<feBlend mode="normal" in2="BackgroundImageFix" result="effect1_dropShadow_7_21905"/>
<feBlend mode="normal" in="SourceGraphic" in2="effect1_dropShadow_7_21905" result="shape"/>
</filter>
<filter id="filter2_d_7_21905" x="30.1328" y="31.334" width="37.2686" height="37.334" filterUnits="userSpaceOnUse" color-interpolation-filters="sRGB">
<feFlood flood-opacity="0" result="BackgroundImageFix"/>
<feColorMatrix in="SourceAlpha" type="matrix" values="0 0 0 0 0 0 0 0 0 0 0 0 0 0 0 0 0 0 127 0" result="hardAlpha"/>
<feOffset dy="3"/>
<feGaussianBlur stdDeviation="3.5"/>
<feComposite in2="hardAlpha" operator="out"/>
<feColorMatrix type="matrix" values="0 0 0 0 0.16 0 0 0 0 0.24 0 0 0 0 0.24 0 0 0 0.12 0"/>
<feBlend mode="normal" in2="BackgroundImageFix" result="effect1_dropShadow_7_21905"/>
<feBlend mode="normal" in="SourceGraphic" in2="effect1_dropShadow_7_21905" result="shape"/>
</filter>
<linearGradient id="paint0_linear_7_21905" x1="16.2994" y1="5.96606" x2="20.4882" y2="26.0714" gradientUnits="userSpaceOnUse">
<stop offset="0.735221" stop-color="#27AAE1"/>
<stop offset="1" stop-color="#27AAE1"/>
</linearGradient>
</defs>
</svg>
