<svg width="187" height="81" viewBox="0 0 187 81" fill="none" xmlns="http://www.w3.org/2000/svg">
<g filter="url(#filter0_d_7_21896)">
<path d="M160.093 52.7167C158.481 52.5158 158.031 50.3912 159.423 49.5537L166.45 45.3245L168.02 37.2751C168.331 35.6804 170.482 35.3771 171.222 36.8234L179.195 52.4033C179.337 52.6801 179.401 52.9904 179.38 53.3008C179.359 53.6113 179.253 53.9101 179.075 54.1651C178.897 54.4201 178.652 54.6216 178.368 54.7481C178.084 54.8745 177.77 54.9211 177.462 54.8827L160.093 52.7167Z" fill="#1D8EE6"/>
<path d="M178.165 54.2915C177.964 54.3808 177.742 54.4142 177.524 54.3873L177.524 54.3863L160.155 52.2201C159.014 52.0778 158.696 50.5752 159.68 49.9824L166.708 45.7529L166.899 45.6381L166.94 45.4206L168.511 37.3707C168.731 36.2431 170.252 36.0272 170.777 37.0516L178.75 52.6312C178.851 52.8271 178.896 53.0469 178.881 53.2665C178.866 53.4861 178.792 53.6978 178.666 53.8782C178.539 54.0587 178.366 54.202 178.165 54.2915Z" stroke="#1D8EE6"/>
</g>
<g filter="url(#filter1_d_7_21896)">
<rect x="3" y="3" width="153" height="48" rx="24" fill="#27AAE1" fill-opacity="0.05" shape-rendering="crispEdges"/>
<g clip-path="url(#clip0_7_21896)">
<g filter="url(#filter2_d_7_21896)">
<mask id="path-5-inside-1_7_21896" fill="white">
<path d="M25.3242 19.748C26.3687 19.1786 27.6304 19.1786 28.6748 19.748L34.2686 22.7979C35.3929 23.4111 36.0927 24.5894 36.0928 25.8701V31.6309C36.0928 32.9118 35.3932 34.0909 34.2686 34.7041L28.6748 37.7539C27.6305 38.3232 26.3685 38.3232 25.3242 37.7539L19.7305 34.7041C18.6058 34.0909 17.9062 32.9118 17.9062 31.6309V25.8701C17.9063 24.5894 18.6061 23.4111 19.7305 22.7979L25.3242 19.748ZM27 25.251C26.6686 25.251 26.4463 25.6481 26.0029 26.4434L25.8887 26.6494C25.7628 26.8752 25.6996 26.9879 25.6016 27.0625C25.5034 27.137 25.3811 27.1654 25.1367 27.2207L24.9141 27.2705C24.0532 27.4653 23.6219 27.5633 23.5195 27.8926C23.4174 28.2218 23.7112 28.5649 24.2979 29.251L24.4492 29.4287C24.616 29.6237 24.6998 29.7212 24.7373 29.8418C24.7748 29.9624 24.7625 30.0925 24.7373 30.3525L24.7139 30.5898C24.6252 31.5052 24.5807 31.9634 24.8486 32.167C25.1167 32.3705 25.5201 32.1846 26.3262 31.8135L26.5352 31.7178C26.7641 31.6124 26.8786 31.5596 27 31.5596C27.1213 31.5596 27.2359 31.6124 27.4648 31.7178L27.6729 31.8135C28.4787 32.1845 28.8823 32.3703 29.1504 32.167C29.4185 31.9635 29.3739 31.5054 29.2852 30.5898L29.2627 30.3525C29.2375 30.0926 29.2242 29.9624 29.2617 29.8418C29.2992 29.7212 29.3831 29.6237 29.5498 29.4287L29.7021 29.251C30.2888 28.565 30.5818 28.2218 30.4795 27.8926C30.3771 27.5633 29.9468 27.4653 29.0859 27.2705L28.8633 27.2207C28.6187 27.1654 28.4966 27.137 28.3984 27.0625C28.3003 26.988 28.2372 26.8752 28.1113 26.6494L27.9961 26.4434C27.553 25.6484 27.3312 25.2512 27 25.251ZM28.167 15.334C30.3665 15.334 31.466 15.3343 32.1494 16.0176C32.8328 16.701 32.833 17.8011 32.833 20.001V20.0215L29.5127 18.2109C27.9461 17.3569 26.0529 17.3568 24.4863 18.2109L21.167 20.0215V20.001C21.167 17.8014 21.1664 16.701 21.8496 16.0176C22.533 15.3342 23.6332 15.334 25.833 15.334H28.167Z"/>
</mask>
<path d="M25.3242 19.748C26.3687 19.1786 27.6304 19.1786 28.6748 19.748L34.2686 22.7979C35.3929 23.4111 36.0927 24.5894 36.0928 25.8701V31.6309C36.0928 32.9118 35.3932 34.0909 34.2686 34.7041L28.6748 37.7539C27.6305 38.3232 26.3685 38.3232 25.3242 37.7539L19.7305 34.7041C18.6058 34.0909 17.9062 32.9118 17.9062 31.6309V25.8701C17.9063 24.5894 18.6061 23.4111 19.7305 22.7979L25.3242 19.748ZM27 25.251C26.6686 25.251 26.4463 25.6481 26.0029 26.4434L25.8887 26.6494C25.7628 26.8752 25.6996 26.9879 25.6016 27.0625C25.5034 27.137 25.3811 27.1654 25.1367 27.2207L24.9141 27.2705C24.0532 27.4653 23.6219 27.5633 23.5195 27.8926C23.4174 28.2218 23.7112 28.5649 24.2979 29.251L24.4492 29.4287C24.616 29.6237 24.6998 29.7212 24.7373 29.8418C24.7748 29.9624 24.7625 30.0925 24.7373 30.3525L24.7139 30.5898C24.6252 31.5052 24.5807 31.9634 24.8486 32.167C25.1167 32.3705 25.5201 32.1846 26.3262 31.8135L26.5352 31.7178C26.7641 31.6124 26.8786 31.5596 27 31.5596C27.1213 31.5596 27.2359 31.6124 27.4648 31.7178L27.6729 31.8135C28.4787 32.1845 28.8823 32.3703 29.1504 32.167C29.4185 31.9635 29.3739 31.5054 29.2852 30.5898L29.2627 30.3525C29.2375 30.0926 29.2242 29.9624 29.2617 29.8418C29.2992 29.7212 29.3831 29.6237 29.5498 29.4287L29.7021 29.251C30.2888 28.565 30.5818 28.2218 30.4795 27.8926C30.3771 27.5633 29.9468 27.4653 29.0859 27.2705L28.8633 27.2207C28.6187 27.1654 28.4966 27.137 28.3984 27.0625C28.3003 26.988 28.2372 26.8752 28.1113 26.6494L27.9961 26.4434C27.553 25.6484 27.3312 25.2512 27 25.251ZM28.167 15.334C30.3665 15.334 31.466 15.3343 32.1494 16.0176C32.8328 16.701 32.833 17.8011 32.833 20.001V20.0215L29.5127 18.2109C27.9461 17.3569 26.0529 17.3568 24.4863 18.2109L21.167 20.0215V20.001C21.167 17.8014 21.1664 16.701 21.8496 16.0176C22.533 15.3342 23.6332 15.334 25.833 15.334H28.167Z" fill="#1D8EE6"/>
<path d="M25.3242 19.748L25.8029 20.626L25.8029 20.626L25.3242 19.748ZM28.6748 19.748L28.1961 20.626L28.1961 20.626L28.6748 19.748ZM34.2686 22.7979L34.7474 21.9199L34.7472 21.9199L34.2686 22.7979ZM36.0928 25.8701H37.0928V25.87L36.0928 25.8701ZM34.2686 34.7041L34.7472 35.5821L34.7473 35.5821L34.2686 34.7041ZM28.6748 37.7539L29.1534 38.6319L29.1535 38.6319L28.6748 37.7539ZM25.3242 37.7539L24.8455 38.6319L24.8456 38.6319L25.3242 37.7539ZM19.7305 34.7041L19.2517 35.5821L19.2518 35.5821L19.7305 34.7041ZM17.9062 25.8701L16.9062 25.87V25.8701H17.9062ZM19.7305 22.7979L19.2518 21.9199L19.2516 21.9199L19.7305 22.7979ZM27 25.251L27.0006 24.251H27V25.251ZM26.0029 26.4434L25.1295 25.9565L25.1284 25.9584L26.0029 26.4434ZM25.8887 26.6494L26.7621 27.1363L26.7632 27.1344L25.8887 26.6494ZM25.6016 27.0625L26.2062 27.859L26.2068 27.8586L25.6016 27.0625ZM25.1367 27.2207L25.355 28.1966L25.3574 28.196L25.1367 27.2207ZM24.9141 27.2705L24.6958 26.2946L24.6934 26.2952L24.9141 27.2705ZM23.5195 27.8926L22.5646 27.5956L22.5645 27.5962L23.5195 27.8926ZM24.2979 29.251L25.0592 28.6026L25.0579 28.6011L24.2979 29.251ZM24.4492 29.4287L23.6879 30.0771L23.6892 30.0786L24.4492 29.4287ZM24.7373 29.8418L25.6922 29.5449L25.6922 29.5447L24.7373 29.8418ZM24.7373 30.3525L25.7325 30.4508L25.7326 30.449L24.7373 30.3525ZM24.7139 30.5898L23.7187 30.4916L23.7185 30.4934L24.7139 30.5898ZM24.8486 32.167L24.2436 32.9632L24.244 32.9635L24.8486 32.167ZM26.3262 31.8135L25.9098 30.9043L25.9079 30.9051L26.3262 31.8135ZM26.5352 31.7178L26.9515 32.627L26.9534 32.6261L26.5352 31.7178ZM27 31.5596L27.0006 30.5596H27L27 31.5596ZM27.4648 31.7178L27.0466 32.6261L27.0469 32.6262L27.4648 31.7178ZM27.6729 31.8135L28.0911 30.9051L28.0908 30.905L27.6729 31.8135ZM29.1504 32.167L29.7547 32.9638L29.755 32.9635L29.1504 32.167ZM29.2852 30.5898L28.2896 30.6841L28.2898 30.6863L29.2852 30.5898ZM29.2627 30.3525L30.2582 30.2583L30.258 30.2561L29.2627 30.3525ZM29.2617 29.8418L28.3068 29.5449L28.3068 29.545L29.2617 29.8418ZM29.5498 29.4287L28.7905 28.7779L28.7898 28.7788L29.5498 29.4287ZM29.7021 29.251L30.4614 29.9018L30.4621 29.9009L29.7021 29.251ZM30.4795 27.8926L31.4345 27.5959L31.4344 27.5956L30.4795 27.8926ZM29.0859 27.2705L29.3066 26.2952L29.3042 26.2946L29.0859 27.2705ZM28.8633 27.2207L28.6426 28.1961L28.645 28.1966L28.8633 27.2207ZM28.3984 27.0625L27.7938 27.859L27.7939 27.8591L28.3984 27.0625ZM28.1113 26.6494L28.9848 26.1625L28.9841 26.1613L28.1113 26.6494ZM27.9961 26.4434L27.1226 26.9303L27.1233 26.9315L27.9961 26.4434ZM28.167 15.334V14.334V15.334ZM32.1494 16.0176L32.8565 15.3105L32.8565 15.3104L32.1494 16.0176ZM32.833 20.0215L32.3543 20.8994L33.833 21.7058V20.0215H32.833ZM29.5127 18.2109L29.9914 17.333L29.9914 17.3329L29.5127 18.2109ZM24.4863 18.2109L24.0076 17.333L24.0075 17.333L24.4863 18.2109ZM21.167 20.0215H20.167V21.706L21.6458 20.8994L21.167 20.0215ZM21.8496 16.0176L21.1425 15.3105L21.1424 15.3106L21.8496 16.0176ZM25.833 15.334V14.334V15.334ZM25.3242 19.748L25.8029 20.626C26.549 20.2192 27.4501 20.2192 28.1961 20.626L28.6748 19.748L29.1535 18.8701C27.8107 18.1379 26.1883 18.1379 24.8455 18.8701L25.3242 19.748ZM28.6748 19.748L28.1961 20.626L33.7899 23.6758L34.2686 22.7979L34.7472 21.9199L29.1535 18.8701L28.6748 19.748ZM34.2686 22.7979L33.7897 23.6758C34.593 24.1139 35.0927 24.9555 35.0928 25.8702L36.0928 25.8701L37.0928 25.87C37.0927 24.2232 36.1929 22.7084 34.7474 21.9199L34.2686 22.7979ZM36.0928 25.8701H35.0928V31.6309H36.0928H37.0928V25.8701H36.0928ZM36.0928 31.6309H35.0928C35.0928 32.5461 34.5929 33.3882 33.7898 33.8261L34.2686 34.7041L34.7473 35.5821C36.1934 34.7935 37.0928 33.2776 37.0928 31.6309H36.0928ZM34.2686 34.7041L33.7899 33.8261L28.1961 36.8759L28.6748 37.7539L29.1535 38.6319L34.7472 35.5821L34.2686 34.7041ZM28.6748 37.7539L28.1962 36.8759C27.4502 37.2825 26.5488 37.2825 25.8029 36.8759L25.3242 37.7539L24.8456 38.6319C26.1882 39.3639 27.8108 39.3639 29.1534 38.6319L28.6748 37.7539ZM25.3242 37.7539L25.8029 36.8759L20.2092 33.8261L19.7305 34.7041L19.2518 35.5821L24.8455 38.6319L25.3242 37.7539ZM19.7305 34.7041L20.2092 33.8261C19.4061 33.3882 18.9062 32.5461 18.9062 31.6309H17.9062H16.9062C16.9062 33.2776 17.8056 34.7935 19.2517 35.5821L19.7305 34.7041ZM17.9062 31.6309H18.9062V25.8701H17.9062H16.9062V31.6309H17.9062ZM17.9062 25.8701L18.9062 25.8702C18.9063 24.9555 19.4061 24.1139 20.2093 23.6758L19.7305 22.7979L19.2516 21.9199C17.8061 22.7084 16.9064 24.2232 16.9062 25.87L17.9062 25.8701ZM19.7305 22.7979L20.2092 23.6758L25.8029 20.626L25.3242 19.748L24.8455 18.8701L19.2518 21.9199L19.7305 22.7979ZM27 25.251V24.251C26.3556 24.251 25.9584 24.6687 25.75 24.9402C25.5422 25.2111 25.3351 25.5876 25.1295 25.9565L26.0029 26.4434L26.8764 26.9303C26.989 26.7282 27.0791 26.5668 27.1594 26.4315C27.2405 26.2945 27.2966 26.2101 27.3368 26.1576C27.3794 26.1021 27.3749 26.1218 27.322 26.1571C27.2514 26.2043 27.1369 26.251 27 26.251V25.251ZM26.0029 26.4434L25.1284 25.9584L25.0141 26.1645L25.8887 26.6494L26.7632 27.1344L26.8775 26.9283L26.0029 26.4434ZM25.8887 26.6494L25.0152 26.1625C24.9828 26.2207 24.9593 26.2627 24.9389 26.298C24.9186 26.3331 24.9077 26.3504 24.9025 26.3583C24.8977 26.3654 24.9039 26.3552 24.9201 26.3368C24.938 26.3166 24.9635 26.2914 24.9964 26.2664L25.6016 27.0625L26.2068 27.8586C26.5102 27.6279 26.6787 27.286 26.7621 27.1363L25.8887 26.6494ZM25.6016 27.0625L24.9969 26.266C25.0296 26.2412 25.0615 26.2227 25.0881 26.2099C25.1124 26.1982 25.1264 26.1941 25.1211 26.1958C25.1148 26.1978 25.0978 26.2028 25.0608 26.2118C25.0235 26.221 24.9788 26.2312 24.916 26.2454L25.1367 27.2207L25.3574 28.196C25.5206 28.1591 25.8965 28.0941 26.2062 27.859L25.6016 27.0625ZM25.1367 27.2207L24.9184 26.2448L24.6958 26.2946L24.9141 27.2705L25.1324 28.2464L25.355 28.1966L25.1367 27.2207ZM24.9141 27.2705L24.6934 26.2952C24.2966 26.3849 23.8825 26.4758 23.5655 26.6008C23.2301 26.7331 22.7497 27.0005 22.5646 27.5956L23.5195 27.8926L24.4744 28.1895C24.4399 28.3007 24.3735 28.389 24.3104 28.443C24.2623 28.4843 24.2405 28.4845 24.2992 28.4614C24.3558 28.4391 24.4468 28.4103 24.5952 28.3724C24.742 28.3348 24.9155 28.2954 25.1347 28.2459L24.9141 27.2705ZM23.5195 27.8926L22.5645 27.5962C22.3832 28.1805 22.6153 28.6711 22.8043 28.9711C22.9866 29.2604 23.2661 29.5831 23.5379 29.9009L24.2979 29.251L25.0579 28.6011C24.9085 28.4265 24.7896 28.2873 24.6912 28.1659C24.5918 28.0432 24.5321 27.9615 24.4964 27.9049C24.4594 27.8462 24.4724 27.8518 24.4856 27.9042C24.5031 27.9742 24.5088 28.0787 24.4746 28.1889L23.5195 27.8926ZM24.2979 29.251L23.5365 29.8994L23.6879 30.0771L24.4492 29.4287L25.2105 28.7803L25.0592 28.6026L24.2979 29.251ZM24.4492 29.4287L23.6892 30.0786C23.7326 30.1293 23.7636 30.1656 23.7897 30.197C23.8155 30.2282 23.8278 30.2443 23.8334 30.2519C23.8384 30.2587 23.8312 30.2497 23.82 30.229C23.8077 30.2061 23.7938 30.1753 23.7825 30.1389L24.7373 29.8418L25.6922 29.5447C25.5792 29.1817 25.3204 28.9088 25.2092 28.7788L24.4492 29.4287ZM24.7373 29.8418L23.7824 30.1387C23.7714 30.1032 23.7656 30.0714 23.7629 30.0474C23.7605 30.0257 23.7612 30.0159 23.761 30.0257C23.7608 30.0364 23.7598 30.0579 23.7565 30.0991C23.7531 30.1405 23.7484 30.1892 23.742 30.2561L24.7373 30.3525L25.7326 30.449C25.75 30.2703 25.8034 29.9026 25.6922 29.5449L24.7373 29.8418ZM24.7373 30.3525L23.7421 30.2543L23.7187 30.4916L24.7139 30.5898L25.709 30.6881L25.7325 30.4508L24.7373 30.3525ZM24.7139 30.5898L23.7185 30.4934C23.6773 30.919 23.6333 31.3474 23.6485 31.6897C23.6637 32.0333 23.7467 32.5857 24.2436 32.9632L24.8486 32.167L25.4536 31.3708C25.5554 31.4481 25.6132 31.5448 25.6387 31.6131C25.6576 31.6637 25.6498 31.6744 25.6465 31.601C25.6434 31.5309 25.6458 31.426 25.6573 31.2649C25.6687 31.1054 25.6867 30.919 25.7092 30.6863L24.7139 30.5898ZM24.8486 32.167L24.244 32.9635C24.7577 33.3535 25.3223 33.2642 25.6614 33.167C25.9879 33.0733 26.3733 32.8927 26.7444 32.7218L26.3262 31.8135L25.9079 30.9051C25.7026 30.9997 25.5399 31.0745 25.3998 31.1345C25.2579 31.1951 25.1681 31.2278 25.11 31.2445C25.0488 31.262 25.0705 31.2474 25.1403 31.2517C25.2322 31.2573 25.3498 31.292 25.4533 31.3705L24.8486 32.167ZM26.3262 31.8135L26.7425 32.7227L26.9515 32.627L26.5352 31.7178L26.1188 30.8086L25.9098 30.9043L26.3262 31.8135ZM26.5352 31.7178L26.9534 32.6261C27.0128 32.5988 27.0549 32.5794 27.0908 32.5635C27.1266 32.5478 27.1435 32.5412 27.1501 32.5388C27.1558 32.5367 27.1416 32.5423 27.1141 32.5481C27.0839 32.5544 27.0448 32.5596 27 32.5596L27 31.5596L27 30.5596C26.608 30.5596 26.2616 30.7428 26.1169 30.8094L26.5352 31.7178ZM27 31.5596L26.9994 32.5596C26.9548 32.5595 26.9158 32.5544 26.8858 32.5481C26.8584 32.5423 26.8443 32.5368 26.85 32.5389C26.8566 32.5413 26.8736 32.5479 26.9093 32.5636C26.9452 32.5794 26.9873 32.5988 27.0466 32.6261L27.4648 31.7178L27.8831 30.8094C27.7378 30.7425 27.392 30.5598 27.0006 30.5596L27 31.5596ZM27.4648 31.7178L27.0469 32.6262L27.2549 32.7219L27.6729 31.8135L28.0908 30.905L27.8828 30.8093L27.4648 31.7178ZM27.6729 31.8135L27.2546 32.7218C27.6257 32.8927 28.0111 33.0733 28.3377 33.1669C28.6766 33.2641 29.241 33.3533 29.7547 32.9638L29.1504 32.167L28.5461 31.3702C28.6496 31.2917 28.7672 31.2572 28.8588 31.2516C28.9285 31.2473 28.9501 31.2619 28.8889 31.2444C28.8308 31.2277 28.741 31.195 28.5991 31.1344C28.459 31.0745 28.2963 30.9996 28.0911 30.9051L27.6729 31.8135ZM29.1504 32.167L29.755 32.9635C30.2523 32.586 30.3354 32.0335 30.3506 31.6897C30.3658 31.3475 30.3217 30.919 30.2805 30.4934L29.2852 30.5898L28.2898 30.6863C28.3124 30.9191 28.3304 31.1055 28.3418 31.265C28.3533 31.4262 28.3557 31.5311 28.3526 31.6012C28.3493 31.6746 28.3415 31.6637 28.3605 31.613C28.3861 31.5445 28.4439 31.4478 28.5457 31.3705L29.1504 32.167ZM29.2852 30.5898L30.2807 30.4956L30.2582 30.2583L29.2627 30.3525L28.2671 30.4468L28.2896 30.6841L29.2852 30.5898ZM29.2627 30.3525L30.258 30.2561C30.2515 30.1884 30.2467 30.1395 30.2432 30.0974C30.2398 30.0556 30.2387 30.0338 30.2385 30.0227C30.2382 30.0125 30.239 30.0225 30.2366 30.0446C30.2339 30.0691 30.2281 30.1019 30.2167 30.1386L29.2617 29.8418L28.3068 29.545C28.1952 29.9041 28.2507 30.2768 28.2674 30.449L29.2627 30.3525ZM29.2617 29.8418L30.2166 30.1387C30.2053 30.1752 30.1914 30.206 30.179 30.2289C30.1678 30.2497 30.1606 30.2587 30.1656 30.2519C30.1711 30.2443 30.1835 30.2282 30.2093 30.1971C30.2354 30.1656 30.2665 30.1293 30.3098 30.0786L29.5498 29.4287L28.7898 28.7788C28.6788 28.9087 28.4197 29.1817 28.3068 29.5449L29.2617 29.8418ZM29.5498 29.4287L30.3091 30.0795L30.4614 29.9018L29.7021 29.251L28.9429 28.6002L28.7905 28.7779L29.5498 29.4287ZM29.7021 29.251L30.4621 29.9009C30.7341 29.5828 31.0134 29.2601 31.1956 28.9704C31.3847 28.6699 31.6158 28.1795 31.4345 27.5959L30.4795 27.8926L29.5245 28.1892C29.4904 28.0794 29.496 27.9751 29.5134 27.9052C29.5265 27.8527 29.5395 27.847 29.5027 27.9055C29.4672 27.962 29.4077 28.0437 29.3084 28.1662C29.2102 28.2875 29.0913 28.4266 28.9421 28.6011L29.7021 29.251ZM30.4795 27.8926L31.4344 27.5956C31.2495 27.0011 30.7702 26.7335 30.4344 26.601C30.1174 26.4758 29.7034 26.3849 29.3066 26.2952L29.0859 27.2705L28.8653 28.2459C29.0844 28.2954 29.2579 28.3348 29.4045 28.3723C29.5528 28.4103 29.6436 28.439 29.6999 28.4612C29.7585 28.4843 29.7365 28.484 29.6882 28.4426C29.6251 28.3884 29.559 28.3002 29.5246 28.1895L30.4795 27.8926ZM29.0859 27.2705L29.3042 26.2946L29.0816 26.2448L28.8633 27.2207L28.645 28.1966L28.8676 28.2464L29.0859 27.2705ZM28.8633 27.2207L29.084 26.2454C29.0211 26.2311 28.9765 26.221 28.9392 26.2118C28.9021 26.2028 28.8852 26.1978 28.8789 26.1958C28.8736 26.1941 28.8877 26.1982 28.912 26.2099C28.9385 26.2227 28.9703 26.2412 29.0029 26.2659L28.3984 27.0625L27.7939 27.8591C28.1036 28.0941 28.479 28.159 28.6426 28.196L28.8633 27.2207ZM28.3984 27.0625L29.0031 26.266C29.0361 26.2911 29.0618 26.3163 29.0797 26.3367C29.096 26.3552 29.1023 26.3655 29.0976 26.3584C29.0924 26.3506 29.0815 26.3334 29.0612 26.2982C29.0407 26.2628 29.0173 26.2208 28.9848 26.1625L28.1113 26.6494L27.2379 27.1363C27.321 27.2854 27.4897 27.6281 27.7938 27.859L28.3984 27.0625ZM28.1113 26.6494L28.9841 26.1613L28.8689 25.9553L27.9961 26.4434L27.1233 26.9315L27.2385 27.1375L28.1113 26.6494ZM27.9961 26.4434L28.8696 25.9565C28.6642 25.5881 28.4572 25.2116 28.2499 24.941C28.042 24.6696 27.6452 24.2514 27.0006 24.251L27 25.251L26.9994 26.251C26.8623 26.2509 26.7477 26.204 26.6771 26.1568C26.6242 26.1214 26.6197 26.1017 26.6623 26.1573C26.7025 26.2098 26.7585 26.2943 26.8397 26.4313C26.9199 26.5668 27.01 26.7281 27.1226 26.9303L27.9961 26.4434ZM28.167 15.334V16.334C29.2949 16.334 30.0403 16.3362 30.5934 16.4106C31.1177 16.4812 31.3173 16.5997 31.4424 16.7247L32.1494 16.0176L32.8565 15.3104C32.2981 14.7521 31.6063 14.5289 30.8601 14.4285C30.1427 14.3319 29.2385 14.334 28.167 14.334V15.334ZM32.1494 16.0176L31.4423 16.7247C31.5673 16.8496 31.6859 17.0494 31.7564 17.5739C31.8308 18.1272 31.833 18.8728 31.833 20.001H32.833H33.833C33.833 18.9293 33.8351 18.0249 33.7386 17.3073C33.6382 16.561 33.415 15.8689 32.8565 15.3105L32.1494 16.0176ZM32.833 20.001H31.833V20.0215H32.833H33.833V20.001H32.833ZM32.833 20.0215L33.3118 19.1435L29.9914 17.333L29.5127 18.2109L29.034 19.0889L32.3543 20.8994L32.833 20.0215ZM29.5127 18.2109L29.9914 17.3329C28.1264 16.3162 25.8726 16.3161 24.0076 17.333L24.4863 18.2109L24.965 19.0889C26.2332 18.3975 27.7658 18.3975 29.034 19.0889L29.5127 18.2109ZM24.4863 18.2109L24.0075 17.333L20.6881 19.1436L21.167 20.0215L21.6458 20.8994L24.9652 19.0888L24.4863 18.2109ZM21.167 20.0215H22.167V20.001H21.167H20.167V20.0215H21.167ZM21.167 20.001H22.167C22.167 18.8728 22.169 18.1272 22.2432 17.5737C22.3136 17.0489 22.4321 16.8493 22.5569 16.7245L21.8496 16.0176L21.1424 15.3106C20.5839 15.8693 20.3611 16.5616 20.261 17.3077C20.1647 18.0252 20.167 18.9295 20.167 20.001H21.167ZM21.8496 16.0176L22.5567 16.7247C22.6817 16.5997 22.8814 16.4811 23.406 16.4106C23.9593 16.3362 24.7049 16.334 25.833 16.334V15.334V14.334C24.7613 14.334 23.857 14.3319 23.1394 14.4284C22.393 14.5288 21.701 14.752 21.1425 15.3105L21.8496 16.0176ZM25.833 15.334V16.334H28.167V15.334V14.334H25.833V15.334Z" fill="#1D8EE6" mask="url(#path-5-inside-1_7_21896)"/>
</g>
</g>
<path d="M50.9176 33.77C49.9996 33.77 49.1716 33.614 48.4336 33.302C47.7016 32.99 47.0956 32.546 46.6156 31.97C46.1416 31.388 45.8326 30.701 45.6886 29.909L47.3446 29.648C47.5546 30.464 47.9896 31.103 48.6496 31.565C49.3156 32.021 50.0986 32.249 50.9986 32.249C51.5806 32.249 52.1056 32.159 52.5736 31.979C53.0476 31.793 53.4226 31.529 53.6986 31.187C53.9746 30.845 54.1126 30.44 54.1126 29.972C54.1126 29.684 54.0616 29.438 53.9596 29.234C53.8636 29.024 53.7286 28.847 53.5546 28.703C53.3866 28.553 53.1946 28.427 52.9786 28.325C52.7626 28.223 52.5376 28.139 52.3036 28.073L49.0006 27.092C48.6406 26.984 48.2926 26.849 47.9566 26.687C47.6206 26.519 47.3206 26.312 47.0566 26.066C46.7926 25.814 46.5826 25.514 46.4266 25.166C46.2706 24.812 46.1926 24.395 46.1926 23.915C46.1926 23.147 46.3906 22.493 46.7866 21.953C47.1886 21.407 47.7316 20.99 48.4156 20.702C49.0996 20.414 49.8706 20.273 50.7286 20.279C51.5986 20.285 52.3756 20.441 53.0596 20.747C53.7496 21.047 54.3196 21.479 54.7696 22.043C55.2256 22.607 55.5316 23.282 55.6876 24.068L53.9866 24.365C53.8966 23.837 53.6956 23.384 53.3836 23.006C53.0776 22.622 52.6936 22.328 52.2316 22.124C51.7696 21.914 51.2626 21.806 50.7106 21.8C50.1826 21.794 49.7056 21.878 49.2796 22.052C48.8536 22.226 48.5146 22.469 48.2626 22.781C48.0106 23.087 47.8846 23.441 47.8846 23.843C47.8846 24.239 47.9986 24.56 48.2266 24.806C48.4546 25.046 48.7336 25.238 49.0636 25.382C49.3996 25.52 49.7266 25.634 50.0446 25.724L52.5106 26.435C52.7926 26.513 53.1166 26.621 53.4826 26.759C53.8546 26.897 54.2146 27.092 54.5626 27.344C54.9106 27.59 55.1986 27.92 55.4266 28.334C55.6546 28.742 55.7686 29.258 55.7686 29.882C55.7686 30.506 55.6426 31.061 55.3906 31.547C55.1446 32.033 54.7996 32.441 54.3556 32.771C53.9116 33.095 53.3956 33.341 52.8076 33.509C52.2196 33.683 51.5896 33.77 50.9176 33.77ZM57.8365 22.061V20.405H59.4385V22.061H57.8365ZM57.8365 33.5V23.78H59.4385V33.5H57.8365ZM69.0599 33.5V28.631C69.0599 28.169 69.0179 27.725 68.9339 27.299C68.8559 26.873 68.7149 26.492 68.5109 26.156C68.3129 25.814 68.0429 25.544 67.7009 25.346C67.3649 25.148 66.9389 25.049 66.4229 25.049C66.0209 25.049 65.6549 25.118 65.3249 25.256C65.0009 25.388 64.7219 25.592 64.4879 25.868C64.2539 26.144 64.0709 26.492 63.9389 26.912C63.8129 27.326 63.7499 27.815 63.7499 28.379L62.6969 28.055C62.6969 27.113 62.8649 26.306 63.2009 25.634C63.5429 24.956 64.0199 24.437 64.6319 24.077C65.2499 23.711 65.9759 23.528 66.8099 23.528C67.4399 23.528 67.9769 23.627 68.4209 23.825C68.8649 24.023 69.2339 24.287 69.5279 24.617C69.8219 24.941 70.0529 25.307 70.2209 25.715C70.3889 26.117 70.5059 26.528 70.5719 26.948C70.6439 27.362 70.6799 27.755 70.6799 28.127V33.5H69.0599ZM62.1299 33.5V23.78H63.5699V26.381H63.7499V33.5H62.1299ZM77.0269 33.77C76.0429 33.77 75.2059 33.551 74.5159 33.113C73.8319 32.669 73.3099 32.06 72.9499 31.286C72.5899 30.512 72.4039 29.63 72.3919 28.64C72.4039 27.626 72.5929 26.735 72.9589 25.967C73.3309 25.193 73.8619 24.59 74.5519 24.158C75.2419 23.726 76.0729 23.51 77.0449 23.51C78.0709 23.51 78.9529 23.762 79.6909 24.266C80.4349 24.77 80.9329 25.46 81.1849 26.336L79.6009 26.813C79.3969 26.249 79.0639 25.811 78.6019 25.499C78.1459 25.187 77.6209 25.031 77.0269 25.031C76.3609 25.031 75.8119 25.187 75.3799 25.499C74.9479 25.805 74.6269 26.231 74.4169 26.777C74.2069 27.317 74.0989 27.938 74.0929 28.64C74.1049 29.72 74.3539 30.593 74.8399 31.259C75.3319 31.919 76.0609 32.249 77.0269 32.249C77.6629 32.249 78.1909 32.105 78.6109 31.817C79.0309 31.523 79.3489 31.1 79.5649 30.548L81.1849 30.971C80.8489 31.877 80.3239 32.57 79.6099 33.05C78.8959 33.53 78.0349 33.77 77.0269 33.77ZM86.97 33.77C86.016 33.77 85.182 33.56 84.468 33.14C83.76 32.714 83.208 32.123 82.812 31.367C82.416 30.605 82.218 29.717 82.218 28.703C82.218 27.641 82.413 26.723 82.803 25.949C83.193 25.169 83.736 24.569 84.432 24.149C85.134 23.723 85.956 23.51 86.898 23.51C87.876 23.51 88.707 23.735 89.391 24.185C90.081 24.635 90.597 25.277 90.939 26.111C91.287 26.945 91.437 27.938 91.389 29.09H89.769V28.514C89.751 27.32 89.508 26.429 89.04 25.841C88.572 25.247 87.876 24.95 86.952 24.95C85.962 24.95 85.209 25.268 84.693 25.904C84.177 26.54 83.919 27.452 83.919 28.64C83.919 29.786 84.177 30.674 84.693 31.304C85.209 31.934 85.944 32.249 86.898 32.249C87.54 32.249 88.098 32.102 88.572 31.808C89.046 31.514 89.418 31.091 89.688 30.539L91.227 31.07C90.849 31.928 90.279 32.594 89.517 33.068C88.761 33.536 87.912 33.77 86.97 33.77ZM83.379 29.09V27.803H90.561V29.09H83.379ZM96.6363 33.491L96.6453 32.051L102.396 26.876C102.876 26.444 103.197 26.036 103.359 25.652C103.527 25.262 103.611 24.863 103.611 24.455C103.611 23.957 103.497 23.507 103.269 23.105C103.041 22.703 102.729 22.385 102.333 22.151C101.943 21.917 101.499 21.8 101.001 21.8C100.485 21.8 100.026 21.923 99.6243 22.169C99.2223 22.409 98.9043 22.73 98.6703 23.132C98.4423 23.534 98.3313 23.972 98.3373 24.446H96.6993C96.6993 23.63 96.8883 22.91 97.2663 22.286C97.6443 21.656 98.1573 21.164 98.8053 20.81C99.4593 20.45 100.2 20.27 101.028 20.27C101.832 20.27 102.552 20.456 103.188 20.828C103.824 21.194 104.325 21.695 104.691 22.331C105.063 22.961 105.249 23.675 105.249 24.473C105.249 25.037 105.177 25.526 105.033 25.94C104.895 26.354 104.679 26.738 104.385 27.092C104.091 27.44 103.722 27.812 103.278 28.208L98.4993 32.501L98.2923 31.961H105.249V33.491H96.6363ZM111.777 33.77C110.937 33.77 110.187 33.581 109.527 33.203C108.873 32.819 108.354 32.3 107.97 31.646C107.592 30.986 107.403 30.236 107.403 29.396V24.644C107.403 23.804 107.592 23.054 107.97 22.394C108.354 21.734 108.873 21.215 109.527 20.837C110.187 20.459 110.937 20.27 111.777 20.27C112.617 20.27 113.367 20.459 114.027 20.837C114.687 21.215 115.206 21.734 115.584 22.394C115.962 23.054 116.151 23.804 116.151 24.644V29.396C116.151 30.236 115.962 30.986 115.584 31.646C115.206 32.3 114.687 32.819 114.027 33.203C113.367 33.581 112.617 33.77 111.777 33.77ZM111.777 32.231C112.287 32.231 112.749 32.108 113.163 31.862C113.577 31.616 113.907 31.286 114.153 30.872C114.399 30.452 114.522 29.99 114.522 29.486V24.545C114.522 24.035 114.399 23.573 114.153 23.159C113.907 22.745 113.577 22.415 113.163 22.169C112.749 21.923 112.287 21.8 111.777 21.8C111.273 21.8 110.811 21.923 110.391 22.169C109.977 22.415 109.647 22.745 109.401 23.159C109.155 23.573 109.032 24.035 109.032 24.545V29.486C109.032 29.99 109.155 30.452 109.401 30.872C109.647 31.286 109.977 31.616 110.391 31.862C110.811 32.108 111.273 32.231 111.777 32.231ZM118.31 33.491L118.319 32.051L124.07 26.876C124.55 26.444 124.871 26.036 125.033 25.652C125.201 25.262 125.285 24.863 125.285 24.455C125.285 23.957 125.171 23.507 124.943 23.105C124.715 22.703 124.403 22.385 124.007 22.151C123.617 21.917 123.173 21.8 122.675 21.8C122.159 21.8 121.7 21.923 121.298 22.169C120.896 22.409 120.578 22.73 120.344 23.132C120.116 23.534 120.005 23.972 120.011 24.446H118.373C118.373 23.63 118.562 22.91 118.94 22.286C119.318 21.656 119.831 21.164 120.479 20.81C121.133 20.45 121.874 20.27 122.702 20.27C123.506 20.27 124.226 20.456 124.862 20.828C125.498 21.194 125.999 21.695 126.365 22.331C126.737 22.961 126.923 23.675 126.923 24.473C126.923 25.037 126.851 25.526 126.707 25.94C126.569 26.354 126.353 26.738 126.059 27.092C125.765 27.44 125.396 27.812 124.952 28.208L120.173 32.501L119.966 31.961H126.923V33.491H118.31ZM132.631 33.752C131.989 33.752 131.392 33.635 130.84 33.401C130.288 33.161 129.811 32.825 129.409 32.393C129.013 31.955 128.722 31.436 128.536 30.836L130.075 30.395C130.273 30.995 130.603 31.451 131.065 31.763C131.527 32.075 132.046 32.228 132.622 32.222C133.15 32.21 133.606 32.09 133.99 31.862C134.38 31.628 134.68 31.31 134.89 30.908C135.106 30.506 135.214 30.041 135.214 29.513C135.214 28.709 134.974 28.058 134.494 27.56C134.014 27.056 133.384 26.804 132.604 26.804C132.388 26.804 132.16 26.834 131.92 26.894C131.686 26.954 131.467 27.038 131.263 27.146L130.489 25.877L135.295 21.53L135.502 22.07H129.049V20.54H136.69V22.079L132.595 26.003L132.577 25.436C133.435 25.376 134.185 25.517 134.827 25.859C135.469 26.201 135.967 26.69 136.321 27.326C136.681 27.962 136.861 28.691 136.861 29.513C136.861 30.341 136.675 31.073 136.303 31.709C135.931 32.345 135.427 32.846 134.791 33.212C134.155 33.572 133.435 33.752 132.631 33.752Z" fill="#333333"/>
</g>
<defs>
<filter id="filter0_d_7_21896" x="151.593" y="31.8906" width="34.791" height="33.0059" filterUnits="userSpaceOnUse" color-interpolation-filters="sRGB">
<feFlood flood-opacity="0" result="BackgroundImageFix"/>
<feColorMatrix in="SourceAlpha" type="matrix" values="0 0 0 0 0 0 0 0 0 0 0 0 0 0 0 0 0 0 127 0" result="hardAlpha"/>
<feOffset dy="3"/>
<feGaussianBlur stdDeviation="3.5"/>
<feComposite in2="hardAlpha" operator="out"/>
<feColorMatrix type="matrix" values="0 0 0 0 0.16 0 0 0 0 0.24 0 0 0 0 0.24 0 0 0 0.12 0"/>
<feBlend mode="normal" in2="BackgroundImageFix" result="effect1_dropShadow_7_21896"/>
<feBlend mode="normal" in="SourceGraphic" in2="effect1_dropShadow_7_21896" result="shape"/>
</filter>
<filter id="filter1_d_7_21896" x="0" y="0" width="159" height="54" filterUnits="userSpaceOnUse" color-interpolation-filters="sRGB">
<feFlood flood-opacity="0" result="BackgroundImageFix"/>
<feColorMatrix in="SourceAlpha" type="matrix" values="0 0 0 0 0 0 0 0 0 0 0 0 0 0 0 0 0 0 127 0" result="hardAlpha"/>
<feMorphology radius="3" operator="dilate" in="SourceAlpha" result="effect1_dropShadow_7_21896"/>
<feOffset/>
<feComposite in2="hardAlpha" operator="out"/>
<feColorMatrix type="matrix" values="0 0 0 0 1 0 0 0 0 1 0 0 0 0 1 0 0 0 1 0"/>
<feBlend mode="normal" in2="BackgroundImageFix" result="effect1_dropShadow_7_21896"/>
<feBlend mode="normal" in="SourceGraphic" in2="effect1_dropShadow_7_21896" result="shape"/>
</filter>
<filter id="filter2_d_7_21896" x="10.9062" y="11.334" width="32.1865" height="36.8477" filterUnits="userSpaceOnUse" color-interpolation-filters="sRGB">
<feFlood flood-opacity="0" result="BackgroundImageFix"/>
<feColorMatrix in="SourceAlpha" type="matrix" values="0 0 0 0 0 0 0 0 0 0 0 0 0 0 0 0 0 0 127 0" result="hardAlpha"/>
<feOffset dy="3"/>
<feGaussianBlur stdDeviation="3.5"/>
<feComposite in2="hardAlpha" operator="out"/>
<feColorMatrix type="matrix" values="0 0 0 0 0.16 0 0 0 0 0.24 0 0 0 0 0.24 0 0 0 0.12 0"/>
<feBlend mode="normal" in2="BackgroundImageFix" result="effect1_dropShadow_7_21896"/>
<feBlend mode="normal" in="SourceGraphic" in2="effect1_dropShadow_7_21896" result="shape"/>
</filter>
<clipPath id="clip0_7_21896">
<rect x="13" y="13" width="28" height="28" rx="5" fill="white"/>
</clipPath>
</defs>
</svg>
