<svg width="317" height="274" viewBox="0 0 317 274" fill="none" xmlns="http://www.w3.org/2000/svg">
<g filter="url(#filter0_d_7_21979)">
<g clip-path="url(#clip0_7_21979)">
<rect x="30" y="30" width="256.8" height="214" rx="3.424" fill="white"/>
<circle cx="158.4" cy="101.092" r="19.26" fill="#1EAA79"/>
<path d="M165.909 94.774C166.34 94.2675 167.1 94.2059 167.606 94.6365C168.113 95.067 168.174 95.8267 167.744 96.3333L157.512 108.371C157.074 108.885 156.3 108.939 155.795 108.491L150.378 103.676C149.881 103.234 149.836 102.473 150.278 101.976C150.72 101.48 151.481 101.435 151.977 101.876C152.474 102.318 156.475 105.874 156.475 105.874L165.909 94.774Z" fill="white"/>
<path d="M102.93 143.049L102.373 141.431H100.071L99.5229 143.049H98.3587L100.601 136.911H101.851L104.094 143.049H102.93ZM101.56 138.914C101.537 138.834 101.503 138.726 101.457 138.589C101.412 138.452 101.366 138.312 101.32 138.17C101.281 138.021 101.249 137.899 101.226 137.802C101.198 137.916 101.161 138.047 101.115 138.195C101.075 138.344 101.035 138.483 100.995 138.615C100.961 138.746 100.932 138.846 100.91 138.914L100.37 140.489H102.091L101.56 138.914ZM106.67 143.134C106.23 143.134 105.848 143.052 105.523 142.886C105.203 142.715 104.955 142.455 104.778 142.107C104.607 141.753 104.521 141.303 104.521 140.755C104.521 140.184 104.615 139.722 104.804 139.368C104.998 139.009 105.263 138.746 105.6 138.581C105.936 138.409 106.322 138.324 106.755 138.324C107.046 138.324 107.306 138.352 107.534 138.409C107.762 138.466 107.956 138.535 108.116 138.615L107.8 139.462C107.623 139.394 107.446 139.337 107.269 139.291C107.092 139.24 106.921 139.214 106.755 139.214C106.498 139.214 106.284 139.271 106.113 139.385C105.948 139.499 105.825 139.67 105.745 139.899C105.665 140.121 105.625 140.404 105.625 140.746C105.625 141.077 105.665 141.354 105.745 141.577C105.831 141.799 105.956 141.967 106.122 142.082C106.287 142.19 106.493 142.244 106.738 142.244C107.001 142.244 107.232 142.213 107.431 142.15C107.631 142.087 107.82 142.002 107.996 141.893V142.826C107.82 142.935 107.628 143.012 107.423 143.057C107.223 143.109 106.972 143.134 106.67 143.134ZM110.958 143.134C110.519 143.134 110.136 143.052 109.811 142.886C109.491 142.715 109.243 142.455 109.066 142.107C108.895 141.753 108.809 141.303 108.809 140.755C108.809 140.184 108.904 139.722 109.092 139.368C109.286 139.009 109.551 138.746 109.888 138.581C110.225 138.409 110.61 138.324 111.044 138.324C111.335 138.324 111.594 138.352 111.823 138.409C112.051 138.466 112.245 138.535 112.405 138.615L112.088 139.462C111.911 139.394 111.734 139.337 111.557 139.291C111.38 139.24 111.209 139.214 111.044 139.214C110.787 139.214 110.573 139.271 110.402 139.385C110.236 139.499 110.113 139.67 110.034 139.899C109.954 140.121 109.914 140.404 109.914 140.746C109.914 141.077 109.954 141.354 110.034 141.577C110.119 141.799 110.245 141.967 110.41 142.082C110.576 142.19 110.781 142.244 111.026 142.244C111.289 142.244 111.52 142.213 111.72 142.15C111.92 142.087 112.108 142.002 112.285 141.893V142.826C112.108 142.935 111.917 143.012 111.711 143.057C111.512 143.109 111.26 143.134 110.958 143.134ZM117.515 140.721C117.515 141.109 117.463 141.451 117.361 141.748C117.258 142.044 117.11 142.298 116.916 142.51C116.727 142.715 116.493 142.872 116.214 142.98C115.94 143.083 115.634 143.134 115.298 143.134C114.978 143.134 114.684 143.083 114.416 142.98C114.148 142.872 113.914 142.715 113.714 142.51C113.52 142.298 113.369 142.044 113.26 141.748C113.152 141.451 113.098 141.109 113.098 140.721C113.098 140.207 113.186 139.773 113.363 139.419C113.54 139.06 113.794 138.789 114.125 138.606C114.462 138.418 114.858 138.324 115.315 138.324C115.749 138.324 116.128 138.418 116.453 138.606C116.784 138.789 117.044 139.06 117.232 139.419C117.421 139.773 117.515 140.207 117.515 140.721ZM114.202 140.721C114.202 141.046 114.239 141.325 114.313 141.559C114.393 141.788 114.513 141.962 114.673 142.082C114.838 142.201 115.049 142.261 115.306 142.261C115.569 142.261 115.78 142.201 115.94 142.082C116.105 141.962 116.225 141.788 116.299 141.559C116.373 141.325 116.411 141.046 116.411 140.721C116.411 140.39 116.371 140.113 116.291 139.89C116.216 139.662 116.097 139.491 115.931 139.377C115.771 139.257 115.563 139.197 115.306 139.197C114.918 139.197 114.636 139.328 114.459 139.591C114.288 139.853 114.202 140.23 114.202 140.721ZM122.747 138.409V143.049H121.9L121.754 142.45H121.703C121.606 142.609 121.48 142.741 121.326 142.843C121.172 142.94 121.004 143.012 120.821 143.057C120.638 143.109 120.45 143.134 120.256 143.134C119.914 143.134 119.617 143.075 119.366 142.955C119.115 142.835 118.924 142.652 118.792 142.407C118.661 142.156 118.596 141.833 118.596 141.44V138.409H119.674V141.226C119.674 141.568 119.743 141.828 119.88 142.005C120.016 142.176 120.233 142.261 120.53 142.261C120.821 142.261 121.049 142.201 121.215 142.082C121.38 141.956 121.497 141.776 121.566 141.542C121.634 141.308 121.669 141.02 121.669 140.678V138.409H122.747ZM126.604 138.324C127.124 138.324 127.529 138.458 127.82 138.726C128.117 138.994 128.265 139.428 128.265 140.027V143.049H127.186V140.241C127.186 139.893 127.118 139.633 126.981 139.462C126.844 139.285 126.627 139.197 126.33 139.197C125.897 139.197 125.6 139.334 125.44 139.608C125.28 139.876 125.2 140.267 125.2 140.78V143.049H124.122V138.409H124.952L125.106 139.017H125.166C125.269 138.857 125.394 138.726 125.543 138.623C125.691 138.521 125.857 138.446 126.039 138.401C126.222 138.349 126.41 138.324 126.604 138.324ZM131.412 142.27C131.549 142.27 131.68 142.258 131.805 142.236C131.931 142.207 132.048 142.176 132.156 142.141V142.946C132.042 142.997 131.894 143.04 131.711 143.075C131.529 143.114 131.337 143.134 131.138 143.134C130.875 143.134 130.635 143.092 130.419 143.006C130.207 142.915 130.036 142.761 129.905 142.544C129.779 142.327 129.717 142.024 129.717 141.636V139.223H129.092V138.752L129.777 138.375L130.119 137.391H130.795V138.409H132.113V139.223H130.795V141.628C130.795 141.845 130.852 142.007 130.966 142.116C131.081 142.219 131.229 142.27 131.412 142.27ZM137.19 143.134C136.75 143.134 136.368 143.052 136.043 142.886C135.723 142.715 135.475 142.455 135.298 142.107C135.127 141.753 135.041 141.303 135.041 140.755C135.041 140.184 135.135 139.722 135.324 139.368C135.518 139.009 135.783 138.746 136.12 138.581C136.456 138.409 136.842 138.324 137.275 138.324C137.566 138.324 137.826 138.352 138.054 138.409C138.283 138.466 138.477 138.535 138.636 138.615L138.32 139.462C138.143 139.394 137.966 139.337 137.789 139.291C137.612 139.24 137.441 139.214 137.275 139.214C137.019 139.214 136.805 139.271 136.633 139.385C136.468 139.499 136.345 139.67 136.265 139.899C136.185 140.121 136.145 140.404 136.145 140.746C136.145 141.077 136.185 141.354 136.265 141.577C136.351 141.799 136.476 141.967 136.642 142.082C136.807 142.19 137.013 142.244 137.258 142.244C137.521 142.244 137.752 142.213 137.952 142.15C138.151 142.087 138.34 142.002 138.517 141.893V142.826C138.34 142.935 138.148 143.012 137.943 143.057C137.743 143.109 137.492 143.134 137.19 143.134ZM142.034 138.324C142.103 138.324 142.183 138.327 142.274 138.332C142.365 138.338 142.442 138.349 142.505 138.367L142.411 139.368C142.36 139.357 142.291 139.348 142.206 139.342C142.126 139.331 142.054 139.325 141.992 139.325C141.82 139.325 141.655 139.354 141.495 139.411C141.341 139.462 141.201 139.542 141.076 139.651C140.956 139.753 140.859 139.887 140.785 140.053C140.716 140.218 140.682 140.415 140.682 140.643V143.049H139.603V138.409H140.434L140.588 139.214H140.639C140.73 139.048 140.845 138.9 140.982 138.769C141.119 138.632 141.275 138.523 141.452 138.444C141.635 138.364 141.829 138.324 142.034 138.324ZM145.064 138.324C145.481 138.324 145.837 138.409 146.134 138.581C146.436 138.746 146.67 138.986 146.836 139.3C147.001 139.608 147.084 139.984 147.084 140.429V140.977H144.02C144.031 141.4 144.148 141.728 144.371 141.962C144.593 142.19 144.901 142.304 145.295 142.304C145.598 142.304 145.866 142.276 146.1 142.219C146.339 142.156 146.585 142.067 146.836 141.953V142.818C146.608 142.926 146.371 143.006 146.125 143.057C145.88 143.109 145.586 143.134 145.244 143.134C144.793 143.134 144.391 143.049 144.037 142.878C143.689 142.701 143.415 142.435 143.215 142.082C143.021 141.728 142.924 141.288 142.924 140.763C142.924 140.233 143.012 139.787 143.189 139.428C143.372 139.063 143.623 138.789 143.943 138.606C144.262 138.418 144.636 138.324 145.064 138.324ZM145.064 139.12C144.779 139.12 144.545 139.214 144.362 139.402C144.185 139.585 144.08 139.859 144.045 140.224H146.04C146.04 140.007 146.003 139.816 145.929 139.651C145.86 139.485 145.755 139.357 145.612 139.265C145.469 139.168 145.287 139.12 145.064 139.12ZM150.021 138.324C150.62 138.324 151.074 138.455 151.382 138.717C151.696 138.974 151.853 139.379 151.853 139.933V143.049H151.091L150.877 142.407H150.843C150.711 142.572 150.574 142.712 150.432 142.826C150.295 142.935 150.135 143.012 149.952 143.057C149.775 143.109 149.559 143.134 149.302 143.134C149.028 143.134 148.78 143.083 148.557 142.98C148.34 142.878 148.169 142.721 148.043 142.51C147.918 142.293 147.855 142.022 147.855 141.696C147.855 141.217 148.029 140.857 148.377 140.618C148.731 140.372 149.265 140.238 149.978 140.215L150.783 140.19V139.959C150.783 139.662 150.711 139.451 150.569 139.325C150.426 139.2 150.226 139.137 149.969 139.137C149.735 139.137 149.51 139.171 149.293 139.24C149.076 139.308 148.865 139.388 148.66 139.479L148.317 138.726C148.546 138.606 148.805 138.509 149.096 138.435C149.393 138.361 149.701 138.324 150.021 138.324ZM150.218 140.875C149.744 140.892 149.416 140.974 149.233 141.123C149.051 141.265 148.959 141.46 148.959 141.705C148.959 141.922 149.025 142.079 149.156 142.176C149.287 142.273 149.456 142.321 149.661 142.321C149.975 142.321 150.24 142.233 150.457 142.056C150.674 141.873 150.783 141.605 150.783 141.251V140.857L150.218 140.875ZM155.002 142.27C155.139 142.27 155.27 142.258 155.395 142.236C155.521 142.207 155.638 142.176 155.746 142.141V142.946C155.632 142.997 155.484 143.04 155.301 143.075C155.119 143.114 154.928 143.134 154.728 143.134C154.465 143.134 154.226 143.092 154.009 143.006C153.798 142.915 153.626 142.761 153.495 142.544C153.37 142.327 153.307 142.024 153.307 141.636V139.223H152.682V138.752L153.367 138.375L153.709 137.391H154.385V138.409H155.704V139.223H154.385V141.628C154.385 141.845 154.442 142.007 154.557 142.116C154.671 142.219 154.819 142.27 155.002 142.27ZM158.548 138.324C158.964 138.324 159.321 138.409 159.618 138.581C159.92 138.746 160.154 138.986 160.32 139.3C160.485 139.608 160.568 139.984 160.568 140.429V140.977H157.503C157.515 141.4 157.632 141.728 157.854 141.962C158.077 142.19 158.385 142.304 158.779 142.304C159.081 142.304 159.349 142.276 159.583 142.219C159.823 142.156 160.069 142.067 160.32 141.953V142.818C160.091 142.926 159.855 143.006 159.609 143.057C159.364 143.109 159.07 143.134 158.727 143.134C158.277 143.134 157.874 143.049 157.521 142.878C157.172 142.701 156.898 142.435 156.699 142.082C156.505 141.728 156.408 141.288 156.408 140.763C156.408 140.233 156.496 139.787 156.673 139.428C156.856 139.063 157.107 138.789 157.426 138.606C157.746 138.418 158.12 138.324 158.548 138.324ZM158.548 139.12C158.262 139.12 158.028 139.214 157.846 139.402C157.669 139.585 157.563 139.859 157.529 140.224H159.524C159.524 140.007 159.486 139.816 159.412 139.651C159.344 139.485 159.238 139.357 159.096 139.265C158.953 139.168 158.77 139.12 158.548 139.12ZM163.188 143.134C162.651 143.134 162.215 142.935 161.878 142.535C161.547 142.13 161.382 141.531 161.382 140.738C161.382 139.944 161.55 139.345 161.887 138.94C162.223 138.529 162.666 138.324 163.213 138.324C163.442 138.324 163.641 138.355 163.813 138.418C163.989 138.475 164.141 138.555 164.266 138.658C164.392 138.76 164.497 138.874 164.583 139H164.634C164.617 138.92 164.6 138.797 164.583 138.632C164.566 138.466 164.557 138.312 164.557 138.17V136.543H165.636V143.049H164.797L164.6 142.441H164.557C164.472 142.567 164.366 142.684 164.241 142.792C164.115 142.895 163.967 142.977 163.795 143.04C163.624 143.103 163.422 143.134 163.188 143.134ZM163.513 142.261C163.912 142.261 164.195 142.147 164.36 141.919C164.526 141.691 164.609 141.345 164.609 140.883V140.746C164.609 140.244 164.529 139.862 164.369 139.599C164.215 139.337 163.924 139.205 163.496 139.205C163.171 139.205 162.919 139.342 162.743 139.616C162.566 139.884 162.477 140.264 162.477 140.755C162.477 141.246 162.566 141.619 162.743 141.876C162.919 142.133 163.176 142.261 163.513 142.261ZM172.396 141.705C172.396 142.013 172.322 142.276 172.173 142.492C172.025 142.704 171.805 142.863 171.514 142.972C171.229 143.08 170.878 143.134 170.461 143.134C170.136 143.134 169.857 143.112 169.623 143.066C169.389 143.02 169.166 142.949 168.955 142.852V141.936C169.183 142.044 169.437 142.136 169.717 142.21C169.996 142.284 170.256 142.321 170.496 142.321C170.792 142.321 171.006 142.276 171.138 142.184C171.269 142.093 171.335 141.97 171.335 141.816C171.335 141.725 171.309 141.642 171.258 141.568C171.206 141.494 171.106 141.417 170.958 141.337C170.81 141.251 170.584 141.146 170.282 141.02C169.985 140.9 169.737 140.78 169.537 140.661C169.343 140.541 169.195 140.398 169.092 140.233C168.995 140.061 168.946 139.847 168.946 139.591C168.946 139.174 169.112 138.86 169.443 138.649C169.774 138.432 170.21 138.324 170.753 138.324C171.038 138.324 171.306 138.352 171.557 138.409C171.814 138.461 172.071 138.546 172.328 138.666L171.985 139.462C171.842 139.399 171.7 139.345 171.557 139.3C171.42 139.248 171.28 139.208 171.138 139.18C171.001 139.151 170.861 139.137 170.718 139.137C170.484 139.137 170.307 139.174 170.188 139.248C170.068 139.317 170.008 139.414 170.008 139.539C170.008 139.636 170.036 139.722 170.093 139.796C170.156 139.865 170.262 139.936 170.41 140.01C170.564 140.079 170.781 140.17 171.061 140.284C171.34 140.392 171.577 140.507 171.771 140.626C171.971 140.74 172.125 140.883 172.233 141.054C172.342 141.226 172.396 141.442 172.396 141.705ZM177.551 138.409V143.049H176.704L176.558 142.45H176.507C176.41 142.609 176.284 142.741 176.13 142.843C175.976 142.94 175.808 143.012 175.625 143.057C175.443 143.109 175.254 143.134 175.06 143.134C174.718 143.134 174.421 143.075 174.17 142.955C173.919 142.835 173.728 142.652 173.596 142.407C173.465 142.156 173.4 141.833 173.4 141.44V138.409H174.478V141.226C174.478 141.568 174.547 141.828 174.684 142.005C174.821 142.176 175.037 142.261 175.334 142.261C175.625 142.261 175.853 142.201 176.019 142.082C176.184 141.956 176.301 141.776 176.37 141.542C176.438 141.308 176.473 141.02 176.473 140.678V138.409H177.551ZM180.801 143.134C180.361 143.134 179.979 143.052 179.654 142.886C179.334 142.715 179.086 142.455 178.909 142.107C178.738 141.753 178.652 141.303 178.652 140.755C178.652 140.184 178.746 139.722 178.934 139.368C179.129 139.009 179.394 138.746 179.731 138.581C180.067 138.409 180.452 138.324 180.886 138.324C181.177 138.324 181.437 138.352 181.665 138.409C181.893 138.466 182.087 138.535 182.247 138.615L181.93 139.462C181.754 139.394 181.577 139.337 181.4 139.291C181.223 139.24 181.052 139.214 180.886 139.214C180.629 139.214 180.415 139.271 180.244 139.385C180.079 139.499 179.956 139.67 179.876 139.899C179.796 140.121 179.756 140.404 179.756 140.746C179.756 141.077 179.796 141.354 179.876 141.577C179.962 141.799 180.087 141.967 180.253 142.082C180.418 142.19 180.624 142.244 180.869 142.244C181.132 142.244 181.363 142.213 181.562 142.15C181.762 142.087 181.95 142.002 182.127 141.893V142.826C181.95 142.935 181.759 143.012 181.554 143.057C181.354 143.109 181.103 143.134 180.801 143.134ZM185.089 143.134C184.65 143.134 184.267 143.052 183.942 142.886C183.622 142.715 183.374 142.455 183.197 142.107C183.026 141.753 182.94 141.303 182.94 140.755C182.94 140.184 183.035 139.722 183.223 139.368C183.417 139.009 183.682 138.746 184.019 138.581C184.356 138.409 184.741 138.324 185.175 138.324C185.466 138.324 185.725 138.352 185.953 138.409C186.182 138.466 186.376 138.535 186.536 138.615L186.219 139.462C186.042 139.394 185.865 139.337 185.688 139.291C185.511 139.24 185.34 139.214 185.175 139.214C184.918 139.214 184.704 139.271 184.533 139.385C184.367 139.499 184.244 139.67 184.164 139.899C184.085 140.121 184.045 140.404 184.045 140.746C184.045 141.077 184.085 141.354 184.164 141.577C184.25 141.799 184.376 141.967 184.541 142.082C184.707 142.19 184.912 142.244 185.157 142.244C185.42 142.244 185.651 142.213 185.851 142.15C186.05 142.087 186.239 142.002 186.416 141.893V142.826C186.239 142.935 186.048 143.012 185.842 143.057C185.642 143.109 185.391 143.134 185.089 143.134ZM189.369 138.324C189.785 138.324 190.142 138.409 190.439 138.581C190.741 138.746 190.975 138.986 191.141 139.3C191.306 139.608 191.389 139.984 191.389 140.429V140.977H188.324C188.336 141.4 188.453 141.728 188.675 141.962C188.898 142.19 189.206 142.304 189.6 142.304C189.902 142.304 190.17 142.276 190.404 142.219C190.644 142.156 190.89 142.067 191.141 141.953V142.818C190.912 142.926 190.676 143.006 190.43 143.057C190.185 143.109 189.891 143.134 189.548 143.134C189.098 143.134 188.695 143.049 188.342 142.878C187.993 142.701 187.719 142.435 187.52 142.082C187.326 141.728 187.229 141.288 187.229 140.763C187.229 140.233 187.317 139.787 187.494 139.428C187.677 139.063 187.928 138.789 188.247 138.606C188.567 138.418 188.941 138.324 189.369 138.324ZM189.369 139.12C189.083 139.12 188.849 139.214 188.667 139.402C188.49 139.585 188.384 139.859 188.35 140.224H190.345C190.345 140.007 190.307 139.816 190.233 139.651C190.165 139.485 190.059 139.357 189.917 139.265C189.774 139.168 189.591 139.12 189.369 139.12ZM195.635 141.705C195.635 142.013 195.561 142.276 195.413 142.492C195.264 142.704 195.044 142.863 194.753 142.972C194.468 143.08 194.117 143.134 193.701 143.134C193.375 143.134 193.096 143.112 192.862 143.066C192.628 143.02 192.405 142.949 192.194 142.852V141.936C192.422 142.044 192.676 142.136 192.956 142.21C193.235 142.284 193.495 142.321 193.735 142.321C194.032 142.321 194.246 142.276 194.377 142.184C194.508 142.093 194.574 141.97 194.574 141.816C194.574 141.725 194.548 141.642 194.497 141.568C194.445 141.494 194.345 141.417 194.197 141.337C194.049 141.251 193.823 141.146 193.521 141.02C193.224 140.9 192.976 140.78 192.776 140.661C192.582 140.541 192.434 140.398 192.331 140.233C192.234 140.061 192.185 139.847 192.185 139.591C192.185 139.174 192.351 138.86 192.682 138.649C193.013 138.432 193.449 138.324 193.992 138.324C194.277 138.324 194.545 138.352 194.796 138.409C195.053 138.461 195.31 138.546 195.567 138.666L195.224 139.462C195.082 139.399 194.939 139.345 194.796 139.3C194.659 139.248 194.519 139.208 194.377 139.18C194.24 139.151 194.1 139.137 193.957 139.137C193.723 139.137 193.546 139.174 193.427 139.248C193.307 139.317 193.247 139.414 193.247 139.539C193.247 139.636 193.275 139.722 193.332 139.796C193.395 139.865 193.501 139.936 193.649 140.01C193.803 140.079 194.02 140.17 194.3 140.284C194.579 140.392 194.816 140.507 195.01 140.626C195.21 140.74 195.364 140.883 195.472 141.054C195.581 141.226 195.635 141.442 195.635 141.705ZM199.832 141.705C199.832 142.013 199.757 142.276 199.609 142.492C199.461 142.704 199.241 142.863 198.95 142.972C198.664 143.08 198.314 143.134 197.897 143.134C197.572 143.134 197.292 143.112 197.058 143.066C196.824 143.02 196.602 142.949 196.39 142.852V141.936C196.619 142.044 196.873 142.136 197.152 142.21C197.432 142.284 197.692 142.321 197.931 142.321C198.228 142.321 198.442 142.276 198.573 142.184C198.704 142.093 198.77 141.97 198.77 141.816C198.77 141.725 198.744 141.642 198.693 141.568C198.642 141.494 198.542 141.417 198.393 141.337C198.245 141.251 198.02 141.146 197.717 141.02C197.42 140.9 197.172 140.78 196.972 140.661C196.778 140.541 196.63 140.398 196.527 140.233C196.43 140.061 196.382 139.847 196.382 139.591C196.382 139.174 196.547 138.86 196.878 138.649C197.209 138.432 197.646 138.324 198.188 138.324C198.473 138.324 198.742 138.352 198.993 138.409C199.249 138.461 199.506 138.546 199.763 138.666L199.421 139.462C199.278 139.399 199.135 139.345 198.993 139.3C198.856 139.248 198.716 139.208 198.573 139.18C198.436 139.151 198.296 139.137 198.154 139.137C197.92 139.137 197.743 139.174 197.623 139.248C197.503 139.317 197.443 139.414 197.443 139.539C197.443 139.636 197.472 139.722 197.529 139.796C197.592 139.865 197.697 139.936 197.846 140.01C198 140.079 198.217 140.17 198.496 140.284C198.776 140.392 199.013 140.507 199.207 140.626C199.406 140.74 199.56 140.883 199.669 141.054C199.777 141.226 199.832 141.442 199.832 141.705ZM203.275 139.223H202.153V143.049H201.075V139.223H200.33V138.709L201.075 138.401V138.084C201.075 137.685 201.137 137.371 201.263 137.142C201.389 136.914 201.571 136.752 201.811 136.655C202.051 136.552 202.333 136.5 202.658 136.5C202.887 136.5 203.092 136.52 203.275 136.56C203.457 136.595 203.608 136.635 203.728 136.68L203.454 137.485C203.357 137.456 203.249 137.431 203.129 137.408C203.015 137.379 202.889 137.365 202.752 137.365C202.547 137.365 202.396 137.431 202.299 137.562C202.202 137.693 202.153 137.876 202.153 138.11V138.409H203.275V139.223ZM208.163 138.409V143.049H207.316L207.17 142.45H207.119C207.022 142.609 206.896 142.741 206.742 142.843C206.588 142.94 206.42 143.012 206.237 143.057C206.055 143.109 205.866 143.134 205.672 143.134C205.33 143.134 205.033 143.075 204.782 142.955C204.531 142.835 204.34 142.652 204.208 142.407C204.077 142.156 204.012 141.833 204.012 141.44V138.409H205.09V141.226C205.09 141.568 205.159 141.828 205.296 142.005C205.433 142.176 205.649 142.261 205.946 142.261C206.237 142.261 206.465 142.201 206.631 142.082C206.796 141.956 206.913 141.776 206.982 141.542C207.05 141.308 207.085 141.02 207.085 140.678V138.409H208.163ZM210.617 143.049H209.538V136.543H210.617V143.049ZM213.074 143.049H211.996V136.543H213.074V143.049ZM213.76 138.409H214.933L215.857 141.029C215.897 141.143 215.931 141.254 215.96 141.363C215.994 141.465 216.023 141.571 216.045 141.679C216.068 141.788 216.085 141.896 216.097 142.005H216.131C216.154 141.862 216.188 141.705 216.234 141.534C216.285 141.363 216.336 141.194 216.388 141.029L217.278 138.409H218.442L216.465 143.665C216.351 143.968 216.205 144.227 216.028 144.444C215.857 144.661 215.652 144.824 215.412 144.932C215.178 145.046 214.913 145.103 214.616 145.103C214.479 145.103 214.356 145.095 214.248 145.078C214.145 145.066 214.054 145.052 213.974 145.035V144.179C214.037 144.19 214.111 144.202 214.196 144.213C214.288 144.224 214.382 144.23 214.479 144.23C214.656 144.23 214.807 144.193 214.933 144.119C215.064 144.05 215.172 143.953 215.258 143.828C215.349 143.702 215.423 143.562 215.48 143.408L215.617 143.032L213.76 138.409Z" fill="#0D1227"/>
<path d="M87.9897 157.473H87.2638L85.5313 155.137L85.0314 155.576V157.473H84.415V152.583H85.0314V154.994C85.1683 154.838 85.3076 154.683 85.4491 154.528C85.5906 154.373 85.7321 154.218 85.8737 154.062L87.1953 152.583H87.9144L85.9764 154.713L87.9897 157.473ZM89.1754 153.802V157.473H88.5727V153.802H89.1754ZM88.8809 152.426C88.9722 152.426 89.0521 152.458 89.1206 152.522C89.1936 152.581 89.2302 152.677 89.2302 152.809C89.2302 152.937 89.1936 153.033 89.1206 153.097C89.0521 153.161 88.9722 153.193 88.8809 153.193C88.7805 153.193 88.696 153.161 88.6275 153.097C88.5591 153.033 88.5248 152.937 88.5248 152.809C88.5248 152.677 88.5591 152.581 88.6275 152.522C88.696 152.458 88.7805 152.426 88.8809 152.426ZM92.105 153.734C92.5433 153.734 92.8743 153.841 93.098 154.056C93.3217 154.266 93.4335 154.608 93.4335 155.083V157.473H92.8378V155.124C92.8378 154.827 92.7716 154.606 92.6392 154.46C92.5068 154.313 92.2991 154.24 92.016 154.24C91.6097 154.24 91.3289 154.355 91.1737 154.583C91.0185 154.811 90.9409 155.14 90.9409 155.569V157.473H90.3382V153.802H90.8245L90.9135 154.302H90.9477C91.0299 154.174 91.1303 154.069 91.249 153.987C91.3723 153.9 91.507 153.836 91.6531 153.795C91.7992 153.754 91.9498 153.734 92.105 153.734ZM95.8726 157.541C95.416 157.541 95.0508 157.384 94.7769 157.069C94.503 156.749 94.366 156.274 94.366 155.644C94.366 155.014 94.503 154.539 94.7769 154.22C95.0554 153.896 95.4229 153.734 95.8794 153.734C96.0711 153.734 96.2378 153.759 96.3793 153.809C96.5208 153.855 96.6441 153.919 96.7491 154.001C96.8541 154.083 96.9431 154.174 97.0162 154.275H97.0573C97.0527 154.215 97.0436 154.129 97.0299 154.014C97.0207 153.896 97.0162 153.802 97.0162 153.734V152.268H97.6188V157.473H97.1326L97.0436 156.98H97.0162C96.9431 157.085 96.8541 157.18 96.7491 157.267C96.6441 157.349 96.5186 157.416 96.3725 157.466C96.2309 157.516 96.0643 157.541 95.8726 157.541ZM95.9684 157.041C96.3565 157.041 96.6281 156.936 96.7833 156.726C96.9431 156.512 97.023 156.19 97.023 155.761V155.651C97.023 155.195 96.9477 154.845 96.797 154.603C96.6464 154.357 96.3679 154.234 95.9616 154.234C95.6374 154.234 95.3932 154.364 95.2288 154.624C95.0691 154.88 94.9892 155.224 94.9892 155.658C94.9892 156.096 95.0691 156.436 95.2288 156.678C95.3932 156.92 95.6397 157.041 95.9684 157.041ZM99.3872 157.473H98.7846V152.268H99.3872V157.473ZM99.9748 153.802H100.619L101.413 155.891C101.459 156.014 101.5 156.133 101.536 156.247C101.577 156.361 101.614 156.473 101.646 156.582C101.678 156.687 101.703 156.79 101.721 156.891H101.748C101.776 156.776 101.819 156.628 101.879 156.445C101.938 156.258 102 156.071 102.063 155.884L102.81 153.802H103.46L101.879 157.979C101.792 158.208 101.689 158.406 101.57 158.575C101.456 158.749 101.315 158.881 101.146 158.972C100.981 159.068 100.781 159.116 100.543 159.116C100.434 159.116 100.338 159.109 100.256 159.096C100.173 159.087 100.103 159.075 100.043 159.061V158.582C100.094 158.591 100.153 158.6 100.221 158.609C100.294 158.619 100.37 158.623 100.447 158.623C100.589 158.623 100.71 158.596 100.81 158.541C100.915 158.491 101.004 158.415 101.077 158.315C101.15 158.219 101.212 158.105 101.262 157.973L101.454 157.486L99.9748 153.802ZM107.566 153.734C108.018 153.734 108.381 153.891 108.655 154.206C108.933 154.521 109.073 154.996 109.073 155.631C109.073 156.046 109.009 156.398 108.881 156.685C108.758 156.968 108.582 157.183 108.354 157.329C108.13 157.47 107.865 157.541 107.559 157.541C107.372 157.541 107.205 157.516 107.059 157.466C106.913 157.416 106.788 157.352 106.683 157.274C106.582 157.192 106.495 157.103 106.422 157.007H106.381C106.39 157.085 106.4 157.183 106.409 157.301C106.418 157.42 106.422 157.523 106.422 157.61V159.116H105.82V153.802H106.313L106.395 154.302H106.422C106.495 154.197 106.582 154.101 106.683 154.014C106.788 153.928 106.911 153.859 107.052 153.809C107.199 153.759 107.37 153.734 107.566 153.734ZM107.456 154.24C107.21 154.24 107.011 154.288 106.861 154.384C106.71 154.476 106.6 154.615 106.532 154.802C106.464 154.989 106.427 155.227 106.422 155.514V155.631C106.422 155.932 106.454 156.188 106.518 156.398C106.582 156.608 106.69 156.767 106.84 156.877C106.995 156.986 107.205 157.041 107.47 157.041C107.694 157.041 107.876 156.98 108.018 156.856C108.164 156.733 108.271 156.566 108.34 156.356C108.413 156.142 108.449 155.898 108.449 155.624C108.449 155.204 108.367 154.868 108.203 154.617C108.043 154.366 107.794 154.24 107.456 154.24ZM111.745 153.734C111.813 153.734 111.886 153.738 111.964 153.747C112.046 153.752 112.117 153.761 112.176 153.775L112.101 154.329C112.042 154.316 111.975 154.304 111.902 154.295C111.834 154.286 111.768 154.281 111.704 154.281C111.562 154.281 111.428 154.311 111.3 154.371C111.172 154.43 111.058 154.514 110.957 154.624C110.857 154.729 110.777 154.857 110.718 155.007C110.663 155.158 110.636 155.327 110.636 155.514V157.473H110.033V153.802H110.526L110.594 154.473H110.622C110.699 154.336 110.793 154.213 110.903 154.103C111.012 153.989 111.138 153.9 111.279 153.836C111.421 153.768 111.576 153.734 111.745 153.734ZM115.919 155.631C115.919 155.936 115.878 156.208 115.796 156.445C115.718 156.678 115.604 156.877 115.453 157.041C115.307 157.206 115.127 157.331 114.913 157.418C114.703 157.5 114.467 157.541 114.207 157.541C113.965 157.541 113.741 157.5 113.536 157.418C113.331 157.331 113.153 157.206 113.002 157.041C112.851 156.877 112.733 156.678 112.646 156.445C112.564 156.208 112.523 155.936 112.523 155.631C112.523 155.224 112.591 154.882 112.728 154.603C112.865 154.32 113.061 154.106 113.317 153.96C113.573 153.809 113.876 153.734 114.228 153.734C114.561 153.734 114.853 153.809 115.104 153.96C115.36 154.106 115.559 154.32 115.7 154.603C115.846 154.882 115.919 155.224 115.919 155.631ZM113.146 155.631C113.146 155.918 113.182 156.169 113.255 156.384C113.333 156.594 113.452 156.756 113.611 156.87C113.771 156.984 113.974 157.041 114.221 157.041C114.467 157.041 114.671 156.984 114.83 156.87C114.99 156.756 115.107 156.594 115.18 156.384C115.257 156.169 115.296 155.918 115.296 155.631C115.296 155.338 115.257 155.09 115.18 154.884C115.102 154.679 114.983 154.521 114.823 154.412C114.668 154.297 114.465 154.24 114.214 154.24C113.84 154.24 113.568 154.364 113.399 154.61C113.23 154.857 113.146 155.197 113.146 155.631ZM118.347 157.541C118.022 157.541 117.733 157.475 117.477 157.343C117.226 157.21 117.027 157.005 116.881 156.726C116.74 156.448 116.669 156.092 116.669 155.658C116.669 155.206 116.744 154.838 116.895 154.555C117.045 154.272 117.249 154.065 117.504 153.932C117.764 153.8 118.059 153.734 118.388 153.734C118.575 153.734 118.755 153.754 118.929 153.795C119.102 153.832 119.244 153.877 119.353 153.932L119.168 154.432C119.059 154.391 118.931 154.352 118.785 154.316C118.639 154.279 118.502 154.261 118.374 154.261C118.127 154.261 117.924 154.313 117.764 154.418C117.605 154.523 117.486 154.679 117.408 154.884C117.331 155.09 117.292 155.345 117.292 155.651C117.292 155.943 117.331 156.192 117.408 156.398C117.486 156.603 117.602 156.758 117.758 156.863C117.913 156.968 118.107 157.021 118.34 157.021C118.541 157.021 118.716 157 118.867 156.959C119.022 156.918 119.164 156.868 119.292 156.808V157.343C119.168 157.406 119.031 157.454 118.881 157.486C118.735 157.523 118.557 157.541 118.347 157.541ZM121.582 153.734C121.897 153.734 122.166 153.802 122.39 153.939C122.618 154.076 122.792 154.27 122.911 154.521C123.034 154.768 123.095 155.058 123.095 155.391V155.754H120.582C120.591 156.169 120.696 156.487 120.897 156.706C121.103 156.92 121.388 157.028 121.753 157.028C121.986 157.028 122.192 157.007 122.37 156.966C122.552 156.92 122.739 156.856 122.931 156.774V157.301C122.744 157.384 122.559 157.443 122.376 157.48C122.194 157.521 121.977 157.541 121.726 157.541C121.379 157.541 121.071 157.47 120.801 157.329C120.537 157.187 120.329 156.977 120.178 156.699C120.032 156.416 119.959 156.071 119.959 155.665C119.959 155.263 120.025 154.918 120.158 154.631C120.295 154.343 120.484 154.122 120.726 153.966C120.973 153.811 121.258 153.734 121.582 153.734ZM121.575 154.227C121.288 154.227 121.059 154.32 120.89 154.507C120.726 154.69 120.628 154.946 120.596 155.274H122.465C122.465 155.064 122.433 154.882 122.37 154.727C122.306 154.571 122.207 154.45 122.075 154.364C121.947 154.272 121.781 154.227 121.575 154.227ZM125.447 153.734C125.762 153.734 126.032 153.802 126.255 153.939C126.484 154.076 126.657 154.27 126.776 154.521C126.899 154.768 126.961 155.058 126.961 155.391V155.754H124.448C124.457 156.169 124.562 156.487 124.763 156.706C124.968 156.92 125.253 157.028 125.619 157.028C125.851 157.028 126.057 157.007 126.235 156.966C126.418 156.92 126.605 156.856 126.796 156.774V157.301C126.609 157.384 126.424 157.443 126.242 157.48C126.059 157.521 125.842 157.541 125.591 157.541C125.244 157.541 124.936 157.47 124.667 157.329C124.402 157.187 124.194 156.977 124.044 156.699C123.897 156.416 123.824 156.071 123.824 155.665C123.824 155.263 123.891 154.918 124.023 154.631C124.16 154.343 124.349 154.122 124.591 153.966C124.838 153.811 125.123 153.734 125.447 153.734ZM125.441 154.227C125.153 154.227 124.925 154.32 124.756 154.507C124.591 154.69 124.493 154.946 124.461 155.274H126.331C126.331 155.064 126.299 154.882 126.235 154.727C126.171 154.571 126.073 154.45 125.94 154.364C125.813 154.272 125.646 154.227 125.441 154.227ZM129.196 157.541C128.74 157.541 128.375 157.384 128.101 157.069C127.827 156.749 127.69 156.274 127.69 155.644C127.69 155.014 127.827 154.539 128.101 154.22C128.379 153.896 128.747 153.734 129.203 153.734C129.395 153.734 129.562 153.759 129.703 153.809C129.845 153.855 129.968 153.919 130.073 154.001C130.178 154.083 130.267 154.174 130.34 154.275H130.381C130.377 154.215 130.367 154.129 130.354 154.014C130.345 153.896 130.34 153.802 130.34 153.734V152.268H130.943V157.473H130.456L130.367 156.98H130.34C130.267 157.085 130.178 157.18 130.073 157.267C129.968 157.349 129.842 157.416 129.696 157.466C129.555 157.516 129.388 157.541 129.196 157.541ZM129.292 157.041C129.68 157.041 129.952 156.936 130.107 156.726C130.267 156.512 130.347 156.19 130.347 155.761V155.651C130.347 155.195 130.272 154.845 130.121 154.603C129.97 154.357 129.692 154.234 129.285 154.234C128.961 154.234 128.717 154.364 128.553 154.624C128.393 154.88 128.313 155.224 128.313 155.658C128.313 156.096 128.393 156.436 128.553 156.678C128.717 156.92 128.964 157.041 129.292 157.041ZM135.113 157.048C135.204 157.048 135.298 157.041 135.394 157.028C135.49 157.009 135.567 156.991 135.627 156.973V157.432C135.563 157.464 135.471 157.489 135.353 157.507C135.234 157.53 135.12 157.541 135.01 157.541C134.819 157.541 134.641 157.509 134.476 157.445C134.316 157.377 134.186 157.26 134.086 157.096C133.985 156.932 133.935 156.701 133.935 156.404V154.268H133.415V153.98L133.942 153.74L134.182 152.96H134.538V153.802H135.599V154.268H134.538V156.391C134.538 156.614 134.59 156.781 134.695 156.891C134.805 156.996 134.944 157.048 135.113 157.048ZM139.553 155.631C139.553 155.936 139.512 156.208 139.43 156.445C139.352 156.678 139.238 156.877 139.087 157.041C138.941 157.206 138.761 157.331 138.546 157.418C138.336 157.5 138.101 157.541 137.841 157.541C137.599 157.541 137.375 157.5 137.17 157.418C136.964 157.331 136.786 157.206 136.636 157.041C136.485 156.877 136.366 156.678 136.279 156.445C136.197 156.208 136.156 155.936 136.156 155.631C136.156 155.224 136.225 154.882 136.362 154.603C136.499 154.32 136.695 154.106 136.951 153.96C137.206 153.809 137.51 153.734 137.861 153.734C138.195 153.734 138.487 153.809 138.738 153.96C138.994 154.106 139.192 154.32 139.334 154.603C139.48 154.882 139.553 155.224 139.553 155.631ZM136.779 155.631C136.779 155.918 136.816 156.169 136.889 156.384C136.967 156.594 137.085 156.756 137.245 156.87C137.405 156.984 137.608 157.041 137.854 157.041C138.101 157.041 138.304 156.984 138.464 156.87C138.624 156.756 138.74 156.594 138.813 156.384C138.891 156.169 138.93 155.918 138.93 155.631C138.93 155.338 138.891 155.09 138.813 154.884C138.736 154.679 138.617 154.521 138.457 154.412C138.302 154.297 138.099 154.24 137.848 154.24C137.473 154.24 137.202 154.364 137.033 154.61C136.864 154.857 136.779 155.197 136.779 155.631ZM141.712 153.802H142.355L143.15 155.891C143.195 156.014 143.236 156.133 143.273 156.247C143.314 156.361 143.35 156.473 143.382 156.582C143.414 156.687 143.439 156.79 143.458 156.891H143.485C143.513 156.776 143.556 156.628 143.615 156.445C143.675 156.258 143.736 156.071 143.8 155.884L144.547 153.802H145.197L143.615 157.979C143.529 158.208 143.426 158.406 143.307 158.575C143.193 158.749 143.051 158.881 142.883 158.972C142.718 159.068 142.517 159.116 142.28 159.116C142.17 159.116 142.074 159.109 141.992 159.096C141.91 159.087 141.839 159.075 141.78 159.061V158.582C141.83 158.591 141.89 158.6 141.958 158.609C142.031 158.619 142.106 158.623 142.184 158.623C142.326 158.623 142.447 158.596 142.547 158.541C142.652 158.491 142.741 158.415 142.814 158.315C142.887 158.219 142.949 158.105 142.999 157.973L143.191 157.486L141.712 153.802ZM148.969 155.631C148.969 155.936 148.928 156.208 148.846 156.445C148.768 156.678 148.654 156.877 148.503 157.041C148.357 157.206 148.177 157.331 147.962 157.418C147.752 157.5 147.517 157.541 147.257 157.541C147.015 157.541 146.791 157.5 146.586 157.418C146.38 157.331 146.202 157.206 146.052 157.041C145.901 156.877 145.782 156.678 145.695 156.445C145.613 156.208 145.572 155.936 145.572 155.631C145.572 155.224 145.641 154.882 145.778 154.603C145.915 154.32 146.111 154.106 146.367 153.96C146.622 153.809 146.926 153.734 147.277 153.734C147.611 153.734 147.903 153.809 148.154 153.96C148.41 154.106 148.608 154.32 148.75 154.603C148.896 154.882 148.969 155.224 148.969 155.631ZM146.195 155.631C146.195 155.918 146.232 156.169 146.305 156.384C146.383 156.594 146.501 156.756 146.661 156.87C146.821 156.984 147.024 157.041 147.27 157.041C147.517 157.041 147.72 156.984 147.88 156.87C148.04 156.756 148.156 156.594 148.229 156.384C148.307 156.169 148.346 155.918 148.346 155.631C148.346 155.338 148.307 155.09 148.229 154.884C148.152 154.679 148.033 154.521 147.873 154.412C147.718 154.297 147.515 154.24 147.264 154.24C146.889 154.24 146.618 154.364 146.449 154.61C146.28 154.857 146.195 155.197 146.195 155.631ZM152.992 153.802V157.473H152.499L152.41 156.986H152.382C152.305 157.114 152.204 157.219 152.081 157.301C151.958 157.384 151.823 157.443 151.677 157.48C151.531 157.521 151.378 157.541 151.218 157.541C150.926 157.541 150.679 157.495 150.479 157.404C150.282 157.308 150.134 157.162 150.033 156.966C149.933 156.77 149.883 156.516 149.883 156.206V153.802H150.492V156.165C150.492 156.457 150.558 156.676 150.691 156.822C150.823 156.968 151.029 157.041 151.307 157.041C151.581 157.041 151.796 156.991 151.951 156.891C152.111 156.786 152.223 156.635 152.286 156.439C152.355 156.238 152.389 155.996 152.389 155.713V153.802H152.992ZM155.869 153.734C155.938 153.734 156.011 153.738 156.088 153.747C156.17 153.752 156.241 153.761 156.3 153.775L156.225 154.329C156.166 154.316 156.1 154.304 156.027 154.295C155.958 154.286 155.892 154.281 155.828 154.281C155.686 154.281 155.552 154.311 155.424 154.371C155.296 154.43 155.182 154.514 155.082 154.624C154.981 154.729 154.901 154.857 154.842 155.007C154.787 155.158 154.76 155.327 154.76 155.514V157.473H154.157V153.802H154.65L154.719 154.473H154.746C154.824 154.336 154.917 154.213 155.027 154.103C155.136 153.989 155.262 153.9 155.403 153.836C155.545 153.768 155.7 153.734 155.869 153.734ZM160.066 157.541C159.609 157.541 159.244 157.384 158.97 157.069C158.696 156.749 158.559 156.274 158.559 155.644C158.559 155.014 158.696 154.539 158.97 154.22C159.249 153.896 159.616 153.734 160.073 153.734C160.264 153.734 160.431 153.759 160.573 153.809C160.714 153.855 160.837 153.919 160.942 154.001C161.047 154.083 161.136 154.174 161.209 154.275H161.251C161.246 154.215 161.237 154.129 161.223 154.014C161.214 153.896 161.209 153.802 161.209 153.734V152.268H161.812V157.473H161.326L161.237 156.98H161.209C161.136 157.085 161.047 157.18 160.942 157.267C160.837 157.349 160.712 157.416 160.566 157.466C160.424 157.516 160.258 157.541 160.066 157.541ZM160.162 157.041C160.55 157.041 160.821 156.936 160.977 156.726C161.136 156.512 161.216 156.19 161.216 155.761V155.651C161.216 155.195 161.141 154.845 160.99 154.603C160.84 154.357 160.561 154.234 160.155 154.234C159.831 154.234 159.587 154.364 159.422 154.624C159.262 154.88 159.182 155.224 159.182 155.658C159.182 156.096 159.262 156.436 159.422 156.678C159.587 156.92 159.833 157.041 160.162 157.041ZM164.368 153.74C164.815 153.74 165.146 153.839 165.361 154.035C165.576 154.231 165.683 154.544 165.683 154.973V157.473H165.245L165.128 156.952H165.101C164.996 157.085 164.886 157.196 164.772 157.288C164.662 157.375 164.535 157.438 164.389 157.48C164.247 157.521 164.074 157.541 163.868 157.541C163.649 157.541 163.45 157.502 163.272 157.425C163.099 157.347 162.962 157.228 162.861 157.069C162.761 156.904 162.711 156.699 162.711 156.452C162.711 156.087 162.855 155.806 163.142 155.61C163.43 155.409 163.873 155.3 164.471 155.281L165.094 155.261V155.042C165.094 154.736 165.028 154.523 164.895 154.405C164.763 154.286 164.576 154.227 164.334 154.227C164.142 154.227 163.959 154.256 163.786 154.316C163.612 154.371 163.45 154.434 163.3 154.507L163.115 154.056C163.275 153.969 163.464 153.896 163.683 153.836C163.902 153.772 164.131 153.74 164.368 153.74ZM164.546 155.699C164.09 155.717 163.772 155.79 163.594 155.918C163.421 156.046 163.334 156.226 163.334 156.459C163.334 156.665 163.396 156.815 163.519 156.911C163.647 157.007 163.809 157.055 164.005 157.055C164.316 157.055 164.573 156.97 164.779 156.802C164.984 156.628 165.087 156.363 165.087 156.007V155.678L164.546 155.699ZM169.206 156.459C169.206 156.697 169.147 156.895 169.028 157.055C168.91 157.215 168.741 157.336 168.522 157.418C168.303 157.5 168.042 157.541 167.741 157.541C167.485 157.541 167.264 157.521 167.077 157.48C166.894 157.438 166.732 157.381 166.591 157.308V156.76C166.737 156.834 166.912 156.902 167.118 156.966C167.328 157.025 167.54 157.055 167.755 157.055C168.061 157.055 168.282 157.007 168.419 156.911C168.556 156.811 168.624 156.678 168.624 156.514C168.624 156.423 168.599 156.34 168.549 156.267C168.499 156.194 168.408 156.121 168.275 156.048C168.147 155.975 167.962 155.893 167.72 155.802C167.483 155.71 167.28 155.619 167.111 155.528C166.942 155.437 166.812 155.327 166.721 155.199C166.629 155.071 166.584 154.907 166.584 154.706C166.584 154.396 166.709 154.156 166.96 153.987C167.216 153.818 167.549 153.734 167.96 153.734C168.184 153.734 168.392 153.756 168.583 153.802C168.78 153.843 168.962 153.903 169.131 153.98L168.926 154.46C168.825 154.414 168.718 154.375 168.604 154.343C168.494 154.307 168.382 154.279 168.268 154.261C168.154 154.238 168.038 154.227 167.919 154.227C167.672 154.227 167.483 154.268 167.351 154.35C167.223 154.428 167.159 154.535 167.159 154.672C167.159 154.772 167.189 154.859 167.248 154.932C167.307 155.001 167.405 155.069 167.542 155.137C167.684 155.201 167.871 155.279 168.104 155.37C168.337 155.457 168.535 155.546 168.7 155.637C168.864 155.729 168.99 155.841 169.076 155.973C169.163 156.101 169.206 156.263 169.206 156.459ZM170.696 153.795C170.696 153.882 170.691 153.971 170.682 154.062C170.678 154.154 170.671 154.236 170.662 154.309H170.703C170.78 154.181 170.879 154.076 170.997 153.994C171.116 153.912 171.248 153.85 171.394 153.809C171.541 153.763 171.691 153.74 171.846 153.74C172.143 153.74 172.39 153.788 172.586 153.884C172.787 153.976 172.938 154.119 173.038 154.316C173.138 154.512 173.189 154.768 173.189 155.083V157.473H172.593V155.124C172.593 154.827 172.527 154.606 172.394 154.46C172.262 154.313 172.054 154.24 171.771 154.24C171.497 154.24 171.283 154.293 171.127 154.398C170.972 154.498 170.86 154.649 170.792 154.85C170.728 155.046 170.696 155.288 170.696 155.576V157.473H170.093V152.268H170.696V153.795ZM174.929 153.535C174.929 153.69 174.925 153.836 174.915 153.973C174.911 154.106 174.904 154.211 174.895 154.288H174.929C175.034 154.133 175.178 154.003 175.361 153.898C175.543 153.793 175.778 153.74 176.066 153.74C176.522 153.74 176.888 153.9 177.162 154.22C177.44 154.535 177.579 155.007 177.579 155.637C177.579 156.057 177.515 156.409 177.388 156.692C177.264 156.975 177.089 157.187 176.86 157.329C176.632 157.47 176.367 157.541 176.066 157.541C175.778 157.541 175.543 157.489 175.361 157.384C175.178 157.279 175.034 157.153 174.929 157.007H174.881L174.758 157.473H174.327V152.268H174.929V153.535ZM175.963 154.24C175.703 154.24 175.498 154.291 175.347 154.391C175.196 154.487 175.089 154.638 175.025 154.843C174.961 155.044 174.929 155.302 174.929 155.617V155.644C174.929 156.096 175.002 156.443 175.148 156.685C175.299 156.923 175.575 157.041 175.977 157.041C176.306 157.041 176.55 156.92 176.71 156.678C176.874 156.436 176.956 156.087 176.956 155.631C176.956 155.169 176.874 154.822 176.71 154.59C176.55 154.357 176.301 154.24 175.963 154.24ZM181.731 155.631C181.731 155.936 181.69 156.208 181.608 156.445C181.53 156.678 181.416 156.877 181.265 157.041C181.119 157.206 180.939 157.331 180.724 157.418C180.514 157.5 180.279 157.541 180.019 157.541C179.777 157.541 179.553 157.5 179.348 157.418C179.142 157.331 178.964 157.206 178.814 157.041C178.663 156.877 178.544 156.678 178.458 156.445C178.375 156.208 178.334 155.936 178.334 155.631C178.334 155.224 178.403 154.882 178.54 154.603C178.677 154.32 178.873 154.106 179.129 153.96C179.384 153.809 179.688 153.734 180.039 153.734C180.373 153.734 180.665 153.809 180.916 153.96C181.172 154.106 181.37 154.32 181.512 154.603C181.658 154.882 181.731 155.224 181.731 155.631ZM178.957 155.631C178.957 155.918 178.994 156.169 179.067 156.384C179.145 156.594 179.263 156.756 179.423 156.87C179.583 156.984 179.786 157.041 180.033 157.041C180.279 157.041 180.482 156.984 180.642 156.87C180.802 156.756 180.918 156.594 180.991 156.384C181.069 156.169 181.108 155.918 181.108 155.631C181.108 155.338 181.069 155.09 180.991 154.884C180.914 154.679 180.795 154.521 180.635 154.412C180.48 154.297 180.277 154.24 180.026 154.24C179.651 154.24 179.38 154.364 179.211 154.61C179.042 154.857 178.957 155.197 178.957 155.631ZM184.076 153.74C184.523 153.74 184.854 153.839 185.069 154.035C185.284 154.231 185.391 154.544 185.391 154.973V157.473H184.953L184.836 156.952H184.809C184.704 157.085 184.594 157.196 184.48 157.288C184.371 157.375 184.243 157.438 184.097 157.48C183.955 157.521 183.782 157.541 183.576 157.541C183.357 157.541 183.158 157.502 182.98 157.425C182.807 157.347 182.67 157.228 182.57 157.069C182.469 156.904 182.419 156.699 182.419 156.452C182.419 156.087 182.563 155.806 182.85 155.61C183.138 155.409 183.581 155.3 184.179 155.281L184.802 155.261V155.042C184.802 154.736 184.736 154.523 184.603 154.405C184.471 154.286 184.284 154.227 184.042 154.227C183.85 154.227 183.667 154.256 183.494 154.316C183.321 154.371 183.158 154.434 183.008 154.507L182.823 154.056C182.983 153.969 183.172 153.896 183.391 153.836C183.61 153.772 183.839 153.74 184.076 153.74ZM184.254 155.699C183.798 155.717 183.48 155.79 183.302 155.918C183.129 156.046 183.042 156.226 183.042 156.459C183.042 156.665 183.104 156.815 183.227 156.911C183.355 157.007 183.517 157.055 183.713 157.055C184.024 157.055 184.282 156.97 184.487 156.802C184.692 156.628 184.795 156.363 184.795 156.007V155.678L184.254 155.699ZM188.237 153.734C188.305 153.734 188.378 153.738 188.456 153.747C188.538 153.752 188.609 153.761 188.668 153.775L188.593 154.329C188.533 154.316 188.467 154.304 188.394 154.295C188.326 154.286 188.259 154.281 188.195 154.281C188.054 154.281 187.919 154.311 187.791 154.371C187.664 154.43 187.549 154.514 187.449 154.624C187.349 154.729 187.269 154.857 187.209 155.007C187.155 155.158 187.127 155.327 187.127 155.514V157.473H186.525V153.802H187.018L187.086 154.473H187.113C187.191 154.336 187.285 154.213 187.394 154.103C187.504 153.989 187.629 153.9 187.771 153.836C187.912 153.768 188.068 153.734 188.237 153.734ZM190.521 157.541C190.064 157.541 189.699 157.384 189.425 157.069C189.151 156.749 189.014 156.274 189.014 155.644C189.014 155.014 189.151 154.539 189.425 154.22C189.704 153.896 190.071 153.734 190.528 153.734C190.719 153.734 190.886 153.759 191.027 153.809C191.169 153.855 191.292 153.919 191.397 154.001C191.502 154.083 191.591 154.174 191.664 154.275H191.705C191.701 154.215 191.692 154.129 191.678 154.014C191.669 153.896 191.664 153.802 191.664 153.734V152.268H192.267V157.473H191.781L191.692 156.98H191.664C191.591 157.085 191.502 157.18 191.397 157.267C191.292 157.349 191.167 157.416 191.021 157.466C190.879 157.516 190.712 157.541 190.521 157.541ZM190.617 157.041C191.005 157.041 191.276 156.936 191.432 156.726C191.591 156.512 191.671 156.19 191.671 155.761V155.651C191.671 155.195 191.596 154.845 191.445 154.603C191.295 154.357 191.016 154.234 190.61 154.234C190.286 154.234 190.041 154.364 189.877 154.624C189.717 154.88 189.637 155.224 189.637 155.658C189.637 156.096 189.717 156.436 189.877 156.678C190.041 156.92 190.288 157.041 190.617 157.041ZM196.437 157.048C196.529 157.048 196.622 157.041 196.718 157.028C196.814 157.009 196.892 156.991 196.951 156.973V157.432C196.887 157.464 196.796 157.489 196.677 157.507C196.558 157.53 196.444 157.541 196.335 157.541C196.143 157.541 195.965 157.509 195.801 157.445C195.641 157.377 195.511 157.26 195.41 157.096C195.31 156.932 195.26 156.701 195.26 156.404V154.268H194.739V153.98L195.266 153.74L195.506 152.96H195.862V153.802H196.924V154.268H195.862V156.391C195.862 156.614 195.915 156.781 196.02 156.891C196.129 156.996 196.269 157.048 196.437 157.048ZM200.877 155.631C200.877 155.936 200.836 156.208 200.754 156.445C200.676 156.678 200.562 156.877 200.411 157.041C200.265 157.206 200.085 157.331 199.871 157.418C199.66 157.5 199.425 157.541 199.165 157.541C198.923 157.541 198.699 157.5 198.494 157.418C198.289 157.331 198.111 157.206 197.96 157.041C197.809 156.877 197.691 156.678 197.604 156.445C197.522 156.208 197.481 155.936 197.481 155.631C197.481 155.224 197.549 154.882 197.686 154.603C197.823 154.32 198.019 154.106 198.275 153.96C198.531 153.809 198.834 153.734 199.186 153.734C199.519 153.734 199.811 153.809 200.062 153.96C200.318 154.106 200.516 154.32 200.658 154.603C200.804 154.882 200.877 155.224 200.877 155.631ZM198.104 155.631C198.104 155.918 198.14 156.169 198.213 156.384C198.291 156.594 198.41 156.756 198.569 156.87C198.729 156.984 198.932 157.041 199.179 157.041C199.425 157.041 199.629 156.984 199.788 156.87C199.948 156.756 200.065 156.594 200.138 156.384C200.215 156.169 200.254 155.918 200.254 155.631C200.254 155.338 200.215 155.09 200.138 154.884C200.06 154.679 199.941 154.521 199.781 154.412C199.626 154.297 199.423 154.24 199.172 154.24C198.798 154.24 198.526 154.364 198.357 154.61C198.188 154.857 198.104 155.197 198.104 155.631ZM205.083 157.541C204.759 157.541 204.469 157.475 204.214 157.343C203.963 157.21 203.764 157.005 203.618 156.726C203.476 156.448 203.406 156.092 203.406 155.658C203.406 155.206 203.481 154.838 203.632 154.555C203.782 154.272 203.985 154.065 204.241 153.932C204.501 153.8 204.796 153.734 205.125 153.734C205.312 153.734 205.492 153.754 205.666 153.795C205.839 153.832 205.981 153.877 206.09 153.932L205.905 154.432C205.796 154.391 205.668 154.352 205.522 154.316C205.376 154.279 205.239 154.261 205.111 154.261C204.864 154.261 204.661 154.313 204.501 154.418C204.342 154.523 204.223 154.679 204.145 154.884C204.068 155.09 204.029 155.345 204.029 155.651C204.029 155.943 204.068 156.192 204.145 156.398C204.223 156.603 204.339 156.758 204.495 156.863C204.65 156.968 204.844 157.021 205.077 157.021C205.277 157.021 205.453 157 205.604 156.959C205.759 156.918 205.901 156.868 206.028 156.808V157.343C205.905 157.406 205.768 157.454 205.618 157.486C205.471 157.523 205.293 157.541 205.083 157.541ZM210.093 155.631C210.093 155.936 210.051 156.208 209.969 156.445C209.892 156.678 209.778 156.877 209.627 157.041C209.481 157.206 209.3 157.331 209.086 157.418C208.876 157.5 208.641 157.541 208.381 157.541C208.139 157.541 207.915 157.5 207.709 157.418C207.504 157.331 207.326 157.206 207.175 157.041C207.025 156.877 206.906 156.678 206.819 156.445C206.737 156.208 206.696 155.936 206.696 155.631C206.696 155.224 206.764 154.882 206.901 154.603C207.038 154.32 207.235 154.106 207.49 153.96C207.746 153.809 208.05 153.734 208.401 153.734C208.734 153.734 209.027 153.809 209.278 153.96C209.533 154.106 209.732 154.32 209.873 154.603C210.019 154.882 210.093 155.224 210.093 155.631ZM207.319 155.631C207.319 155.918 207.356 156.169 207.429 156.384C207.506 156.594 207.625 156.756 207.785 156.87C207.945 156.984 208.148 157.041 208.394 157.041C208.641 157.041 208.844 156.984 209.004 156.87C209.163 156.756 209.28 156.594 209.353 156.384C209.431 156.169 209.469 155.918 209.469 155.631C209.469 155.338 209.431 155.09 209.353 154.884C209.275 154.679 209.157 154.521 208.997 154.412C208.842 154.297 208.638 154.24 208.387 154.24C208.013 154.24 207.741 154.364 207.572 154.61C207.404 154.857 207.319 155.197 207.319 155.631ZM215.074 153.734C215.49 153.734 215.8 153.841 216.006 154.056C216.211 154.266 216.314 154.608 216.314 155.083V157.473H215.718V155.11C215.718 154.822 215.656 154.606 215.533 154.46C215.414 154.313 215.227 154.24 214.972 154.24C214.615 154.24 214.36 154.343 214.205 154.549C214.054 154.754 213.979 155.053 213.979 155.446V157.473H213.383V155.11C213.383 154.918 213.355 154.759 213.301 154.631C213.246 154.498 213.164 154.4 213.054 154.336C212.945 154.272 212.803 154.24 212.63 154.24C212.383 154.24 212.189 154.293 212.047 154.398C211.906 154.498 211.803 154.647 211.739 154.843C211.68 155.039 211.65 155.281 211.65 155.569V157.473H211.048V153.802H211.534L211.623 154.302H211.657C211.735 154.174 211.828 154.069 211.938 153.987C212.052 153.9 212.178 153.836 212.315 153.795C212.451 153.754 212.593 153.734 212.739 153.734C213.022 153.734 213.257 153.784 213.444 153.884C213.636 153.985 213.775 154.14 213.862 154.35H213.896C214.02 154.14 214.186 153.985 214.396 153.884C214.611 153.784 214.837 153.734 215.074 153.734ZM219.194 153.734C219.646 153.734 220.009 153.891 220.283 154.206C220.561 154.521 220.7 154.996 220.7 155.631C220.7 156.046 220.636 156.398 220.509 156.685C220.385 156.968 220.21 157.183 219.981 157.329C219.758 157.47 219.493 157.541 219.187 157.541C219 157.541 218.833 157.516 218.687 157.466C218.541 157.416 218.415 157.352 218.31 157.274C218.21 157.192 218.123 157.103 218.05 157.007H218.009C218.018 157.085 218.027 157.183 218.036 157.301C218.046 157.42 218.05 157.523 218.05 157.61V159.116H217.448V153.802H217.941L218.023 154.302H218.05C218.123 154.197 218.21 154.101 218.31 154.014C218.415 153.928 218.539 153.859 218.68 153.809C218.826 153.759 218.997 153.734 219.194 153.734ZM219.084 154.24C218.838 154.24 218.639 154.288 218.488 154.384C218.338 154.476 218.228 154.615 218.16 154.802C218.091 154.989 218.055 155.227 218.05 155.514V155.631C218.05 155.932 218.082 156.188 218.146 156.398C218.21 156.608 218.317 156.767 218.468 156.877C218.623 156.986 218.833 157.041 219.098 157.041C219.322 157.041 219.504 156.98 219.646 156.856C219.792 156.733 219.899 156.566 219.968 156.356C220.041 156.142 220.077 155.898 220.077 155.624C220.077 155.204 219.995 154.868 219.831 154.617C219.671 154.366 219.422 154.24 219.084 154.24ZM222.263 157.473H221.661V152.268H222.263V157.473ZM224.844 153.734C225.159 153.734 225.428 153.802 225.652 153.939C225.88 154.076 226.054 154.27 226.172 154.521C226.295 154.768 226.357 155.058 226.357 155.391V155.754H223.844C223.853 156.169 223.958 156.487 224.159 156.706C224.364 156.92 224.65 157.028 225.015 157.028C225.248 157.028 225.453 157.007 225.631 156.966C225.814 156.92 226.001 156.856 226.193 156.774V157.301C226.006 157.384 225.821 157.443 225.638 157.48C225.455 157.521 225.239 157.541 224.988 157.541C224.641 157.541 224.332 157.47 224.063 157.329C223.798 157.187 223.591 156.977 223.44 156.699C223.294 156.416 223.221 156.071 223.221 155.665C223.221 155.263 223.287 154.918 223.419 154.631C223.556 154.343 223.746 154.122 223.988 153.966C224.234 153.811 224.52 153.734 224.844 153.734ZM224.837 154.227C224.549 154.227 224.321 154.32 224.152 154.507C223.988 154.69 223.89 154.946 223.858 155.274H225.727C225.727 155.064 225.695 154.882 225.631 154.727C225.567 154.571 225.469 154.45 225.337 154.364C225.209 154.272 225.042 154.227 224.837 154.227ZM228.517 157.048C228.609 157.048 228.702 157.041 228.798 157.028C228.894 157.009 228.972 156.991 229.031 156.973V157.432C228.967 157.464 228.876 157.489 228.757 157.507C228.638 157.53 228.524 157.541 228.415 157.541C228.223 157.541 228.045 157.509 227.88 157.445C227.721 157.377 227.591 157.26 227.49 157.096C227.39 156.932 227.339 156.701 227.339 156.404V154.268H226.819V153.98L227.346 153.74L227.586 152.96H227.942V153.802H229.004V154.268H227.942V156.391C227.942 156.614 227.995 156.781 228.1 156.891C228.209 156.996 228.348 157.048 228.517 157.048ZM231.183 153.734C231.498 153.734 231.768 153.802 231.992 153.939C232.22 154.076 232.393 154.27 232.512 154.521C232.635 154.768 232.697 155.058 232.697 155.391V155.754H230.184C230.193 156.169 230.298 156.487 230.499 156.706C230.704 156.92 230.989 157.028 231.355 157.028C231.588 157.028 231.793 157.007 231.971 156.966C232.154 156.92 232.341 156.856 232.533 156.774V157.301C232.345 157.384 232.16 157.443 231.978 157.48C231.795 157.521 231.578 157.541 231.327 157.541C230.98 157.541 230.672 157.47 230.403 157.329C230.138 157.187 229.93 156.977 229.78 156.699C229.634 156.416 229.56 156.071 229.56 155.665C229.56 155.263 229.627 154.918 229.759 154.631C229.896 154.343 230.086 154.122 230.327 153.966C230.574 153.811 230.859 153.734 231.183 153.734ZM231.177 154.227C230.889 154.227 230.661 154.32 230.492 154.507C230.327 154.69 230.229 154.946 230.197 155.274H232.067C232.067 155.064 232.035 154.882 231.971 154.727C231.907 154.571 231.809 154.45 231.677 154.364C231.549 154.272 231.382 154.227 231.177 154.227ZM131.319 164.802H131.963L132.757 166.891C132.803 167.014 132.844 167.133 132.88 167.247C132.922 167.361 132.958 167.473 132.99 167.582C133.022 167.687 133.047 167.79 133.065 167.891H133.093C133.12 167.776 133.164 167.628 133.223 167.445C133.282 167.258 133.344 167.071 133.408 166.884L134.154 164.802H134.805L133.223 168.979C133.136 169.208 133.033 169.406 132.915 169.575C132.801 169.749 132.659 169.881 132.49 169.972C132.326 170.068 132.125 170.116 131.888 170.116C131.778 170.116 131.682 170.109 131.6 170.096C131.518 170.087 131.447 170.075 131.388 170.061V169.582C131.438 169.591 131.497 169.6 131.566 169.609C131.639 169.619 131.714 169.623 131.792 169.623C131.933 169.623 132.054 169.596 132.155 169.541C132.26 169.491 132.349 169.415 132.422 169.315C132.495 169.219 132.556 169.105 132.607 168.973L132.798 168.486L131.319 164.802ZM138.576 166.631C138.576 166.936 138.535 167.208 138.453 167.445C138.376 167.678 138.261 167.877 138.111 168.041C137.965 168.206 137.784 168.331 137.57 168.418C137.36 168.5 137.125 168.541 136.864 168.541C136.622 168.541 136.399 168.5 136.193 168.418C135.988 168.331 135.81 168.206 135.659 168.041C135.509 167.877 135.39 167.678 135.303 167.445C135.221 167.208 135.18 166.936 135.18 166.631C135.18 166.224 135.248 165.882 135.385 165.603C135.522 165.32 135.719 165.106 135.974 164.96C136.23 164.809 136.533 164.734 136.885 164.734C137.218 164.734 137.51 164.809 137.762 164.96C138.017 165.106 138.216 165.32 138.357 165.603C138.503 165.882 138.576 166.224 138.576 166.631ZM135.803 166.631C135.803 166.918 135.839 167.169 135.913 167.384C135.99 167.594 136.109 167.756 136.269 167.87C136.428 167.984 136.632 168.041 136.878 168.041C137.125 168.041 137.328 167.984 137.488 167.87C137.647 167.756 137.764 167.594 137.837 167.384C137.914 167.169 137.953 166.918 137.953 166.631C137.953 166.338 137.914 166.09 137.837 165.884C137.759 165.679 137.641 165.521 137.481 165.412C137.326 165.297 137.122 165.24 136.871 165.24C136.497 165.24 136.225 165.364 136.056 165.61C135.887 165.857 135.803 166.197 135.803 166.631ZM142.599 164.802V168.473H142.106L142.017 167.986H141.99C141.912 168.114 141.812 168.219 141.689 168.301C141.565 168.384 141.431 168.443 141.285 168.48C141.138 168.521 140.986 168.541 140.826 168.541C140.534 168.541 140.287 168.495 140.086 168.404C139.89 168.308 139.742 168.162 139.641 167.966C139.541 167.77 139.49 167.516 139.49 167.206V164.802H140.1V167.165C140.1 167.457 140.166 167.676 140.298 167.822C140.431 167.968 140.636 168.041 140.915 168.041C141.189 168.041 141.403 167.991 141.559 167.891C141.718 167.786 141.83 167.635 141.894 167.439C141.963 167.238 141.997 166.996 141.997 166.713V164.802H142.599ZM145.477 164.734C145.545 164.734 145.618 164.738 145.696 164.747C145.778 164.752 145.849 164.761 145.908 164.775L145.833 165.329C145.773 165.316 145.707 165.304 145.634 165.295C145.566 165.286 145.5 165.281 145.436 165.281C145.294 165.281 145.159 165.311 145.032 165.371C144.904 165.43 144.79 165.514 144.689 165.624C144.589 165.729 144.509 165.857 144.449 166.007C144.395 166.158 144.367 166.327 144.367 166.514V168.473H143.765V164.802H144.258L144.326 165.473H144.354C144.431 165.336 144.525 165.213 144.634 165.103C144.744 164.989 144.869 164.9 145.011 164.836C145.153 164.768 145.308 164.734 145.477 164.734ZM151.564 166.631C151.564 166.936 151.522 167.208 151.44 167.445C151.363 167.678 151.249 167.877 151.098 168.041C150.952 168.206 150.771 168.331 150.557 168.418C150.347 168.5 150.112 168.541 149.852 168.541C149.61 168.541 149.386 168.5 149.18 168.418C148.975 168.331 148.797 168.206 148.646 168.041C148.496 167.877 148.377 167.678 148.29 167.445C148.208 167.208 148.167 166.936 148.167 166.631C148.167 166.224 148.235 165.882 148.372 165.603C148.509 165.32 148.706 165.106 148.961 164.96C149.217 164.809 149.521 164.734 149.872 164.734C150.205 164.734 150.498 164.809 150.749 164.96C151.004 165.106 151.203 165.32 151.344 165.603C151.49 165.882 151.564 166.224 151.564 166.631ZM148.79 166.631C148.79 166.918 148.827 167.169 148.9 167.384C148.977 167.594 149.096 167.756 149.256 167.87C149.416 167.984 149.619 168.041 149.865 168.041C150.112 168.041 150.315 167.984 150.475 167.87C150.634 167.756 150.751 167.594 150.824 167.384C150.902 167.169 150.94 166.918 150.94 166.631C150.94 166.338 150.902 166.09 150.824 165.884C150.746 165.679 150.628 165.521 150.468 165.412C150.313 165.297 150.109 165.24 149.858 165.24C149.484 165.24 149.212 165.364 149.043 165.61C148.875 165.857 148.79 166.197 148.79 166.631ZM154.285 164.734C154.724 164.734 155.055 164.841 155.278 165.056C155.502 165.266 155.614 165.608 155.614 166.083V168.473H155.018V166.124C155.018 165.827 154.952 165.606 154.82 165.46C154.687 165.313 154.479 165.24 154.196 165.24C153.79 165.24 153.509 165.355 153.354 165.583C153.199 165.811 153.121 166.14 153.121 166.569V168.473H152.519V164.802H153.005L153.094 165.302H153.128C153.21 165.174 153.311 165.069 153.429 164.987C153.553 164.9 153.687 164.836 153.833 164.795C153.98 164.754 154.13 164.734 154.285 164.734ZM157.354 164.535C157.354 164.69 157.35 164.836 157.341 164.973C157.336 165.106 157.329 165.211 157.32 165.288H157.354C157.459 165.133 157.603 165.003 157.786 164.898C157.968 164.793 158.204 164.74 158.491 164.74C158.948 164.74 159.313 164.9 159.587 165.22C159.865 165.535 160.005 166.007 160.005 166.637C160.005 167.057 159.941 167.409 159.813 167.692C159.69 167.975 159.514 168.187 159.286 168.329C159.057 168.47 158.793 168.541 158.491 168.541C158.204 168.541 157.968 168.489 157.786 168.384C157.603 168.279 157.459 168.153 157.354 168.007H157.306L157.183 168.473H156.752V163.268H157.354V164.535ZM158.388 165.24C158.128 165.24 157.923 165.291 157.772 165.391C157.622 165.487 157.514 165.638 157.45 165.843C157.386 166.044 157.354 166.302 157.354 166.617V166.644C157.354 167.096 157.427 167.443 157.574 167.685C157.724 167.923 158 168.041 158.402 168.041C158.731 168.041 158.975 167.92 159.135 167.678C159.299 167.436 159.381 167.087 159.381 166.631C159.381 166.169 159.299 165.822 159.135 165.59C158.975 165.357 158.726 165.24 158.388 165.24ZM164.156 166.631C164.156 166.936 164.115 167.208 164.033 167.445C163.955 167.678 163.841 167.877 163.69 168.041C163.544 168.206 163.364 168.331 163.149 168.418C162.939 168.5 162.704 168.541 162.444 168.541C162.202 168.541 161.978 168.5 161.773 168.418C161.568 168.331 161.39 168.206 161.239 168.041C161.088 167.877 160.97 167.678 160.883 167.445C160.801 167.208 160.759 166.936 160.759 166.631C160.759 166.224 160.828 165.882 160.965 165.603C161.102 165.32 161.298 165.106 161.554 164.96C161.81 164.809 162.113 164.734 162.465 164.734C162.798 164.734 163.09 164.809 163.341 164.96C163.597 165.106 163.795 165.32 163.937 165.603C164.083 165.882 164.156 166.224 164.156 166.631ZM161.383 166.631C161.383 166.918 161.419 167.169 161.492 167.384C161.57 167.594 161.689 167.756 161.848 167.87C162.008 167.984 162.211 168.041 162.458 168.041C162.704 168.041 162.907 167.984 163.067 167.87C163.227 167.756 163.343 167.594 163.417 167.384C163.494 167.169 163.533 166.918 163.533 166.631C163.533 166.338 163.494 166.09 163.417 165.884C163.339 165.679 163.22 165.521 163.06 165.412C162.905 165.297 162.702 165.24 162.451 165.24C162.077 165.24 161.805 165.364 161.636 165.61C161.467 165.857 161.383 166.197 161.383 166.631ZM166.501 164.74C166.949 164.74 167.28 164.839 167.494 165.035C167.709 165.231 167.816 165.544 167.816 165.973V168.473H167.378L167.261 167.952H167.234C167.129 168.085 167.019 168.196 166.905 168.288C166.796 168.375 166.668 168.438 166.522 168.48C166.38 168.521 166.207 168.541 166.001 168.541C165.782 168.541 165.584 168.502 165.406 168.425C165.232 168.347 165.095 168.228 164.995 168.069C164.894 167.904 164.844 167.699 164.844 167.452C164.844 167.087 164.988 166.806 165.276 166.61C165.563 166.409 166.006 166.3 166.604 166.281L167.227 166.261V166.042C167.227 165.736 167.161 165.523 167.029 165.405C166.896 165.286 166.709 165.227 166.467 165.227C166.275 165.227 166.093 165.256 165.919 165.316C165.746 165.371 165.584 165.434 165.433 165.507L165.248 165.056C165.408 164.969 165.597 164.896 165.817 164.836C166.036 164.772 166.264 164.74 166.501 164.74ZM166.679 166.699C166.223 166.717 165.906 166.79 165.728 166.918C165.554 167.046 165.467 167.226 165.467 167.459C165.467 167.665 165.529 167.815 165.652 167.911C165.78 168.007 165.942 168.055 166.138 168.055C166.449 168.055 166.707 167.97 166.912 167.802C167.118 167.628 167.22 167.363 167.22 167.007V166.678L166.679 166.699ZM170.662 164.734C170.73 164.734 170.803 164.738 170.881 164.747C170.963 164.752 171.034 164.761 171.093 164.775L171.018 165.329C170.959 165.316 170.892 165.304 170.819 165.295C170.751 165.286 170.685 165.281 170.621 165.281C170.479 165.281 170.345 165.311 170.217 165.371C170.089 165.43 169.975 165.514 169.874 165.624C169.774 165.729 169.694 165.857 169.635 166.007C169.58 166.158 169.552 166.327 169.552 166.514V168.473H168.95V164.802H169.443L169.511 165.473H169.539C169.616 165.336 169.71 165.213 169.82 165.103C169.929 164.989 170.055 164.9 170.196 164.836C170.338 164.768 170.493 164.734 170.662 164.734ZM172.946 168.541C172.489 168.541 172.124 168.384 171.85 168.069C171.576 167.749 171.439 167.274 171.439 166.644C171.439 166.014 171.576 165.539 171.85 165.22C172.129 164.896 172.496 164.734 172.953 164.734C173.145 164.734 173.311 164.759 173.453 164.809C173.594 164.855 173.718 164.919 173.823 165.001C173.928 165.083 174.017 165.174 174.09 165.275H174.131C174.126 165.215 174.117 165.129 174.103 165.014C174.094 164.896 174.09 164.802 174.09 164.734V163.268H174.692V168.473H174.206L174.117 167.98H174.09C174.017 168.085 173.928 168.18 173.823 168.267C173.718 168.349 173.592 168.416 173.446 168.466C173.304 168.516 173.138 168.541 172.946 168.541ZM173.042 168.041C173.43 168.041 173.702 167.936 173.857 167.726C174.017 167.512 174.096 167.19 174.096 166.761V166.651C174.096 166.195 174.021 165.845 173.87 165.603C173.72 165.357 173.441 165.234 173.035 165.234C172.711 165.234 172.467 165.364 172.302 165.624C172.142 165.88 172.063 166.224 172.063 166.658C172.063 167.096 172.142 167.436 172.302 167.678C172.467 167.92 172.713 168.041 173.042 168.041ZM176.461 164.802V168.473H175.858V164.802H176.461ZM176.166 163.426C176.257 163.426 176.337 163.458 176.406 163.522C176.479 163.581 176.515 163.677 176.515 163.809C176.515 163.937 176.479 164.033 176.406 164.097C176.337 164.161 176.257 164.193 176.166 164.193C176.066 164.193 175.981 164.161 175.913 164.097C175.844 164.033 175.81 163.937 175.81 163.809C175.81 163.677 175.844 163.581 175.913 163.522C175.981 163.458 176.066 163.426 176.166 163.426ZM179.39 164.734C179.829 164.734 180.16 164.841 180.383 165.056C180.607 165.266 180.719 165.608 180.719 166.083V168.473H180.123V166.124C180.123 165.827 180.057 165.606 179.924 165.46C179.792 165.313 179.584 165.24 179.301 165.24C178.895 165.24 178.614 165.355 178.459 165.583C178.304 165.811 178.226 166.14 178.226 166.569V168.473H177.623V164.802H178.11L178.199 165.302H178.233C178.315 165.174 178.416 165.069 178.534 164.987C178.658 164.9 178.792 164.836 178.938 164.795C179.084 164.754 179.235 164.734 179.39 164.734ZM183.158 164.734C183.4 164.734 183.617 164.779 183.808 164.871C184.005 164.962 184.171 165.101 184.308 165.288H184.343L184.425 164.802H184.904V168.534C184.904 168.881 184.845 169.171 184.726 169.404C184.607 169.641 184.427 169.819 184.185 169.938C183.943 170.057 183.635 170.116 183.261 170.116C182.996 170.116 182.751 170.096 182.528 170.055C182.309 170.018 182.112 169.961 181.939 169.883V169.329C182.058 169.388 182.188 169.438 182.329 169.479C182.471 169.525 182.624 169.559 182.788 169.582C182.952 169.605 183.121 169.616 183.295 169.616C183.61 169.616 183.856 169.523 184.034 169.336C184.217 169.153 184.308 168.902 184.308 168.582V168.438C184.308 168.384 184.311 168.306 184.315 168.206C184.32 168.101 184.324 168.028 184.329 167.986H184.301C184.174 168.174 184.014 168.313 183.822 168.404C183.635 168.495 183.416 168.541 183.165 168.541C182.69 168.541 182.318 168.375 182.048 168.041C181.784 167.708 181.651 167.242 181.651 166.644C181.651 166.252 181.711 165.914 181.829 165.631C181.953 165.343 182.126 165.122 182.35 164.966C182.573 164.811 182.843 164.734 183.158 164.734ZM183.24 165.24C183.035 165.24 182.859 165.295 182.713 165.405C182.571 165.514 182.462 165.674 182.384 165.884C182.311 166.094 182.274 166.35 182.274 166.651C182.274 167.103 182.357 167.45 182.521 167.692C182.69 167.929 182.934 168.048 183.254 168.048C183.441 168.048 183.601 168.025 183.733 167.98C183.865 167.929 183.975 167.854 184.062 167.754C184.148 167.649 184.212 167.516 184.253 167.356C184.295 167.197 184.315 167.007 184.315 166.788V166.644C184.315 166.311 184.276 166.042 184.199 165.836C184.126 165.631 184.009 165.48 183.849 165.384C183.69 165.288 183.487 165.24 183.24 165.24Z" fill="#535768"/>
<rect width="256.8" height="55.224" transform="translate(30 188.775)" fill="white"/>
<rect x="185.792" y="202.471" width="77.04" height="20.984" rx="1.712" fill="#1D8EE6"/>
<path d="M214.554 211.185C215.113 211.185 215.52 211.294 215.776 211.514C216.032 211.734 216.16 212.043 216.16 212.443C216.16 212.619 216.13 212.788 216.07 212.952C216.014 213.112 215.92 213.256 215.788 213.384C215.656 213.511 215.48 213.613 215.261 213.689C215.041 213.761 214.771 213.797 214.452 213.797H213.961V215.463H213.421V211.185H214.554ZM214.506 211.646H213.961V213.336H214.392C214.664 213.336 214.889 213.308 215.069 213.252C215.249 213.192 215.383 213.098 215.471 212.97C215.558 212.842 215.602 212.675 215.602 212.467C215.602 212.191 215.514 211.986 215.339 211.85C215.163 211.714 214.885 211.646 214.506 211.646ZM218.475 212.191C218.535 212.191 218.599 212.195 218.667 212.203C218.739 212.207 218.801 212.215 218.853 212.227L218.787 212.713C218.735 212.701 218.677 212.691 218.613 212.683C218.553 212.675 218.495 212.671 218.439 212.671C218.316 212.671 218.198 212.697 218.086 212.749C217.974 212.8 217.874 212.874 217.786 212.97C217.698 213.062 217.628 213.174 217.577 213.306C217.529 213.438 217.505 213.585 217.505 213.749V215.463H216.977V212.251H217.409L217.469 212.838H217.493C217.561 212.719 217.642 212.611 217.738 212.515C217.834 212.415 217.944 212.337 218.068 212.281C218.192 212.221 218.328 212.191 218.475 212.191ZM222.128 213.851C222.128 214.119 222.092 214.356 222.02 214.564C221.952 214.768 221.852 214.942 221.72 215.085C221.592 215.229 221.435 215.339 221.247 215.415C221.063 215.487 220.857 215.523 220.63 215.523C220.418 215.523 220.222 215.487 220.043 215.415C219.863 215.339 219.707 215.229 219.575 215.085C219.443 214.942 219.339 214.768 219.264 214.564C219.192 214.356 219.156 214.119 219.156 213.851C219.156 213.496 219.216 213.196 219.335 212.952C219.455 212.705 219.627 212.517 219.851 212.389C220.075 212.257 220.34 212.191 220.648 212.191C220.939 212.191 221.195 212.257 221.415 212.389C221.638 212.517 221.812 212.705 221.936 212.952C222.064 213.196 222.128 213.496 222.128 213.851ZM219.701 213.851C219.701 214.103 219.733 214.322 219.797 214.51C219.865 214.694 219.969 214.836 220.108 214.936C220.248 215.035 220.426 215.085 220.642 215.085C220.857 215.085 221.035 215.035 221.175 214.936C221.315 214.836 221.417 214.694 221.481 214.51C221.549 214.322 221.582 214.103 221.582 213.851C221.582 213.595 221.549 213.378 221.481 213.198C221.413 213.018 221.309 212.88 221.169 212.784C221.033 212.685 220.855 212.635 220.636 212.635C220.308 212.635 220.071 212.743 219.923 212.958C219.775 213.174 219.701 213.472 219.701 213.851ZM224.252 215.523C223.968 215.523 223.714 215.465 223.491 215.349C223.271 215.233 223.097 215.053 222.969 214.81C222.846 214.566 222.784 214.255 222.784 213.875C222.784 213.48 222.85 213.158 222.981 212.91C223.113 212.663 223.291 212.481 223.515 212.365C223.742 212.249 224 212.191 224.288 212.191C224.451 212.191 224.609 212.209 224.761 212.245C224.913 212.277 225.037 212.317 225.133 212.365L224.971 212.802C224.875 212.766 224.763 212.733 224.635 212.701C224.507 212.669 224.388 212.653 224.276 212.653C224.06 212.653 223.882 212.699 223.742 212.79C223.603 212.882 223.499 213.018 223.431 213.198C223.363 213.378 223.329 213.601 223.329 213.869C223.329 214.125 223.363 214.342 223.431 214.522C223.499 214.702 223.601 214.838 223.736 214.93C223.872 215.021 224.042 215.067 224.246 215.067C224.422 215.067 224.575 215.049 224.707 215.013C224.843 214.978 224.967 214.934 225.079 214.882V215.349C224.971 215.405 224.851 215.447 224.719 215.475C224.591 215.507 224.435 215.523 224.252 215.523ZM227.083 212.191C227.358 212.191 227.594 212.251 227.79 212.371C227.99 212.491 228.141 212.661 228.245 212.88C228.353 213.096 228.407 213.35 228.407 213.641V213.959H226.208C226.216 214.322 226.308 214.6 226.484 214.792C226.663 214.98 226.913 215.073 227.233 215.073C227.436 215.073 227.616 215.055 227.772 215.019C227.932 214.98 228.095 214.924 228.263 214.852V215.313C228.099 215.385 227.938 215.437 227.778 215.469C227.618 215.505 227.428 215.523 227.209 215.523C226.905 215.523 226.635 215.461 226.4 215.337C226.168 215.213 225.986 215.029 225.854 214.786C225.727 214.538 225.663 214.237 225.663 213.881C225.663 213.529 225.721 213.228 225.836 212.976C225.956 212.725 226.122 212.531 226.334 212.395C226.549 212.259 226.799 212.191 227.083 212.191ZM227.077 212.623C226.825 212.623 226.625 212.705 226.478 212.868C226.334 213.028 226.248 213.252 226.22 213.539H227.856C227.856 213.356 227.828 213.196 227.772 213.06C227.716 212.924 227.63 212.818 227.514 212.743C227.402 212.663 227.257 212.623 227.077 212.623ZM230.465 212.191C230.741 212.191 230.976 212.251 231.172 212.371C231.372 212.491 231.524 212.661 231.627 212.88C231.735 213.096 231.789 213.35 231.789 213.641V213.959H229.59C229.598 214.322 229.69 214.6 229.866 214.792C230.046 214.98 230.295 215.073 230.615 215.073C230.819 215.073 230.998 215.055 231.154 215.019C231.314 214.98 231.478 214.924 231.645 214.852V215.313C231.482 215.385 231.32 215.437 231.16 215.469C231 215.505 230.811 215.523 230.591 215.523C230.287 215.523 230.018 215.461 229.782 215.337C229.55 215.213 229.368 215.029 229.237 214.786C229.109 214.538 229.045 214.237 229.045 213.881C229.045 213.529 229.103 213.228 229.219 212.976C229.338 212.725 229.504 212.531 229.716 212.395C229.932 212.259 230.181 212.191 230.465 212.191ZM230.459 212.623C230.207 212.623 230.008 212.705 229.86 212.868C229.716 213.028 229.63 213.252 229.602 213.539H231.238C231.238 213.356 231.21 213.196 231.154 213.06C231.098 212.924 231.012 212.818 230.896 212.743C230.785 212.663 230.639 212.623 230.459 212.623ZM233.745 215.523C233.346 215.523 233.026 215.385 232.787 215.109C232.547 214.83 232.427 214.414 232.427 213.863C232.427 213.312 232.547 212.896 232.787 212.617C233.03 212.333 233.352 212.191 233.751 212.191C233.919 212.191 234.065 212.213 234.189 212.257C234.313 212.297 234.42 212.353 234.512 212.425C234.604 212.497 234.682 212.577 234.746 212.665H234.782C234.778 212.613 234.77 212.537 234.758 212.437C234.75 212.333 234.746 212.251 234.746 212.191V210.909H235.273V215.463H234.848L234.77 215.031H234.746C234.682 215.123 234.604 215.207 234.512 215.283C234.42 215.355 234.311 215.413 234.183 215.457C234.059 215.501 233.913 215.523 233.745 215.523ZM233.829 215.085C234.169 215.085 234.406 214.994 234.542 214.81C234.682 214.622 234.752 214.34 234.752 213.965V213.869C234.752 213.47 234.686 213.164 234.554 212.952C234.422 212.737 234.179 212.629 233.823 212.629C233.54 212.629 233.326 212.743 233.182 212.97C233.042 213.194 232.972 213.496 232.972 213.875C232.972 214.258 233.042 214.556 233.182 214.768C233.326 214.98 233.542 215.085 233.829 215.085Z" fill="white"/>
</g>
</g>
<defs>
<filter id="filter0_d_7_21979" x="0" y="0" width="316.8" height="274" filterUnits="userSpaceOnUse" color-interpolation-filters="sRGB">
<feFlood flood-opacity="0" result="BackgroundImageFix"/>
<feColorMatrix in="SourceAlpha" type="matrix" values="0 0 0 0 0 0 0 0 0 0 0 0 0 0 0 0 0 0 127 0" result="hardAlpha"/>
<feOffset/>
<feGaussianBlur stdDeviation="15"/>
<feComposite in2="hardAlpha" operator="out"/>
<feColorMatrix type="matrix" values="0 0 0 0 0 0 0 0 0 0 0 0 0 0 0 0 0 0 0.09 0"/>
<feBlend mode="normal" in2="BackgroundImageFix" result="effect1_dropShadow_7_21979"/>
<feBlend mode="normal" in="SourceGraphic" in2="effect1_dropShadow_7_21979" result="shape"/>
</filter>
<clipPath id="clip0_7_21979">
<rect x="30" y="30" width="256.8" height="214" rx="3.424" fill="white"/>
</clipPath>
</defs>
</svg>
