<svg width="94" height="94" viewBox="0 0 94 94" fill="none" xmlns="http://www.w3.org/2000/svg">
<rect width="93.1727" height="93.1727" rx="46.5863" fill="#F8C8C7" fill-opacity="0.6"/>
<path opacity="0.3" fill-rule="evenodd" clip-rule="evenodd" d="M25.6226 64.7524C25.6226 66.2962 26.874 67.5476 28.4177 67.5476H69.4137C70.9575 67.5476 72.2089 66.2962 72.2089 64.7524V37.7324C72.2089 36.1886 70.9575 34.9372 69.4137 34.9372H44.2571L38.0878 28.7679C37.5636 28.2437 36.8527 27.9492 36.1113 27.9492H28.4177C26.874 27.9492 25.6226 29.2007 25.6226 30.7444V64.7524Z" fill="#FF5A4F"/>
<path fill-rule="evenodd" clip-rule="evenodd" d="M20.9639 60.0942C20.9639 61.638 22.2153 62.8894 23.759 62.8894H64.755C66.2988 62.8894 67.5502 61.638 67.5502 60.0942V33.0741C67.5502 31.5304 66.2988 30.279 64.755 30.279H39.5984L33.4291 24.1097C32.9049 23.5855 32.194 23.291 31.4527 23.291H23.759C22.2153 23.291 20.9639 24.5425 20.9639 26.0862V60.0942Z" fill="#FF5A4F"/>
</svg>
