<svg width="94" height="94" viewBox="0 0 94 94" fill="none" xmlns="http://www.w3.org/2000/svg">
<rect width="93.1727" height="93.1727" rx="46.5863" fill="#27AAE1" fill-opacity="0.1"/>
<path opacity="0.3" d="M60.5625 37.2676C64.4218 37.2676 67.5508 40.3966 67.5508 44.2559C67.5507 48.1151 64.4217 51.2431 60.5625 51.2432C56.7032 51.2432 53.5743 48.1151 53.5742 44.2559C53.5742 40.3965 56.7032 37.2676 60.5625 37.2676ZM39.5986 25.6211C44.7444 25.6212 48.916 29.7927 48.916 34.9385C48.916 40.0842 44.7443 44.2558 39.5986 44.2559C34.4529 44.2559 30.2813 40.0842 30.2812 34.9385C30.2812 29.7927 34.4528 25.6211 39.5986 25.6211Z" fill="#1D8EE6"/>
<path d="M39.5601 48.9141C50.7123 48.9142 59.8746 54.2562 60.5571 65.6855C60.5843 66.1413 60.5565 67.5488 58.8071 67.5488H20.3296C19.7455 67.5488 18.5874 66.2893 18.6362 65.6836C19.5391 54.5665 28.5624 48.9141 39.5601 48.9141ZM59.6343 53.5762C67.5683 53.6633 74.0468 57.6729 74.5347 66.1504C74.5543 66.4918 74.5343 67.5486 73.271 67.5488H64.2886C64.2885 62.3067 62.5568 57.4686 59.6343 53.5762Z" fill="#1D8EE6"/>
</svg>
