<svg width="94" height="94" viewBox="0 0 94 94" fill="none" xmlns="http://www.w3.org/2000/svg">
<rect width="93.1727" height="93.1727" rx="46.5863" fill="#DBF1FA"/>
<path d="M68.9478 28.8535C72.0351 28.8536 74.5376 31.5235 74.5376 34.8164V39.749C74.5376 42.382 72.9186 44.7032 70.5542 45.46L49.7983 52.1016C47.7029 52.7719 45.469 52.772 43.3735 52.1016L22.6187 45.46C20.254 44.7034 18.6343 42.3821 18.6343 39.749V34.8164C18.6343 31.5234 21.1376 28.8535 24.2251 28.8535H68.9478ZM46.5864 34.3574C43.9819 34.3574 41.8707 36.4688 41.8706 39.0732V44.1836C41.8706 46.7881 43.9819 48.8994 46.5864 48.8994C49.1908 48.8992 51.3022 46.788 51.3022 44.1836V39.0732C51.3022 36.4689 49.1908 34.3576 46.5864 34.3574Z" fill="#70D7FF"/>
<path opacity="0.3" d="M74.311 60.3779C74.3108 68.1986 68.3663 74.5381 61.0337 74.5381H32.1509C24.8183 74.5381 18.8738 68.1986 18.8735 60.3779V48.4863C19.6453 49.0242 20.4973 49.4519 21.4136 49.7451L42.1685 56.3867C45.0499 57.3087 48.1219 57.3086 51.0034 56.3867L71.7593 49.7451C72.6803 49.4504 73.5361 49.0194 74.311 48.4775V60.3779ZM46.5923 46.9629L74.1274 41.9902C73.5042 43.6292 72.2134 44.9309 70.5542 45.4619L49.7993 52.1035C47.7037 52.7741 45.4692 52.774 43.3735 52.1035L22.6187 45.4619C20.9585 44.9307 19.6664 43.6283 19.0435 41.9883L46.5923 46.9629ZM46.5923 51.4346L46.5083 51.416L46.5923 51.4404L46.6753 51.416L46.5923 51.4346Z" fill="#70D7FF"/>
<path d="M55.907 28.8542V27.9501C55.907 22.8043 51.7355 18.6328 46.5897 18.6328C41.4439 18.6328 37.2725 22.8043 37.2725 27.9501L37.2725 28.8542" stroke="#70D7FF" stroke-width="9.43192"/>
</svg>
