<svg width="94" height="94" viewBox="0 0 94 94" fill="none" xmlns="http://www.w3.org/2000/svg">
<rect width="93.1727" height="93.1727" rx="46.5863" fill="#EBFBED"/>
<path fill-rule="evenodd" clip-rule="evenodd" d="M43.0267 36.9638C43.064 36.4784 43.4688 36.1035 43.9556 36.1035H44.579C45.0576 36.1035 45.4584 36.4662 45.5061 36.9425L46.5868 47.7501L54.27 52.1405C54.5603 52.3064 54.7394 52.6151 54.7394 52.9494V53.5182C54.7394 54.1325 54.1553 54.5787 53.5625 54.4171L42.6711 51.4467C42.2399 51.3291 41.953 50.9219 41.9872 50.4763L43.0267 36.9638Z" fill="#34C759"/>
<path opacity="0.3" d="M31.1611 21.9639C31.3388 21.2192 32.2891 20.9946 32.7812 21.5811L35.8486 25.2363C38.7889 23.9844 42.0245 23.291 45.4219 23.291L46.0527 23.2988C59.2688 23.6335 69.8799 34.4523 69.8799 47.749C69.8798 61.2566 58.9295 72.2069 45.4219 72.207C31.9142 72.207 20.9639 61.2567 20.9639 47.749C20.9639 45.455 21.2795 43.2343 21.8701 41.1289L26.3555 42.3877C25.8708 44.1156 25.6221 45.9135 25.6221 47.749C25.6221 58.6838 34.4871 67.5479 45.4219 67.5479C56.3566 67.5478 65.2207 58.6837 65.2207 47.749C65.2207 36.985 56.6313 28.227 45.9326 27.9561L45.4219 27.9502C43.2065 27.9502 41.0494 28.3146 39.0146 29.0098L42.0859 32.6699C42.5784 33.2574 42.1902 34.1556 41.4248 34.1992L29.3115 34.8857C28.6888 34.921 28.208 34.346 28.3525 33.7393L31.1611 21.9639Z" fill="#34C759"/>
</svg>
