<svg width="94" height="94" viewBox="0 0 94 94" fill="none" xmlns="http://www.w3.org/2000/svg">
<rect width="93.1727" height="93.1727" rx="46.5863" fill="#FFB240" fill-opacity="0.2"/>
<path opacity="0.3" d="M34.939 55.9023C37.5117 55.9023 39.5979 57.9879 39.5981 60.5605V62.8906C39.598 65.4634 37.5117 67.5488 34.939 67.5488C32.3664 67.5486 30.2809 65.4632 30.2808 62.8906V60.5605C30.281 57.988 32.3664 55.9026 34.939 55.9023ZM58.2329 55.9023C60.8055 55.9025 62.8909 57.988 62.8911 60.5605V62.8906C62.8909 65.4633 60.8055 67.5486 58.2329 67.5488C55.6601 67.5488 53.5739 65.4634 53.5737 62.8906V60.5605C53.574 57.9879 55.6602 55.9023 58.2329 55.9023Z" fill="#FFB240"/>
<path d="M57.6367 27.9492C63.1114 27.9495 67.5495 32.3876 67.5498 37.8623V52.9756C67.5496 58.4503 63.1114 62.8884 57.6367 62.8887H35.5361C30.0612 62.8887 25.6223 58.4505 25.6221 52.9756V37.8623C25.6223 32.3874 30.0612 27.9492 35.5361 27.9492H57.6367ZM54.7393 37.2666C50.2368 37.2666 46.5861 40.9165 46.5859 45.4189C46.586 49.9215 50.2367 53.5713 54.7393 53.5713C59.2414 53.5709 62.8915 49.9212 62.8916 45.4189C62.8915 40.9167 59.2414 37.267 54.7393 37.2666ZM54.7383 41.9248C56.6679 41.9248 58.2323 43.4893 58.2324 45.4189C58.2324 47.3486 56.668 48.9131 54.7383 48.9131C52.8087 48.9129 51.2441 47.3485 51.2441 45.4189C51.2442 43.4894 52.8088 41.9249 54.7383 41.9248ZM34.9395 37.2666C33.653 37.2666 32.6104 38.3093 32.6104 39.5957V44.2549C32.6106 45.5411 33.6532 46.584 34.9395 46.584C36.2257 46.5839 37.2683 45.5411 37.2686 44.2549V39.5957C37.2685 38.3093 36.2258 37.2667 34.9395 37.2666Z" fill="#FFB240"/>
</svg>
