<svg width="74" height="74" viewBox="0 0 74 74" fill="none" xmlns="http://www.w3.org/2000/svg">
<rect x="1" y="1" width="72" height="72" rx="36" fill="#4C50C2"/>
<rect x="1" y="1" width="72" height="72" rx="36" stroke="white" stroke-width="2"/>
<path d="M38.2945 26.5645L37.5782 26.9887C36.7914 27.4547 36.398 27.6876 35.9646 27.7419C35.5312 27.7962 35.1069 27.6656 34.2583 27.4045L33.4858 27.1668C30.4996 26.2479 29.0065 25.7884 28.109 26.6099C27.2114 27.4313 27.5039 28.9897 28.0889 32.1064L28.2402 32.9127C28.4064 33.7984 28.4895 34.2412 28.3909 34.6738C28.2924 35.1064 28.0232 35.4798 27.485 36.2267L26.9949 36.9066C25.1008 39.5347 24.1537 40.8488 24.6157 41.9382C25.0778 43.0276 26.6429 43.1708 29.7733 43.4573L30.5831 43.5315C31.4726 43.6129 31.9174 43.6536 32.2899 43.8667C32.6623 44.0798 32.9203 44.4411 33.4362 45.1638L33.9059 45.8218C35.7215 48.365 36.6292 49.6366 37.8123 49.4884C38.9954 49.3402 39.6702 47.8704 41.0199 44.9308L41.3691 44.1703C41.5651 43.7433 41.711 43.4255 41.8508 43.1766L47.5871 48.9129C47.9532 49.279 48.5468 49.279 48.9129 48.9129C49.279 48.5468 49.279 47.9532 48.9129 47.5871L43.3732 42.0474C43.5257 41.9919 43.6959 41.9323 43.8876 41.8651L44.668 41.5918C47.6842 40.5355 49.1923 40.0073 49.4614 38.8263C49.7306 37.6454 48.5825 36.5937 46.2863 34.4904L45.6923 33.9463C45.0398 33.3486 44.7135 33.0497 44.5443 32.6507C44.375 32.2516 44.3819 31.7975 44.3957 30.8893L44.4083 30.0624C44.4569 26.8664 44.4812 25.2683 43.4644 24.6866C42.4477 24.1049 41.0633 24.9248 38.2945 26.5645Z" fill="white"/>
</svg>
