<svg width="30" height="30" viewBox="0 0 30 30" fill="none" xmlns="http://www.w3.org/2000/svg">
<path fill-rule="evenodd" clip-rule="evenodd" d="M27.5 15C27.5 21.9036 21.9036 27.5 15 27.5C8.09644 27.5 2.5 21.9036 2.5 15C2.5 8.09644 8.09644 2.5 15 2.5C21.9036 2.5 27.5 8.09644 27.5 15ZM11.212 11.2121C11.5782 10.8459 12.1717 10.8459 12.5379 11.2121L15 13.6742L17.462 11.2121C17.8282 10.846 18.4217 10.846 18.7879 11.2121C19.154 11.5782 19.154 12.1718 18.7879 12.5379L16.3258 15L18.7878 17.462C19.154 17.8282 19.154 18.4217 18.7878 18.7879C18.4217 19.154 17.8281 19.154 17.462 18.7879L15 16.3258L12.5379 18.7879C12.1718 19.154 11.5782 19.154 11.2121 18.7879C10.8459 18.4218 10.8459 17.8282 11.2121 17.4621L13.6741 15L11.212 12.5379C10.8459 12.1718 10.8459 11.5782 11.212 11.2121Z" fill="#DECCFF"/>
</svg>
