<svg width="68" height="66" viewBox="0 0 68 66" fill="none" xmlns="http://www.w3.org/2000/svg">
<path d="M60.7383 14.1045C64.4655 14.1045 67.4873 17.1263 67.4873 20.8535V26.4365C67.4873 29.4168 65.5323 32.045 62.6777 32.9014L37.6221 40.418C35.0922 41.1769 32.3951 41.1769 29.8652 40.418L4.80957 32.9014C1.95497 32.045 0 29.4168 0 26.4365V20.8535C0 17.1263 3.02182 14.1045 6.74902 14.1045H60.7383ZM33.7432 23.1465C32.3456 23.1467 31.2119 24.2801 31.2119 25.6777V31.4619C31.2121 32.8594 32.3457 33.993 33.7432 33.9932C35.1408 33.9932 36.2743 32.8595 36.2744 31.4619V25.6777C36.2744 24.28 35.1409 23.1465 33.7432 23.1465Z" fill="#8944AB"/>
<path opacity="0.3" d="M67.2129 49.7754C67.2128 58.6274 60.0366 65.8037 51.1846 65.8037H16.3164C7.46435 65.8037 0.288174 58.6274 0.288086 49.7754V36.3242C1.21958 36.9328 2.24768 37.4173 3.35352 37.749L28.4092 45.2656C31.8878 46.3092 35.5966 46.3092 39.0752 45.2656L64.1309 37.749C65.2434 37.4152 66.2769 36.9263 67.2129 36.3125V49.7754ZM33.75 34.5918L66.9932 28.9639C66.2419 30.8225 64.6816 32.2996 62.6758 32.9014L37.6201 40.418C35.0903 41.1768 32.3931 41.1769 29.8633 40.418L4.80762 32.9014C2.80067 32.2992 1.23903 30.8211 0.488281 28.9609L33.75 34.5918Z" fill="#8944AB"/>
<path d="M44.9947 14.1004V9.27995C44.9947 5.55275 41.9732 2.53125 38.246 2.53125H29.2477C25.5205 2.53125 22.499 5.55275 22.499 9.27995L22.499 14.1004" stroke="#AF52DE" stroke-width="5.06152"/>
</svg>
