<svg width="46" height="46" viewBox="0 0 46 46" fill="none" xmlns="http://www.w3.org/2000/svg">
<path d="M22.5772 0C10.1081 0 0 10.1082 0 22.5772C0 35.0463 10.1081 45.1545 22.5772 45.1545C33.7643 45.1545 43.0509 37.0181 44.8423 26.3401H44.6803C43.0094 32.8319 37.1163 37.6287 30.103 37.6287C21.7903 37.6287 15.0515 30.89 15.0515 22.5772C15.0515 14.2645 21.7903 7.52575 30.103 7.52575C37.1163 7.52575 43.0094 12.3225 44.6803 18.8144H44.8423C43.0509 8.13641 33.7643 0 22.5772 0Z" fill="#A4BCFD"/>
<path d="M0 22.5772C0 10.1082 10.1082 0 22.5772 0C33.7642 0 43.0509 8.13641 44.8423 18.8144H29.6288C27.9579 12.3226 22.0649 7.52575 15.0515 7.52575C6.73878 7.52575 0 14.2645 0 22.5772Z" fill="#3538CD"/>
<path d="M0 22.5771C0 35.0461 10.1082 45.1543 22.5772 45.1543C33.7642 45.1543 43.0509 37.0179 44.8423 26.3399H29.6288C27.9579 32.8317 22.0649 37.6286 15.0515 37.6286C6.73878 37.6286 0 30.8898 0 22.5771Z" fill="#3538CD"/>
</svg>
