<svg width="46" height="46" viewBox="0 0 46 46" fill="none" xmlns="http://www.w3.org/2000/svg">
<path d="M16.1267 32.2523C25.0332 32.2523 32.2533 25.0322 32.2533 16.1257C32.2533 15.1163 32.1605 14.1286 31.9831 13.1705C31.0251 12.9931 30.0374 12.9004 29.028 12.9004C20.1215 12.9004 12.9014 20.1205 12.9014 29.027C12.9014 30.0364 12.9941 31.0241 13.1715 31.9821C14.1295 32.1596 15.1173 32.2523 16.1267 32.2523Z" fill="#175CD3"/>
<path fill-rule="evenodd" clip-rule="evenodd" d="M13.1714 31.983C5.6763 30.595 0 24.0237 0 16.1266C0 7.22012 7.22012 0 16.1266 0C24.0237 0 30.595 5.6763 31.983 13.1714C31.025 12.994 30.0373 12.9013 29.0279 12.9013C20.1214 12.9013 12.9013 20.1214 12.9013 29.0279C12.9013 30.0373 12.994 31.025 13.1714 31.983Z" fill="#1570EF"/>
<path fill-rule="evenodd" clip-rule="evenodd" d="M16.1265 32.2536C25.033 32.2536 32.2532 25.0335 32.2532 16.127C32.2532 15.1176 32.1604 14.1299 31.983 13.1719C39.4781 14.5599 45.1544 21.1312 45.1544 29.0283C45.1544 37.9348 37.9343 45.1549 29.0278 45.1549C21.1308 45.1549 14.5594 39.4786 13.1714 31.9835C14.1294 32.1609 15.1171 32.2536 16.1265 32.2536Z" fill="#2E90FA"/>
</svg>
