<svg width="50" height="50" viewBox="0 0 50 50" fill="none" xmlns="http://www.w3.org/2000/svg">
<path d="M37.1274 37.5409C41.76 37.0809 45.378 33.1724 45.378 28.4188C45.378 22.9056 40.3147 18.5691 34.8993 19.3446C34.8904 19.3458 34.8817 19.3413 34.8777 19.3334C32.8065 15.2075 28.5367 12.376 23.6056 12.376C17.0367 12.376 11.6413 17.4008 11.0536 23.8164C11.0526 23.8271 11.0436 23.8353 11.0329 23.8353C7.2748 23.832 4.125 26.9394 4.125 30.7107C4.125 34.5079 7.20327 37.5862 11.0005 37.5862H12.3756" stroke="#272848" stroke-width="3.09398" stroke-linecap="round"/>
<g opacity="0.3">
<path d="M19.5938 34.0335L24.0211 29.6062C24.4238 29.2035 25.0768 29.2035 25.4796 29.6062L29.9069 34.0335" stroke="#272848" stroke-width="3.09398" stroke-linecap="round"/>
<path d="M24.752 30.9395L24.752 43.3154" stroke="#272848" stroke-width="3.09398" stroke-linecap="round"/>
</g>
</svg>
