<svg width="25" height="25" viewBox="0 0 25 25" fill="none" xmlns="http://www.w3.org/2000/svg">
<g opacity="0.6">
<g clip-path="url(#clip0_86_22239)">
<path d="M17.1041 10.9478C15.7324 10.5155 14.0857 10.2637 12.315 10.2637C10.5442 10.2637 8.89761 10.5155 7.52588 10.9478V13.3424C8.89761 12.9101 10.5442 12.6582 12.315 12.6582C14.0857 12.6582 15.7324 12.9101 17.1041 13.3424V10.9478Z" stroke="#1D8EE6" stroke-width="1.53936" stroke-linejoin="round"/>
<path d="M17.1041 13V14.3842C17.1041 15.8421 16.398 17.1932 15.244 17.9433L14.2862 18.5659C13.0729 19.3546 11.5571 19.3546 10.3438 18.5659L9.38599 17.9433C8.23199 17.1932 7.52588 15.8421 7.52588 14.3842V13" stroke="#1D8EE6" stroke-width="1.53936" stroke-linecap="round"/>
<path d="M17.1038 10.9479L17.874 10.5422C18.7382 9.97552 19.1702 9.69215 19.156 9.2873C19.1417 8.88244 18.6911 8.63613 17.7897 8.14352L14.5556 6.37603C13.456 5.77509 12.9062 5.47461 12.3147 5.47461C11.7233 5.47461 11.1735 5.77509 10.0739 6.37603L6.83977 8.14352C5.9384 8.63613 5.48771 8.88244 5.47348 9.2873C5.45925 9.69215 5.89133 9.97552 6.75549 10.5422L7.52562 10.9479" stroke="#1D8EE6" stroke-width="1.53936" stroke-linecap="round"/>
</g>
</g>
<defs>
<clipPath id="clip0_86_22239">
<rect width="16.4198" height="16.4198" fill="white" transform="translate(4.10498 4.10547)"/>
</clipPath>
</defs>
</svg>
