<svg width="60" height="60" viewBox="0 0 60 60" fill="none" xmlns="http://www.w3.org/2000/svg">
<path opacity="0.3" fill-rule="evenodd" clip-rule="evenodd" d="M7.5 51C7.5 51.8284 8.17157 52.5 9 52.5H56C56.8284 52.5 57.5 51.8284 57.5 51V19C57.5 18.1716 56.8284 17.5 56 17.5H27.5L20.4393 10.4393C20.158 10.158 19.7765 10 19.3787 10H9C8.17157 10 7.5 10.6716 7.5 11.5V51Z" fill="#FF5A4F"/>
<path fill-rule="evenodd" clip-rule="evenodd" d="M2.5 46C2.5 46.8284 3.17157 47.5 4 47.5H51C51.8284 47.5 52.5 46.8284 52.5 46V14C52.5 13.1716 51.8284 12.5 51 12.5H22.5L15.4393 5.43934C15.158 5.15804 14.7765 5 14.3787 5H4C3.17157 5 2.5 5.67157 2.5 6.5V46Z" fill="#FF5A4F"/>
</svg>
