<svg width="22" height="22" viewBox="0 0 22 22" fill="none" xmlns="http://www.w3.org/2000/svg">
<path fill-rule="evenodd" clip-rule="evenodd" d="M3.04089 0.738994C4.03087 -0.246857 5.63534 -0.246253 6.62457 0.740344L14.2756 8.3724C14.8876 8.98271 15.2473 9.7997 15.2837 10.6617L15.3927 13.2403C15.4423 14.4145 14.5005 15.3934 13.3213 15.3935L10.7843 15.3936C9.85285 15.3936 8.96084 15.0189 8.31047 14.3544L0.720987 6.57618C-0.24788 5.58626 -0.237691 4.00389 0.743847 3.02645L3.04089 0.738994ZM5.64684 1.714C5.19718 1.26555 4.46788 1.26528 4.01789 1.71339L1.72084 4.00085C1.27469 4.44514 1.27006 5.1644 1.71045 5.61436L3.23471 7.17173L7.17991 3.24299L5.64684 1.714ZM8.15691 4.21739L13.2979 9.34606C13.665 9.71225 13.8809 10.2024 13.9028 10.7197L14.0117 13.2983C14.0282 13.6897 13.7143 14.016 13.3212 14.016L10.7842 14.0161C10.2254 14.0161 9.69016 13.7913 9.29993 13.3926L4.1999 8.15789L8.15691 4.21739Z" fill="white"/>
<path d="M2.05311 11.2889L2.05311 15.3938C2.05311 18.2277 4.35042 20.525 7.1843 20.525L15.3942 20.525C18.2281 20.525 20.5254 18.2277 20.5254 15.3938L20.5254 7.18392C20.5254 4.35004 18.2281 2.05273 15.3942 2.05273L11.2892 2.05274" stroke="white" stroke-width="1.53936" stroke-linecap="round"/>
</svg>
