<svg width="60" height="60" viewBox="0 0 60 60" fill="none" xmlns="http://www.w3.org/2000/svg">
<path opacity="0.3" d="M45 20C49.1421 20 52.5 23.3579 52.5 27.5C52.5 31.6421 49.1421 35 45 35C40.8579 35 37.5 31.6421 37.5 27.5C37.5 23.3579 40.8579 20 45 20ZM22.5 7.5C28.0228 7.5 32.5 11.9772 32.5 17.5C32.5 23.0228 28.0228 27.5 22.5 27.5C16.9772 27.5 12.5 23.0228 12.5 17.5C12.5 11.9772 16.9772 7.5 22.5 7.5Z" fill="#1D8EE6"/>
<path d="M22.459 32.5C34.4285 32.5001 44.2625 38.2331 44.9951 50.5C45.0243 50.9887 44.9951 52.4999 43.1172 52.5H1.81934C1.19237 52.5 -0.0507854 51.148 0.00195312 50.498C0.97097 38.5663 10.6554 32.5 22.459 32.5ZM44.0029 37.5039C52.5192 37.5969 59.4726 41.9006 59.9961 51C60.0171 51.367 59.996 52.4998 58.6406 52.5H49C48.9999 46.8734 47.14 41.6816 44.0029 37.5039Z" fill="#1D8EE6"/>
</svg>
