<svg width="60" height="60" viewBox="0 0 60 60" fill="none" xmlns="http://www.w3.org/2000/svg">
<path opacity="0.3" d="M17.5 40C20.2614 40 22.5 42.2386 22.5 45V47.5C22.5 50.2614 20.2614 52.5 17.5 52.5C14.7386 52.5 12.5 50.2614 12.5 47.5V45C12.5 42.2386 14.7386 40 17.5 40ZM42.5 40C45.2614 40 47.5 42.2386 47.5 45V47.5C47.5 50.2614 45.2614 52.5 42.5 52.5C39.7386 52.5 37.5 50.2614 37.5 47.5V45C37.5 42.2386 39.7386 40 42.5 40Z" fill="#FFB240"/>
<path d="M44.9004 10C49.0976 10.0002 52.5 13.4034 52.5 17.6006V39.9004C52.4998 44.0974 49.0974 47.4998 44.9004 47.5H15.0996C10.9026 47.4998 7.50021 44.0974 7.5 39.9004V17.6006C7.5 13.4034 10.9024 10.0002 15.0996 10H44.9004ZM38.75 20C33.9176 20 30.0002 23.9177 30 28.75C30.0002 33.5823 33.9176 37.5 38.75 37.5C43.5824 37.5 47.4998 33.5823 47.5 28.75C47.4998 23.9177 43.5824 20 38.75 20ZM38.75 25C40.8211 25 42.5 26.6789 42.5 28.75C42.5 30.8211 40.8211 32.5 38.75 32.5C36.6789 32.5 35 30.8211 35 28.75C35 26.6789 36.6789 25 38.75 25ZM17.5 20C16.1193 20 15 21.1193 15 22.5V27.5C15 28.8807 16.1193 30 17.5 30C18.8807 30 20 28.8807 20 27.5V22.5C20 21.1193 18.8807 20 17.5 20Z" fill="#FFB240"/>
</svg>
