<svg width="25" height="25" viewBox="0 0 25 25" fill="none" xmlns="http://www.w3.org/2000/svg">
<path d="M4.10547 3.59209C4.10547 2.74193 4.79466 2.05273 5.64483 2.05273H10.776C11.6262 2.05273 12.3154 2.74193 12.3154 3.59209V11.802C12.3154 12.6522 11.6262 13.3414 10.776 13.3414H4.10547V3.59209Z" stroke="#1D8EE6" stroke-width="1.53936"/>
<path d="M12.3145 4.10547H18.5091C19.3478 4.10547 19.8323 5.057 19.339 5.73531L17.2974 8.54257C16.774 9.26227 16.774 10.2373 17.2974 10.957L19.339 13.7642C19.8323 14.4426 19.3478 15.3941 18.5091 15.3941H13.3407C12.7739 15.3941 12.3145 14.9346 12.3145 14.3678V4.10547Z" stroke="#1D8EE6" stroke-width="1.53936"/>
<path d="M4.10547 22.5778L4.10547 4.10547" stroke="#1D8EE6" stroke-width="1.53936" stroke-linecap="round" stroke-linejoin="round"/>
</svg>
