<svg width="27" height="27" viewBox="0 0 27 27" fill="none" xmlns="http://www.w3.org/2000/svg">
<path fill-rule="evenodd" clip-rule="evenodd" d="M26.7457 13.6768C26.7457 12.7286 26.6588 11.8168 26.4976 10.9415H13.6457V16.1143H20.9896C20.6733 17.7859 19.7119 19.2022 18.2667 20.1505V23.5058H22.6767C25.257 21.1778 26.7457 17.7494 26.7457 13.6768Z" fill="#4285F4"/>
<path fill-rule="evenodd" clip-rule="evenodd" d="M13.6458 26.7456C17.3301 26.7456 20.419 25.5482 22.6767 23.5058L18.2667 20.1505C17.0448 20.9528 15.4817 21.4269 13.6458 21.4269C10.0917 21.4269 7.08339 19.0745 6.01034 15.9136H1.45142V19.3784C3.69677 23.7489 8.31151 26.7456 13.6458 26.7456Z" fill="#34A853"/>
<path fill-rule="evenodd" clip-rule="evenodd" d="M6.01034 15.9136C5.73743 15.1113 5.58235 14.2543 5.58235 13.3729C5.58235 12.4915 5.73742 11.6344 6.01033 10.832V7.36727H1.45141C0.527222 9.1726 0 11.215 0 13.3729C0 15.5308 0.527228 17.5731 1.45142 19.3784L6.01034 15.9136Z" fill="#FBBC05"/>
<path fill-rule="evenodd" clip-rule="evenodd" d="M13.6458 5.31873C15.6492 5.31873 17.448 5.99345 18.8622 7.31858L22.776 3.48301C20.4128 1.32512 17.3239 0 13.6458 0C8.31151 0 3.69676 2.99679 1.45141 7.36727L6.01033 10.832C7.08339 7.6712 10.0917 5.31873 13.6458 5.31873Z" fill="#EA4335"/>
</svg>
