<svg width="21" height="21" viewBox="0 0 21 21" fill="none" xmlns="http://www.w3.org/2000/svg">
<path d="M18.8141 7.28585V3.40325C18.8141 2.19742 18.2668 1.70996 16.907 1.70996H13.452C12.0922 1.70996 11.5449 2.19742 11.5449 3.40325V7.2773C11.5449 8.49168 12.0922 8.97059 13.452 8.97059H16.907C18.2668 8.97915 18.8141 8.49168 18.8141 7.28585Z" stroke="white" stroke-width="1.53936" stroke-linecap="round" stroke-linejoin="round"/>
<path d="M18.8141 16.907V13.452C18.8141 12.0922 18.2668 11.5449 16.907 11.5449H13.452C12.0922 11.5449 11.5449 12.0922 11.5449 13.452V16.907C11.5449 18.2668 12.0922 18.8141 13.452 18.8141H16.907C18.2668 18.8141 18.8141 18.2668 18.8141 16.907Z" stroke="white" stroke-width="1.53936" stroke-linecap="round" stroke-linejoin="round"/>
<path d="M8.98012 7.28585V3.40325C8.98012 2.19742 8.4328 1.70996 7.07303 1.70996H3.61803C2.25826 1.70996 1.71094 2.19742 1.71094 3.40325V7.2773C1.71094 8.49168 2.25826 8.97059 3.61803 8.97059H7.07303C8.4328 8.97915 8.98012 8.49168 8.98012 7.28585Z" stroke="white" stroke-width="1.53936" stroke-linecap="round" stroke-linejoin="round"/>
<path d="M8.98012 16.907V13.452C8.98012 12.0922 8.4328 11.5449 7.07303 11.5449H3.61803C2.25826 11.5449 1.71094 12.0922 1.71094 13.452V16.907C1.71094 18.2668 2.25826 18.8141 3.61803 18.8141H7.07303C8.4328 18.8141 8.98012 18.2668 8.98012 16.907Z" stroke="white" stroke-width="1.53936" stroke-linecap="round" stroke-linejoin="round"/>
</svg>
