<svg width="30" height="30" viewBox="0 0 30 30" fill="none" xmlns="http://www.w3.org/2000/svg">
<path d="M16.2852 2.50195C17.6915 2.5057 18.4052 2.5132 19.0215 2.5307L19.264 2.53945C19.544 2.54945 19.8202 2.56195 20.154 2.57695C21.484 2.63945 22.3915 2.84945 23.1877 3.1582C24.0127 3.4757 24.7077 3.9057 25.4027 4.59945C26.0384 5.22432 26.5302 5.98019 26.844 6.81445C27.1527 7.6107 27.3627 8.5182 27.4252 9.84945C27.4402 10.182 27.4527 10.4582 27.4627 10.7395L27.4702 10.982C27.489 11.597 27.4965 12.3107 27.499 13.717L27.5002 14.6495V16.287C27.5033 17.1987 27.4937 18.1105 27.4715 19.022L27.464 19.2645C27.454 19.5457 27.4415 19.822 27.4265 20.1545C27.364 21.4857 27.1515 22.392 26.844 23.1895C26.5311 24.0242 26.0391 24.7802 25.4027 25.4045C24.7777 26.0399 24.0219 26.5316 23.1877 26.8457C22.3915 27.1545 21.484 27.3645 20.154 27.427C19.8574 27.4409 19.5607 27.4534 19.264 27.4645L19.0215 27.472C18.4052 27.4895 17.6915 27.4982 16.2852 27.5007L15.3527 27.502H13.7165C12.8043 27.5051 11.8921 27.4955 10.9802 27.4732L10.7377 27.4657C10.441 27.4545 10.1443 27.4415 9.84773 27.427C8.51773 27.3645 7.61023 27.1545 6.81273 26.8457C5.97857 26.5324 5.223 26.0405 4.59898 25.4045C3.96279 24.7798 3.47051 24.0239 3.15648 23.1895C2.84773 22.3932 2.63773 21.4857 2.57523 20.1545C2.56131 19.8578 2.54881 19.5612 2.53773 19.2645L2.53148 19.022C2.50845 18.1105 2.49803 17.1987 2.50023 16.287V13.717C2.49674 12.8052 2.50591 11.8934 2.52773 10.982L2.53648 10.7395C2.54648 10.4582 2.55898 10.182 2.57398 9.84945C2.63648 8.5182 2.84648 7.61195 3.15523 6.81445C3.46913 5.97933 3.96238 5.22323 4.60023 4.59945C5.2241 3.9638 5.97916 3.47194 6.81273 3.1582C7.61023 2.84945 8.51648 2.63945 9.84773 2.57695C10.1802 2.56195 10.4577 2.54945 10.7377 2.53945L10.9802 2.53195C11.8917 2.50974 12.8035 2.50016 13.7152 2.5032L16.2852 2.50195ZM15.0002 8.75195C13.3426 8.75195 11.7529 9.41043 10.5808 10.5825C9.40871 11.7546 8.75023 13.3443 8.75023 15.002C8.75023 16.6596 9.40871 18.2493 10.5808 19.4214C11.7529 20.5935 13.3426 21.252 15.0002 21.252C16.6578 21.252 18.2475 20.5935 19.4197 19.4214C20.5918 18.2493 21.2502 16.6596 21.2502 15.002C21.2502 13.3443 20.5918 11.7546 19.4197 10.5825C18.2475 9.41043 16.6578 8.75195 15.0002 8.75195ZM15.0002 11.252C15.4927 11.2519 15.9803 11.3488 16.4353 11.5372C16.8903 11.7255 17.3038 12.0017 17.6521 12.3499C18.0003 12.698 18.2766 13.1114 18.4652 13.5663C18.6537 14.0213 18.7508 14.5089 18.7509 15.0013C18.7509 15.4938 18.654 15.9814 18.4656 16.4364C18.2773 16.8914 18.0011 17.3049 17.653 17.6532C17.3048 18.0014 16.8914 18.2777 16.4365 18.4663C15.9816 18.6548 15.4939 18.7519 15.0015 18.752C14.0069 18.752 13.0531 18.3569 12.3498 17.6536C11.6466 16.9503 11.2515 15.9965 11.2515 15.002C11.2515 14.0074 11.6466 13.0536 12.3498 12.3503C13.0531 11.647 14.0069 11.252 15.0015 11.252M21.564 6.87695C21.1496 6.87695 20.7522 7.04157 20.4591 7.3346C20.1661 7.62762 20.0015 8.02505 20.0015 8.43945C20.0015 8.85385 20.1661 9.25128 20.4591 9.54431C20.7522 9.83733 21.1496 10.002 21.564 10.002C21.9784 10.002 22.3758 9.83733 22.6688 9.54431C22.9619 9.25128 23.1265 8.85385 23.1265 8.43945C23.1265 8.02505 22.9619 7.62762 22.6688 7.3346C22.3758 7.04157 21.9784 6.87695 21.564 6.87695Z" fill="#1D8EE6"/>
</svg>
