<svg width="46" height="46" viewBox="0 0 46 46" fill="none" xmlns="http://www.w3.org/2000/svg">
<path d="M13.6259 20.8518C14.4697 17.703 17.7064 14.4663 20.8552 13.6225L40.4861 8.36161C43.6348 7.51778 45.5033 9.3863 44.6595 12.5351L39.3986 32.166C38.5548 35.3147 35.3181 38.5514 32.1694 39.3952L12.5385 44.6561C9.38971 45.4999 7.52119 43.6314 8.36503 40.4826L13.6259 20.8518Z" fill="#9E77ED"/>
<path d="M5.75579 12.9807C6.59963 9.83188 9.83628 6.59523 12.9851 5.75139L32.616 0.490517C35.7647 -0.353322 37.6333 1.5152 36.7894 4.66397L31.5285 24.2949C30.6847 27.4436 27.448 30.6803 24.2993 31.5241L4.66837 36.785C1.5196 37.6288 -0.348925 35.7603 0.494914 32.6115L5.75579 12.9807Z" fill="#6941C6"/>
</svg>
