<svg width="30" height="30" viewBox="0 0 30 30" fill="none" xmlns="http://www.w3.org/2000/svg">
<path d="M25.5872 2.50213H4.41221C4.17418 2.49882 3.93783 2.54244 3.71666 2.63048C3.49549 2.71853 3.29384 2.84928 3.1232 3.01527C2.95257 3.18126 2.81631 3.37923 2.7222 3.59789C2.62809 3.81655 2.57797 4.0516 2.57471 4.28963V25.7146C2.57797 25.9527 2.62809 26.1877 2.7222 26.4064C2.81631 26.625 2.95257 26.823 3.1232 26.989C3.29384 27.155 3.49549 27.2857 3.71666 27.3738C3.93783 27.4618 4.17418 27.5054 4.41221 27.5021H25.5872C25.8252 27.5054 26.0616 27.4618 26.2827 27.3738C26.5039 27.2857 26.7056 27.155 26.8762 26.989C27.0468 26.823 27.1831 26.625 27.2772 26.4064C27.3713 26.1877 27.4214 25.9527 27.4247 25.7146V4.28963C27.4214 4.0516 27.3713 3.81655 27.2772 3.59789C27.1831 3.37923 27.0468 3.18126 26.8762 3.01527C26.7056 2.84928 26.5039 2.71853 26.2827 2.63048C26.0616 2.54244 25.8252 2.49882 25.5872 2.50213ZM10.1122 23.4271H6.36221V12.1771H10.1122V23.4271ZM8.23721 10.6021C7.72004 10.6021 7.22404 10.3967 6.85835 10.031C6.49265 9.66529 6.28721 9.1693 6.28721 8.65213C6.28721 8.13496 6.49265 7.63897 6.85835 7.27327C7.22404 6.90757 7.72004 6.70213 8.23721 6.70213C8.51183 6.67098 8.78993 6.6982 9.0533 6.78198C9.31667 6.86577 9.55938 7.00424 9.76553 7.18833C9.97168 7.37242 10.1366 7.59798 10.2495 7.85023C10.3625 8.10248 10.4209 8.37575 10.4209 8.65213C10.4209 8.92851 10.3625 9.20177 10.2495 9.45402C10.1366 9.70628 9.97168 9.93184 9.76553 10.1159C9.55938 10.3 9.31667 10.4385 9.0533 10.5223C8.78993 10.6061 8.51183 10.6333 8.23721 10.6021ZM23.6372 23.4271H19.8872V17.3896C19.8872 15.8771 19.3497 14.8896 17.9872 14.8896C17.5655 14.8927 17.1549 15.025 16.8108 15.2686C16.4666 15.5122 16.2053 15.8555 16.0622 16.2521C15.9644 16.5459 15.922 16.8553 15.9372 17.1646V23.4146H12.1872V12.1646H15.9372V13.7521C16.2779 13.161 16.7733 12.674 17.3703 12.3436C17.9672 12.0132 18.6429 11.8519 19.3247 11.8771C21.8247 11.8771 23.6372 13.4896 23.6372 16.9521V23.4271Z" fill="#1D8EE6"/>
</svg>
