<svg width="14" height="14" viewBox="0 0 14 14" fill="none" xmlns="http://www.w3.org/2000/svg">
<path d="M8.71484 2.1875C9.45692 2.38666 10.1336 2.7775 10.6769 3.32079C11.2202 3.86409 11.611 4.54073 11.8102 5.28281" stroke="#7C8091" stroke-linecap="round" stroke-linejoin="round"/>
<path d="M8.26172 3.87695C8.70803 3.99549 9.11508 4.2299 9.44162 4.55643C9.76815 4.88296 10.0026 5.29001 10.1211 5.73633" stroke="#7C8091" stroke-linecap="round" stroke-linejoin="round"/>
<path d="M5.05859 6.8252C5.50879 7.7549 6.26056 8.50473 7.19141 8.95254C7.26007 8.98506 7.33602 8.99913 7.41177 8.99337C7.48752 8.98762 7.56047 8.96224 7.62344 8.91973L8.99062 8.00645C9.05103 7.96548 9.12083 7.94048 9.19351 7.93379C9.26619 7.9271 9.33938 7.93892 9.40625 7.96817L11.9656 9.06739C12.0531 9.10379 12.1262 9.16795 12.1736 9.24996C12.221 9.33198 12.2402 9.42732 12.2281 9.52129C12.147 10.1544 11.838 10.7363 11.3588 11.1581C10.8797 11.5798 10.2633 11.8126 9.625 11.8127C7.65245 11.8127 5.7607 11.0291 4.36589 9.63431C2.97109 8.2395 2.1875 6.34775 2.1875 4.3752C2.18764 3.73689 2.42037 3.1205 2.84212 2.64136C3.26388 2.16223 3.84577 1.8532 4.47891 1.77208C4.57288 1.76 4.66822 1.77916 4.75024 1.82659C4.83225 1.87402 4.89641 1.9471 4.93281 2.03458L6.03203 4.59942C6.06062 4.66523 6.07257 4.73707 6.06685 4.8086C6.06113 4.88012 6.0379 4.94914 5.99922 5.00958L5.08594 6.39864C5.04528 6.46146 5.02141 6.53367 5.01663 6.60835C5.01184 6.68304 5.02629 6.7577 5.05859 6.8252V6.8252Z" stroke="#7C8091" stroke-linecap="round" stroke-linejoin="round"/>
</svg>
