<svg width="74" height="74" viewBox="0 0 74 74" fill="none" xmlns="http://www.w3.org/2000/svg">
<rect x="1" y="1" width="72" height="72" rx="36" fill="#34C759"/>
<rect x="1" y="1" width="72" height="72" rx="36" stroke="white" stroke-width="2"/>
<path d="M47.1147 39.9071L47.356 37.5395C47.4847 36.2762 47.5697 35.4421 47.503 34.9165L47.5263 34.9167C48.6164 34.9167 49.5 33.9839 49.5 32.8333C49.5 31.6827 48.6164 30.75 47.5263 30.75C46.4363 30.75 45.5526 31.6827 45.5526 32.8333C45.5526 33.3537 45.7334 33.8295 46.0322 34.1946C45.6032 34.4741 45.0423 35.0639 44.1981 35.9515L44.198 35.9516C43.5476 36.6355 43.2224 36.9774 42.8596 37.0304C42.6586 37.0597 42.4538 37.0296 42.2682 36.9433C41.9331 36.7876 41.7098 36.3648 41.2631 35.5194L38.9085 31.0631C38.6329 30.5415 38.4023 30.105 38.1943 29.7537C39.0474 29.2943 39.6316 28.358 39.6316 27.2778C39.6316 25.7437 38.4534 24.5 37 24.5C35.5466 24.5 34.3684 25.7437 34.3684 27.2778C34.3684 28.358 34.9526 29.2943 35.8057 29.7537C35.5977 30.105 35.3671 30.5414 35.0915 31.0631L32.7369 35.5194C32.2902 36.3648 32.0669 36.7876 31.7319 36.9433C31.5462 37.0296 31.3414 37.0597 31.1404 37.0304C30.7776 36.9774 30.4524 36.6355 29.802 35.9516C28.9577 35.0639 28.3968 34.4741 27.9678 34.1946C28.2666 33.8295 28.4474 33.3537 28.4474 32.8333C28.4474 31.6827 27.5637 30.75 26.4737 30.75C25.3836 30.75 24.5 31.6827 24.5 32.8333C24.5 33.9839 25.3836 34.9167 26.4737 34.9167L26.497 34.9165C26.4303 35.4421 26.5153 36.2762 26.644 37.5395L26.8853 39.9071C27.0192 41.2213 27.1305 42.4717 27.2669 43.5972H46.7331C46.8695 42.4717 46.9808 41.2213 47.1147 39.9071Z" fill="white"/>
<path d="M35.5685 49.5H38.4315C42.163 49.5 44.0287 49.5 45.2736 48.3238C45.8169 47.8105 46.161 46.885 46.4093 45.6806H27.5907C27.839 46.885 28.1831 47.8105 28.7264 48.3238C29.9713 49.5 31.837 49.5 35.5685 49.5Z" fill="white"/>
</svg>
