<svg width="46" height="46" viewBox="0 0 46 46" fill="none" xmlns="http://www.w3.org/2000/svg">
<path fill-rule="evenodd" clip-rule="evenodd" d="M22.5772 35.371C29.643 35.371 35.371 29.643 35.371 22.5772C35.371 15.5114 29.643 9.78347 22.5772 9.78347C15.5114 9.78347 9.78347 15.5114 9.78347 22.5772C9.78347 29.643 15.5114 35.371 22.5772 35.371ZM22.5772 45.1545C35.0463 45.1545 45.1545 35.0463 45.1545 22.5772C45.1545 10.1082 35.0463 0 22.5772 0C10.1082 0 0 10.1082 0 22.5772C0 35.0463 10.1082 45.1545 22.5772 45.1545Z" fill="#6938EF"/>
<path d="M22.8356 23.0717C25.1868 20.7205 28.9988 20.7205 31.35 23.0717L43.0573 34.779C45.4085 37.1302 45.4085 40.9422 43.0573 43.2934C40.7061 45.6446 36.8941 45.6446 34.5429 43.2934L22.8356 31.5861C20.4844 29.2349 20.4844 25.4228 22.8356 23.0717Z" fill="#F670C7"/>
<path d="M26.123 34.8728L33.5585 42.3082C37.1249 40.3192 40.0961 37.3913 42.138 33.8589L34.7635 26.4844C33.4681 30.5271 30.2168 33.6945 26.123 34.8728Z" fill="#6519BA"/>
</svg>
