<svg width="60" height="60" viewBox="0 0 60 60" fill="none" xmlns="http://www.w3.org/2000/svg">
<path d="M37.7607 2C37.7607 7.20732 33.1117 10.9699 30.4307 12.71C38.4459 13.9329 45.737 20.3513 50.3398 28.1738C48.9938 27.8615 47.5914 27.6963 46.1504 27.6963C35.9547 27.6963 27.6895 35.9622 27.6895 46.1582C27.6895 51.6703 30.1061 56.6173 33.9365 60H15.1045C6.77443 60 7.80963e-07 53.2725 0 45C0 31.5751 11.449 14.7702 24.9521 12.71C22.2711 10.9699 17.6221 7.20735 17.6221 2V0H37.7607V2Z" fill="#84DFC1"/>
<path opacity="0.3" fill-rule="evenodd" clip-rule="evenodd" d="M46.1553 59.996C38.5085 59.996 32.3096 53.7969 32.3096 46.1499C32.3096 38.5028 38.5085 32.3037 46.1553 32.3037C53.802 32.3037 60.0009 38.5028 60.0009 46.1499C60.0009 53.7969 53.802 59.996 46.1553 59.996Z" fill="#84DFC1"/>
<path fill-rule="evenodd" clip-rule="evenodd" d="M45.4066 37.601C45.4112 37.5418 45.4605 37.4961 45.5199 37.4961H46.7954C46.8537 37.4961 46.9026 37.5403 46.9084 37.5984L47.6399 44.9137L52.7748 47.848C52.8102 47.8682 52.832 47.9059 52.832 47.9466V49.2155C52.832 49.2904 52.7608 49.3448 52.6886 49.3251L44.7635 47.1637C44.711 47.1493 44.676 47.0997 44.6802 47.0454L45.4066 37.601Z" fill="#84DFC1"/>
</svg>
