<svg width="74" height="74" viewBox="0 0 74 74" fill="none" xmlns="http://www.w3.org/2000/svg">
<rect x="1" y="1" width="72" height="72" rx="36" fill="#FFB240"/>
<rect x="1" y="1" width="72" height="72" rx="36" stroke="white" stroke-width="2"/>
<path d="M49.4999 32.2029L49.4999 32.2936C49.4999 33.3695 49.4999 33.9075 49.2409 34.3476C48.9819 34.7878 48.5116 35.049 47.5711 35.5716L46.5795 36.1225C47.2628 33.8123 47.4908 31.3302 47.5751 29.2075C47.5787 29.1165 47.5828 29.0243 47.5869 28.9312L47.5897 28.866C48.4038 29.1487 48.8609 29.3595 49.1461 29.7551C49.5 30.2462 49.5 30.8984 49.4999 32.2029Z" fill="white"/>
<path d="M24.5 32.2029L24.5 32.2936C24.5 33.3695 24.5 33.9075 24.759 34.3476C25.018 34.7878 25.4883 35.049 26.4288 35.5716L27.421 36.1228C26.7376 33.8125 26.5096 31.3303 26.4253 29.2075C26.4217 29.1165 26.4176 29.0243 26.4135 28.9312L26.4106 28.8658C25.5963 29.1486 25.1391 29.3594 24.8539 29.7551C24.4999 30.2462 24.5 30.8984 24.5 32.2029Z" fill="white"/>
<path fill-rule="evenodd" clip-rule="evenodd" d="M37.0002 24.5C39.2296 24.5 41.0663 24.6964 42.4714 24.9334C43.8948 25.1736 44.6065 25.2937 45.2012 26.026C45.7958 26.7584 45.7644 27.55 45.7015 29.1331C45.4858 34.5681 44.3129 41.3566 37.9375 41.9571V46.375H39.7252C40.3211 46.375 40.8341 46.7956 40.951 47.3799L41.1875 48.5625H44.5C45.0178 48.5625 45.4375 48.9822 45.4375 49.5C45.4375 50.0178 45.0178 50.4375 44.5 50.4375H29.5C28.9822 50.4375 28.5625 50.0178 28.5625 49.5C28.5625 48.9822 28.9822 48.5625 29.5 48.5625H32.8125L33.049 47.3799C33.1659 46.7956 33.6789 46.375 34.2748 46.375H36.0625V41.9571C29.6874 41.3563 28.5146 34.568 28.2988 29.1331C28.236 27.55 28.2046 26.7584 28.7992 26.026C29.3939 25.2937 30.1056 25.1736 31.529 24.9334C32.9341 24.6964 34.7708 24.5 37.0002 24.5ZM38.1905 29.7486L38.0676 29.5281C37.5926 28.676 37.3551 28.25 37 28.25C36.6449 28.25 36.4074 28.676 35.9324 29.5281L35.8095 29.7486C35.6746 29.9907 35.6071 30.1118 35.5019 30.1917C35.3966 30.2716 35.2656 30.3012 35.0035 30.3605L34.7648 30.4145C33.8424 30.6232 33.3813 30.7276 33.2715 31.0804C33.1618 31.4332 33.4762 31.8009 34.105 32.5362L34.2677 32.7265C34.4464 32.9354 34.5358 33.0399 34.5759 33.1691C34.6161 33.2984 34.6026 33.4378 34.5756 33.7166L34.551 33.9704C34.456 34.9515 34.4084 35.442 34.6957 35.6601C34.9829 35.8781 35.4148 35.6793 36.2784 35.2817L36.5018 35.1788C36.7472 35.0658 36.8699 35.0093 37 35.0093C37.1301 35.0093 37.2528 35.0658 37.4982 35.1788L37.7216 35.2817C38.5852 35.6793 39.0171 35.8781 39.3043 35.6601C39.5916 35.442 39.544 34.9515 39.449 33.9704L39.4244 33.7166C39.3974 33.4378 39.3839 33.2984 39.4241 33.1691C39.4642 33.0399 39.5536 32.9354 39.7323 32.7265L39.895 32.5362C40.5238 31.8009 40.8382 31.4332 40.7285 31.0804C40.6187 30.7276 40.1576 30.6232 39.2352 30.4145L38.9965 30.3605C38.7344 30.3012 38.6034 30.2716 38.4981 30.1917C38.3929 30.1118 38.3254 29.9907 38.1905 29.7486Z" fill="white"/>
</svg>
