<svg width="5" height="19" viewBox="0 0 5 19" fill="none" xmlns="http://www.w3.org/2000/svg">
<path d="M2.05261 10.2615C2.61938 10.2615 3.07884 9.80207 3.07884 9.23529C3.07884 8.66852 2.61938 8.20906 2.05261 8.20906C1.48583 8.20906 1.02637 8.66852 1.02637 9.23529C1.02637 9.80207 1.48583 10.2615 2.05261 10.2615Z" stroke="#AFB1B6" stroke-width="2.05248" stroke-linecap="round" stroke-linejoin="round"/>
<path d="M2.05261 10.2615C2.61938 10.2615 3.07884 9.80207 3.07884 9.23529C3.07884 8.66852 2.61938 8.20906 2.05261 8.20906C1.48583 8.20906 1.02637 8.66852 1.02637 9.23529C1.02637 9.80207 1.48583 10.2615 2.05261 10.2615Z" stroke="black" stroke-opacity="0.2" stroke-width="2.05248" stroke-linecap="round" stroke-linejoin="round"/>
<path d="M2.05261 3.07787C2.61938 3.07787 3.07884 2.6184 3.07884 2.05163C3.07884 1.48485 2.61938 1.02539 2.05261 1.02539C1.48583 1.02539 1.02637 1.48485 1.02637 2.05163C1.02637 2.6184 1.48583 3.07787 2.05261 3.07787Z" stroke="#AFB1B6" stroke-width="2.05248" stroke-linecap="round" stroke-linejoin="round"/>
<path d="M2.05261 3.07787C2.61938 3.07787 3.07884 2.6184 3.07884 2.05163C3.07884 1.48485 2.61938 1.02539 2.05261 1.02539C1.48583 1.02539 1.02637 1.48485 1.02637 2.05163C1.02637 2.6184 1.48583 3.07787 2.05261 3.07787Z" stroke="black" stroke-opacity="0.2" stroke-width="2.05248" stroke-linecap="round" stroke-linejoin="round"/>
<path d="M2.05261 17.4452C2.61938 17.4452 3.07884 16.9857 3.07884 16.419C3.07884 15.8522 2.61938 15.3927 2.05261 15.3927C1.48583 15.3927 1.02637 15.8522 1.02637 16.419C1.02637 16.9857 1.48583 17.4452 2.05261 17.4452Z" stroke="#AFB1B6" stroke-width="2.05248" stroke-linecap="round" stroke-linejoin="round"/>
<path d="M2.05261 17.4452C2.61938 17.4452 3.07884 16.9857 3.07884 16.419C3.07884 15.8522 2.61938 15.3927 2.05261 15.3927C1.48583 15.3927 1.02637 15.8522 1.02637 16.419C1.02637 16.9857 1.48583 17.4452 2.05261 17.4452Z" stroke="black" stroke-opacity="0.2" stroke-width="2.05248" stroke-linecap="round" stroke-linejoin="round"/>
</svg>
