<svg width="60" height="60" viewBox="0 0 60 60" fill="none" xmlns="http://www.w3.org/2000/svg">
<path fill-rule="evenodd" clip-rule="evenodd" d="M26.2142 19.2117C26.2342 18.9512 26.4514 18.75 26.7127 18.75H28.2972C28.5541 18.75 28.7691 18.9446 28.7947 19.2002L29.9997 31.25L38.4978 36.106C38.6535 36.1951 38.7497 36.3607 38.7497 36.5402V38.0954C38.7497 38.4251 38.4362 38.6645 38.1181 38.5778L25.3983 35.1087C25.167 35.0456 25.013 34.8271 25.0314 34.588L26.2142 19.2117Z" fill="#34C759"/>
<path opacity="0.3" d="M13.6748 2.6084C13.7702 2.20887 14.2798 2.08875 14.5439 2.40332L18.4746 7.08691C21.6305 5.74314 25.1034 5 28.75 5L29.4277 5.00781C43.612 5.36728 55 16.9791 55 31.25C54.9998 45.7473 43.2474 57.5 28.75 57.5C14.2526 57.5 2.50018 45.7473 2.5 31.25C2.5 28.7878 2.83881 26.4042 3.47266 24.1445L8.28711 25.4951C7.76688 27.3497 7.5 29.2798 7.5 31.25C7.50018 42.9859 17.0141 52.5 28.75 52.5C40.4859 52.5 49.9998 42.9859 50 31.25C50 19.6974 40.7812 10.2979 29.2988 10.0068L28.75 10C26.3719 10 24.0562 10.3904 21.8721 11.1367L25.8105 15.8301C26.0747 16.1453 25.8667 16.6269 25.4561 16.6504L10.7891 17.4814C10.4548 17.5004 10.1967 17.1919 10.2744 16.8662L13.6748 2.6084Z" fill="#34C759"/>
</svg>
