<svg width="31" height="31" viewBox="0 0 31 31" fill="none" xmlns="http://www.w3.org/2000/svg">
<g clip-path="url(#clip0_1_14725)">
<path d="M0.657073 15.2054C0.656352 17.7921 1.33752 20.3179 2.63274 22.5441L0.533203 30.1504L8.37815 28.1094C10.548 29.2815 12.9791 29.8956 15.4496 29.8958H15.4561C23.6117 29.8958 30.2505 23.3108 30.254 15.217C30.2555 11.295 28.7176 7.60695 25.9235 4.83229C23.1298 2.05787 19.4143 0.529134 15.4555 0.527344C7.29892 0.527344 0.660561 7.11197 0.657194 15.2054" fill="url(#paint0_linear_1_14725)"/>
<path d="M0.128681 15.2046C0.127839 17.8843 0.833417 20.5004 2.17482 22.8063L0 30.6854L8.12624 28.5712C10.3653 29.7825 12.8862 30.4212 15.4514 30.4221H15.458C23.9062 30.4221 30.7835 23.6003 30.7871 15.2167C30.7886 11.1538 29.1953 7.33319 26.3014 4.45912C23.407 1.58542 19.5586 0.00167062 15.458 0C7.0084 0 0.132048 6.8209 0.128681 15.2046ZM4.96803 22.4092L4.66461 21.9313C3.38911 19.9189 2.71588 17.5934 2.71684 15.2055C2.71961 8.23723 8.43495 2.56798 15.4628 2.56798C18.8663 2.56941 22.0648 3.88586 24.4705 6.27437C26.8761 8.66312 28.1998 11.8385 28.199 15.2158C28.1958 22.184 22.4804 27.854 15.458 27.854H15.453C13.1664 27.8528 10.9239 27.2435 8.9682 26.0921L8.50278 25.8182L3.68051 27.0728L4.96803 22.4091V22.4092Z" fill="url(#paint1_linear_1_14725)"/>
<path d="M11.6258 8.8452C11.3389 8.2124 11.0369 8.19963 10.764 8.18853C10.5406 8.17898 10.2851 8.1797 10.0299 8.1797C9.77448 8.1797 9.35946 8.27504 9.00865 8.65511C8.65749 9.03553 7.66797 9.95485 7.66797 11.8246C7.66797 13.6945 9.04052 15.5015 9.23186 15.7554C9.42344 16.0087 11.8816 19.9685 15.7747 21.4919C19.0103 22.7579 19.6687 22.5061 20.3709 22.4426C21.0732 22.3794 22.6371 21.5235 22.9562 20.6361C23.2755 19.7487 23.2755 18.9881 23.1798 18.8292C23.084 18.6708 22.8286 18.5757 22.4456 18.3858C22.0624 18.1957 20.1793 17.2762 19.8283 17.1494C19.4771 17.0226 19.2218 16.9594 18.9664 17.3399C18.7109 17.7199 17.9774 18.5757 17.7539 18.8292C17.5306 19.0832 17.307 19.1149 16.9241 18.9248C16.5408 18.7341 15.3073 18.3333 13.8438 17.0386C12.7052 16.0313 11.9364 14.7872 11.713 14.4067C11.4895 14.0268 11.6891 13.8208 11.8811 13.6314C12.0532 13.4611 12.2643 13.1876 12.456 12.9658C12.6469 12.7438 12.7107 12.5855 12.8384 12.332C12.9662 12.0783 12.9023 11.8564 12.8067 11.6663C12.7107 11.4762 11.9664 9.59662 11.6258 8.8452Z" fill="white"/>
</g>
<defs>
<linearGradient id="paint0_linear_1_14725" x1="1486.57" y1="2962.83" x2="1486.57" y2="0.527344" gradientUnits="userSpaceOnUse">
<stop stop-color="#1FAF38"/>
<stop offset="1" stop-color="#60D669"/>
</linearGradient>
<linearGradient id="paint1_linear_1_14725" x1="1539.36" y1="3068.54" x2="1539.36" y2="0" gradientUnits="userSpaceOnUse">
<stop stop-color="#F9F9F9"/>
<stop offset="1" stop-color="white"/>
</linearGradient>
<clipPath id="clip0_1_14725">
<rect width="30.7871" height="30.7871" fill="white"/>
</clipPath>
</defs>
</svg>
