<svg width="25" height="25" viewBox="0 0 25 25" fill="none" xmlns="http://www.w3.org/2000/svg">
<g opacity="0.6">
<path d="M5.86986 10.0069C5.82149 9.60339 5.79731 9.40164 5.83132 9.23649C5.92838 8.76521 6.34299 8.38306 6.89552 8.25561C7.08914 8.21094 7.33221 8.21094 7.81835 8.21094H16.8115C17.2977 8.21094 17.5407 8.21094 17.7344 8.25561C18.2869 8.38306 18.7015 8.76521 18.7986 9.23649C18.8326 9.40164 18.8084 9.60339 18.76 10.0069C18.6492 10.9316 18.1297 11.4374 17.1391 11.7291L14.2853 12.5692C13.3098 12.8564 12.822 13 12.3149 13C11.8079 13 11.3201 12.8564 10.3445 12.5692L7.49081 11.7291C6.50023 11.4375 5.98072 10.9316 5.86986 10.0069Z" stroke="#1D8EE6" stroke-width="1.53936"/>
<path d="M6.47388 11.2891L6.33961 12.846C6.09894 15.6369 5.97861 17.0324 6.75062 17.9236C7.52264 18.8148 8.85179 18.8148 11.5101 18.8148H13.1192C15.7775 18.8148 17.1066 18.8148 17.8787 17.9236C18.6507 17.0324 18.5304 15.6369 18.2897 12.846L18.1555 11.2891" stroke="#1D8EE6" stroke-width="1.53936" stroke-linecap="round" stroke-linejoin="round"/>
<path d="M14.7095 7.86888L14.6566 7.68764C14.3932 6.78452 14.2615 6.33297 13.948 6.07469C13.6344 5.81641 13.218 5.81641 12.385 5.81641H12.245C11.4119 5.81641 10.9955 5.81641 10.6819 6.07469C10.3684 6.33297 10.2367 6.78452 9.97327 7.68764L9.92041 7.86888" stroke="#1D8EE6" stroke-width="1.53936"/>
</g>
</svg>
